<?xml version="1.0" encoding="utf-8"?>
<!-- Generator: Adobe Illustrator 24.0.3, SVG Export Plug-In . SVG Version: 6.00 Build 0)  -->
<svg version="1.1" id="Layer_1" xmlns="http://www.w3.org/2000/svg" xmlns:xlink="http://www.w3.org/1999/xlink" x="0px" y="0px"
	 viewBox="0 0 612 288" style="enable-background:new 0 0 612 288;" xml:space="preserve">
<style type="text/css">
	.st0{opacity:0.2;}
	.st1{opacity:0.5;fill:#FBFAFC;stroke:#FEFFFF;stroke-miterlimit:10;enable-background:new    ;}
	.st2{opacity:0.5;fill:none;stroke:#FEFFFF;stroke-miterlimit:10;enable-background:new    ;}
	.st3{opacity:0.2;fill:#BFC1C1;stroke:#FDFEFE;stroke-width:0.25;stroke-miterlimit:10;enable-background:new    ;}
	.st4{fill:#E2E2E2;}
	.st5{fill:#EAEAEA;}
	.st6{fill:none;stroke:#FDFEFE;stroke-width:0.25;stroke-miterlimit:10;}
	.st7{opacity:0.5;fill:none;stroke:#FDFEFE;stroke-miterlimit:10;enable-background:new    ;}
	.st8{fill:#E8E8E8;}
	.st9{opacity:0.5;fill:#FDFEFE;enable-background:new    ;}
	.st10{opacity:0.75;fill:#FDFEFE;enable-background:new    ;}
	.st11{fill:#FDFEFE;}
	.st12{font-family:'ArialMT';}
	.st13{font-size:3.7922px;}
	.st14{fill:#D4DBE6;}
	.st15{fill:#AAB2BD;}
	.st16{fill:#E1A575;}
	.st17{fill:#F2F2F3;stroke:#C6C6C5;stroke-width:0.25;stroke-miterlimit:10;}
	.st18{fill:#819BA8;}
	.st19{fill:#1A303D;}
	.st20{fill:#EFBB96;}
	.st21{opacity:0.5;fill:#5A3F2D;enable-background:new    ;}
	.st22{fill:#33312F;}
	.st23{opacity:0.5;fill:#E1A575;enable-background:new    ;}
	.st24{fill:#2F5972;}
	.st25{fill:#FFFFFF;stroke:#E5E5E5;stroke-width:0.25;stroke-miterlimit:10;}
	.st26{fill:#FFFFFF;stroke:#D8D8D8;stroke-width:0.125;stroke-miterlimit:10;}
	.st27{fill:#8E6A51;}
	.st28{fill:#AADAF1;}
	.st29{fill:#EDB48E;}
	.st30{fill:#47A4CE;}
	.st31{fill:#7C5F4A;}
	.st32{fill:#070808;}
	.st33{fill:#F3AE91;}
	.st34{fill:#60A36A;}
	.st35{fill:#9DBEA4;}
	.st36{fill:#9DBEA4;stroke:#5EA36A;stroke-width:0.25;stroke-miterlimit:10;}
	.st37{fill:#F2BE87;}
	.st38{fill:#A3A3A3;}
	.st39{fill:#B0B0B4;}
	.st40{fill:#D49A29;}
	.st41{fill:#FFFFFF;}
	.st42{fill:#F4CCB1;}
	.st43{fill:#D6C2B6;}
	.st44{fill:#EC8923;}
	.st45{fill:#CA7340;}
	.st46{fill:#333A44;}
	.st47{fill:#CE6D2B;}
	.st48{fill:#5C616B;}
	.st49{fill:#FFFFFF;stroke:#D3D3D3;stroke-width:0.25;stroke-miterlimit:10;}
	.st50{fill:#131212;}
	.st51{fill:#A65F37;}
	.st52{fill:#D6EAF8;}
	.st53{fill:#F6DA8C;}
	.st54{fill:#FDF4D7;}
	.st55{fill:#AA843D;}
	.st56{fill:#C4CED7;}
	.st57{fill:#A689B9;}
	.st58{opacity:0.25;fill:none;stroke:#FFFFFF;stroke-miterlimit:10;enable-background:new    ;}
	.st59{fill:#EE9F7E;}
	.st60{fill:#EFAB80;}
	.st61{fill:#885953;}
	.st62{fill:#3790CE;}
	.st63{fill:#FFFFFF;stroke:#A5A4A4;stroke-width:0.125;stroke-miterlimit:10;}
	.st64{fill:#981C20;}
	.st65{fill:#FFFFFF;stroke:#BFBFBF;stroke-width:0.25;stroke-miterlimit:10;}
	.st66{fill:#EDEFEF;}
	.st67{fill:#E85626;}
	.st68{fill:none;stroke:#706F6F;stroke-width:3;stroke-miterlimit:10;}
	.st69{fill:#F6D996;}
	.st70{fill:#304153;}
	.st71{fill:#304153;stroke:#FFFFFF;stroke-width:0.5;stroke-miterlimit:10;}
	.st72{fill:#FFFFFF;stroke:#B5B5B5;stroke-width:0.25;stroke-miterlimit:10;}
	.st73{opacity:0.25;fill:none;stroke:#FAFDFD;stroke-miterlimit:10;enable-background:new    ;}
	.st74{opacity:0.5;fill:none;stroke:#FAFDFD;stroke-miterlimit:10;enable-background:new    ;}
	.st75{opacity:0.85;fill:none;stroke:#FAFDFD;stroke-miterlimit:10;enable-background:new    ;}
	.st76{opacity:0.3;fill:none;stroke:#FAFDFD;stroke-miterlimit:10;enable-background:new    ;}
	.st77{opacity:0.9;fill:none;stroke:#FAFDFD;stroke-miterlimit:10;enable-background:new    ;}
	.st78{opacity:0.45;fill:none;stroke:#FAFDFD;stroke-miterlimit:10;enable-background:new    ;}
	.st79{opacity:0.5;}
	.st80{opacity:0.2;fill:none;stroke:#FFFFFF;stroke-width:0.25;stroke-miterlimit:10;enable-background:new    ;}
	.st81{fill:#FFFFFF;stroke:#BFBFBF;stroke-miterlimit:10;}
	.st82{fill:none;}
	.st83{enable-background:new    ;}
	.st84{fill:#CD2128;}
	.st85{fill:none;stroke:#050606;stroke-width:0.75;stroke-miterlimit:10;}
</style>
<g>
	<g class="st0">
		<polygon class="st1" points="215.3,73.2 206,69.2 204.8,59.2 212.9,53.2 222.2,57.2 223.4,67.2 		"/>
		<polygon class="st2" points="208.2,89.5 199,85.5 197.8,75.5 205.9,69.4 215.2,73.4 216.4,83.5 		"/>
		<polygon class="st2" points="239.2,55 229.9,51 228.7,40.9 236.8,34.9 246.1,38.9 247.3,48.9 		"/>
		<polygon class="st2" points="232.7,71.2 223.4,67.2 222.2,57.2 230.3,51.1 239.6,55.1 240.8,65.2 		"/>
	</g>
	<path class="st3" d="M260.5,95.6H80.4c-7.7,0-14-6.2-14-14V32.1c0-7.7,6.2-14,14-14h180.1c7.7,0,14,6.2,14,14v49.5
		C274.4,89.3,268.2,95.6,260.5,95.6z"/>
	<g>
		<path class="st4" d="M184.3,56.1c0,0.6-0.3,1.2-0.8,1.6c-0.9,0.5-2,0.3-2.6-0.5l-4.4-6.9v10.5l0.1,14c0,0-0.9,0.8-1.8,0.8
			c-1.1,0-2-0.8-2-0.8s-0.4-11.1-2.3-10.9c-2,0.2-2.2,10.9-2.2,10.9s-0.8,0.8-2.1,0.8c-0.9,0-1.7-0.8-1.7-0.8V50l-4.6,7.1
			c-0.6,0.8-1.7,1.1-2.6,0.5c-0.6-0.3-0.8-1-0.8-1.5c0-0.3,0.1-0.7,0.3-1l6.4-9.9c0.3-0.5,0.8-0.8,1.3-0.8c0.1,0,0.2,0,0.3,0H176
			c0.1,0,0.3,0,0.4,0c0.5,0.1,0.9,0.4,1.1,0.8l6.4,9.9C184.2,55.5,184.3,55.8,184.3,56.1z"/>
		<circle class="st4" cx="170.3" cy="38.2" r="5.1"/>
	</g>
	<g>
		<g>
			<path class="st5" d="M215,35.1h-13.6c-0.5,0-0.9-0.4-0.9-0.9l0,0c0-0.5,0.4-0.9,0.9-0.9H215c0.5,0,0.9,0.4,0.9,0.9l0,0
				C215.9,34.7,215.5,35.1,215,35.1z"/>
			<path class="st5" d="M214.9,38.1h-13.6c-0.5,0-0.9-0.4-0.9-0.9l0,0c0-0.5,0.4-0.9,0.9-0.9h13.6c0.5,0,0.9,0.4,0.9,0.9l0,0
				C215.8,37.7,215.4,38.1,214.9,38.1z"/>
			<path class="st5" d="M214.9,41.1h-13.6c-0.5,0-0.9-0.4-0.9-0.9l0,0c0-0.5,0.4-0.9,0.9-0.9h13.6c0.5,0,0.9,0.4,0.9,0.9l0,0
				C215.8,40.7,215.4,41.1,214.9,41.1z"/>
			<path class="st5" d="M215,44.2h-13.6c-0.5,0-0.9-0.4-0.9-0.9l0,0c0-0.5,0.4-0.9,0.9-0.9H215c0.5,0,0.9,0.4,0.9,0.9l0,0
				C215.9,43.8,215.5,44.2,215,44.2z"/>
			<path class="st5" d="M215,47.2h-13.6c-0.5,0-0.9-0.4-0.9-0.9l0,0c0-0.5,0.4-0.9,0.9-0.9H215c0.5,0,0.9,0.4,0.9,0.9l0,0
				C215.9,46.8,215.5,47.2,215,47.2z"/>
			<path class="st5" d="M215,50.3h-13.6c-0.5,0-0.9-0.4-0.9-0.9l0,0c0-0.5,0.4-0.9,0.9-0.9H215c0.5,0,0.9,0.4,0.9,0.9l0,0
				C215.9,49.9,215.5,50.3,215,50.3z"/>
			<path class="st5" d="M215,53.5h-13.6c-0.5,0-0.9-0.4-0.9-0.9l0,0c0-0.5,0.4-0.9,0.9-0.9H215c0.5,0,0.9,0.4,0.9,0.9l0,0
				C215.9,53.2,215.5,53.5,215,53.5z"/>
			<path class="st5" d="M213.6,30.3h-11c-1.2,0-2.2-1-2.2-2.2l0,0c0-1.2,1-2.2,2.2-2.2h11c1.2,0,2.2,1,2.2,2.2l0,0
				C215.8,29.3,214.8,30.3,213.6,30.3z"/>
		</g>
		<g>
			<path class="st5" d="M256.8,35.1h-13.6c-0.5,0-0.9-0.4-0.9-0.9l0,0c0-0.5,0.4-0.9,0.9-0.9h13.6c0.5,0,0.9,0.4,0.9,0.9l0,0
				C257.7,34.7,257.3,35.1,256.8,35.1z"/>
			<path class="st5" d="M256.7,38.1H243c-0.5,0-0.9-0.4-0.9-0.9l0,0c0-0.5,0.4-0.9,0.9-0.9h13.6c0.5,0,0.9,0.4,0.9,0.9l0,0
				C257.5,37.7,257.2,38.1,256.7,38.1z"/>
			<path class="st5" d="M256.7,41.1H243c-0.5,0-0.9-0.4-0.9-0.9l0,0c0-0.5,0.4-0.9,0.9-0.9h13.6c0.5,0,0.9,0.4,0.9,0.9l0,0
				C257.5,40.7,257.2,41.1,256.7,41.1z"/>
			<path class="st5" d="M256.8,44.2h-13.6c-0.5,0-0.9-0.4-0.9-0.9l0,0c0-0.5,0.4-0.9,0.9-0.9h13.6c0.5,0,0.9,0.4,0.9,0.9l0,0
				C257.7,43.8,257.3,44.2,256.8,44.2z"/>
			<path class="st5" d="M256.8,47.2h-13.6c-0.5,0-0.9-0.4-0.9-0.9l0,0c0-0.5,0.4-0.9,0.9-0.9h13.6c0.5,0,0.9,0.4,0.9,0.9l0,0
				C257.7,46.8,257.3,47.2,256.8,47.2z"/>
			<path class="st5" d="M256.8,50.3h-13.6c-0.5,0-0.9-0.4-0.9-0.9l0,0c0-0.5,0.4-0.9,0.9-0.9h13.6c0.5,0,0.9,0.4,0.9,0.9l0,0
				C257.7,49.9,257.3,50.3,256.8,50.3z"/>
			<path class="st5" d="M256.8,53.5h-13.6c-0.5,0-0.9-0.4-0.9-0.9l0,0c0-0.5,0.4-0.9,0.9-0.9h13.6c0.5,0,0.9,0.4,0.9,0.9l0,0
				C257.7,53.2,257.3,53.5,256.8,53.5z"/>
			<path class="st5" d="M255.4,30.3h-11c-1.2,0-2.2-1-2.2-2.2l0,0c0-1.2,1-2.2,2.2-2.2h11c1.2,0,2.2,1,2.2,2.2l0,0
				C257.6,29.3,256.6,30.3,255.4,30.3z"/>
		</g>
		<g>
			<path class="st5" d="M235.9,35.1h-13.6c-0.5,0-0.9-0.4-0.9-0.9l0,0c0-0.5,0.4-0.9,0.9-0.9h13.6c0.5,0,0.9,0.4,0.9,0.9l0,0
				C236.8,34.7,236.4,35.1,235.9,35.1z"/>
			<path class="st5" d="M235.8,38.1h-13.6c-0.5,0-0.9-0.4-0.9-0.9l0,0c0-0.5,0.4-0.9,0.9-0.9h13.6c0.5,0,0.9,0.4,0.9,0.9l0,0
				C236.7,37.7,236.3,38.1,235.8,38.1z"/>
			<path class="st5" d="M235.8,41.1h-13.6c-0.5,0-0.9-0.4-0.9-0.9l0,0c0-0.5,0.4-0.9,0.9-0.9h13.6c0.5,0,0.9,0.4,0.9,0.9l0,0
				C236.7,40.7,236.3,41.1,235.8,41.1z"/>
			<path class="st5" d="M235.9,44.2h-13.6c-0.5,0-0.9-0.4-0.9-0.9l0,0c0-0.5,0.4-0.9,0.9-0.9h13.6c0.5,0,0.9,0.4,0.9,0.9l0,0
				C236.8,43.8,236.4,44.2,235.9,44.2z"/>
			<path class="st5" d="M235.9,47.2h-13.6c-0.5,0-0.9-0.4-0.9-0.9l0,0c0-0.5,0.4-0.9,0.9-0.9h13.6c0.5,0,0.9,0.4,0.9,0.9l0,0
				C236.8,46.8,236.4,47.2,235.9,47.2z"/>
			<path class="st5" d="M235.9,50.3h-13.6c-0.5,0-0.9-0.4-0.9-0.9l0,0c0-0.5,0.4-0.9,0.9-0.9h13.6c0.5,0,0.9,0.4,0.9,0.9l0,0
				C236.8,49.9,236.4,50.3,235.9,50.3z"/>
			<path class="st5" d="M235.9,53.5h-13.6c-0.5,0-0.9-0.4-0.9-0.9l0,0c0-0.5,0.4-0.9,0.9-0.9h13.6c0.5,0,0.9,0.4,0.9,0.9l0,0
				C236.8,53.2,236.4,53.5,235.9,53.5z"/>
			<path class="st5" d="M234.5,30.3h-11c-1.2,0-2.2-1-2.2-2.2l0,0c0-1.2,1-2.2,2.2-2.2h11c1.2,0,2.2,1,2.2,2.2l0,0
				C236.7,29.3,235.7,30.3,234.5,30.3z"/>
		</g>
	</g>
	<g>
		<g>
			<path class="st5" d="M95.4,35.1H81.7c-0.5,0-0.9-0.4-0.9-0.9l0,0c0-0.5,0.4-0.9,0.9-0.9h13.7c0.5,0,0.9,0.4,0.9,0.9l0,0
				C96.2,34.7,95.8,35.1,95.4,35.1z"/>
			<path class="st5" d="M95.3,38.1H81.6c-0.5,0-0.9-0.4-0.9-0.9l0,0c0-0.5,0.4-0.9,0.9-0.9h13.7c0.5,0,0.9,0.4,0.9,0.9l0,0
				C96.1,37.7,95.7,38.1,95.3,38.1z"/>
			<path class="st5" d="M95.3,41.1H81.6c-0.5,0-0.9-0.4-0.9-0.9l0,0c0-0.5,0.4-0.9,0.9-0.9h13.7c0.5,0,0.9,0.4,0.9,0.9l0,0
				C96.1,40.7,95.7,41.1,95.3,41.1z"/>
			<path class="st5" d="M95.4,44.2H81.7c-0.5,0-0.9-0.4-0.9-0.9l0,0c0-0.5,0.4-0.9,0.9-0.9h13.7c0.5,0,0.9,0.4,0.9,0.9l0,0
				C96.2,43.8,95.8,44.2,95.4,44.2z"/>
			<path class="st5" d="M95.4,47.2H81.7c-0.5,0-0.9-0.4-0.9-0.9l0,0c0-0.5,0.4-0.9,0.9-0.9h13.7c0.5,0,0.9,0.4,0.9,0.9l0,0
				C96.2,46.8,95.8,47.2,95.4,47.2z"/>
			<path class="st5" d="M95.4,50.3H81.7c-0.5,0-0.9-0.4-0.9-0.9l0,0c0-0.5,0.4-0.9,0.9-0.9h13.7c0.5,0,0.9,0.4,0.9,0.9l0,0
				C96.2,49.9,95.8,50.3,95.4,50.3z"/>
			<path class="st5" d="M95.4,53.5H81.7c-0.5,0-0.9-0.4-0.9-0.9l0,0c0-0.5,0.4-0.9,0.9-0.9h13.7c0.5,0,0.9,0.4,0.9,0.9l0,0
				C96.2,53.2,95.8,53.5,95.4,53.5z"/>
			<path class="st5" d="M94,30.3H83c-1.2,0-2.2-1-2.2-2.2l0,0c0-1.2,1-2.2,2.2-2.2h11c1.2,0,2.2,1,2.2,2.2l0,0
				C96.2,29.3,95.2,30.3,94,30.3z"/>
		</g>
		<g>
			<path class="st5" d="M137.2,35.1h-13.7c-0.5,0-0.9-0.4-0.9-0.9l0,0c0-0.5,0.4-0.9,0.9-0.9h13.6c0.5,0,0.9,0.4,0.9,0.9l0,0
				C138,34.7,137.6,35.1,137.2,35.1z"/>
			<path class="st5" d="M137,38.1h-13.7c-0.5,0-0.9-0.4-0.9-0.9l0,0c0-0.5,0.4-0.9,0.9-0.9H137c0.5,0,0.9,0.4,0.9,0.9l0,0
				C137.9,37.7,137.5,38.1,137,38.1z"/>
			<path class="st5" d="M137,41.1h-13.7c-0.5,0-0.9-0.4-0.9-0.9l0,0c0-0.5,0.4-0.9,0.9-0.9H137c0.5,0,0.9,0.4,0.9,0.9l0,0
				C137.9,40.7,137.5,41.1,137,41.1z"/>
			<path class="st5" d="M137.2,44.2h-13.7c-0.5,0-0.9-0.4-0.9-0.9l0,0c0-0.5,0.4-0.9,0.9-0.9h13.6c0.5,0,0.9,0.4,0.9,0.9l0,0
				C138,43.8,137.6,44.2,137.2,44.2z"/>
			<path class="st5" d="M137.2,47.2h-13.7c-0.5,0-0.9-0.4-0.9-0.9l0,0c0-0.5,0.4-0.9,0.9-0.9h13.6c0.5,0,0.9,0.4,0.9,0.9l0,0
				C138,46.8,137.6,47.2,137.2,47.2z"/>
			<path class="st5" d="M137.2,50.3h-13.7c-0.5,0-0.9-0.4-0.9-0.9l0,0c0-0.5,0.4-0.9,0.9-0.9h13.6c0.5,0,0.9,0.4,0.9,0.9l0,0
				C138,49.9,137.6,50.3,137.2,50.3z"/>
			<path class="st5" d="M137.2,53.5h-13.7c-0.5,0-0.9-0.4-0.9-0.9l0,0c0-0.5,0.4-0.9,0.9-0.9h13.6c0.5,0,0.9,0.4,0.9,0.9l0,0
				C138,53.2,137.6,53.5,137.2,53.5z"/>
			<path class="st5" d="M135.8,30.3h-11c-1.2,0-2.2-1-2.2-2.2l0,0c0-1.2,1-2.2,2.2-2.2h11c1.2,0,2.2,1,2.2,2.2l0,0
				C138,29.3,137,30.3,135.8,30.3z"/>
		</g>
		<g>
			<path class="st5" d="M116.3,35.1h-13.7c-0.5,0-0.9-0.4-0.9-0.9l0,0c0-0.5,0.4-0.9,0.9-0.9h13.7c0.5,0,0.9,0.4,0.9,0.9l0,0
				C117.1,34.7,116.7,35.1,116.3,35.1z"/>
			<path class="st5" d="M116.2,38.1h-13.7c-0.5,0-0.9-0.4-0.9-0.9l0,0c0-0.5,0.4-0.9,0.9-0.9h13.7c0.5,0,0.9,0.4,0.9,0.9l0,0
				C117,37.7,116.6,38.1,116.2,38.1z"/>
			<path class="st5" d="M116.2,41.1h-13.7c-0.5,0-0.9-0.4-0.9-0.9l0,0c0-0.5,0.4-0.9,0.9-0.9h13.7c0.5,0,0.9,0.4,0.9,0.9l0,0
				C117,40.7,116.6,41.1,116.2,41.1z"/>
			<path class="st5" d="M116.3,44.2h-13.7c-0.5,0-0.9-0.4-0.9-0.9l0,0c0-0.5,0.4-0.9,0.9-0.9h13.7c0.5,0,0.9,0.4,0.9,0.9l0,0
				C117.1,43.8,116.7,44.2,116.3,44.2z"/>
			<path class="st5" d="M116.3,47.2h-13.7c-0.5,0-0.9-0.4-0.9-0.9l0,0c0-0.5,0.4-0.9,0.9-0.9h13.7c0.5,0,0.9,0.4,0.9,0.9l0,0
				C117.1,46.8,116.7,47.2,116.3,47.2z"/>
			<path class="st5" d="M116.3,50.3h-13.7c-0.5,0-0.9-0.4-0.9-0.9l0,0c0-0.5,0.4-0.9,0.9-0.9h13.7c0.5,0,0.9,0.4,0.9,0.9l0,0
				C117.1,49.9,116.7,50.3,116.3,50.3z"/>
			<path class="st5" d="M116.3,53.5h-13.7c-0.5,0-0.9-0.4-0.9-0.9l0,0c0-0.5,0.4-0.9,0.9-0.9h13.7c0.5,0,0.9,0.4,0.9,0.9l0,0
				C117.1,53.2,116.7,53.5,116.3,53.5z"/>
			<path class="st5" d="M114.9,30.3h-11c-1.2,0-2.2-1-2.2-2.2l0,0c0-1.2,1-2.2,2.2-2.2h11c1.2,0,2.2,1,2.2,2.2l0,0
				C117.1,29.3,116.1,30.3,114.9,30.3z"/>
		</g>
	</g>
	<g>
		<line class="st6" x1="80.7" y1="76.3" x2="96.3" y2="60.7"/>
		<line class="st6" x1="106" y1="70.4" x2="96.3" y2="60.7"/>
		<line class="st6" x1="116.2" y1="60.1" x2="105.9" y2="70.4"/>
		<line class="st6" x1="122" y1="66" x2="116.1" y2="60.1"/>
		<line class="st6" x1="122" y1="66" x2="143.3" y2="33.4"/>
	</g>
	<g>
		<line class="st6" x1="217.7" y1="87.9" x2="190" y2="60.2"/>
		<line class="st6" x1="180.3" y1="69.8" x2="190" y2="60.2"/>
		<line class="st6" x1="170.1" y1="59.5" x2="180.4" y2="69.8"/>
		<line class="st6" x1="164.3" y1="65.4" x2="170.2" y2="59.5"/>
		<line class="st6" x1="164.5" y1="66.1" x2="143.2" y2="33.5"/>
	</g>
	<g>
		<circle class="st7" cx="245.8" cy="72.8" r="10.4"/>
		<circle class="st7" cx="245.8" cy="72.8" r="8.1"/>
		<circle class="st7" cx="245.8" cy="72.8" r="6.3"/>
		<circle class="st7" cx="245.8" cy="72.8" r="3.6"/>
		<path class="st8" d="M220.9,72.5c0,7.1-5.8,12.9-12.9,12.9s-12.9-5.8-12.9-12.9c0-0.4,12.9,0,12.9,0s-0.4-12.9,0-12.9
			C215.2,59.7,220.9,65.4,220.9,72.5z"/>
	</g>
	<path class="st9" d="M142.6,54.3l-6.7,12.3c4.6,0,9.2,0,13.8,0C146,60.2,142.6,54.3,142.6,54.3z"/>
	<path class="st10" d="M153.7,73.6c-1.3-2.2-2.7-4.7-4-7c-4.6,0-9.2,0-13.8,0l-3.8,7C139.3,73.6,146.5,73.6,153.7,73.6z"/>
	<path class="st9" d="M158.9,82.8c0,0-2.9-5.1-5.2-9.1c-7.2,0-14.4,0-21.6,0l-5,9.1H158.9z"/>
	<g>
		<g class="st0">
			<text transform="matrix(0.5563 0 0 1 75.3652 52.5273)" class="st11 st12 st13">In the production environment, the API provides data parallel to Claim and Claim Line Feed (CCLF) files*, currently provided monthly to </text>
			<text transform="matrix(0.5563 0 0 1 75.3652 57.0781)" class="st11 st12 st13">Shared Savings Program ACOs by CMS. This includes Medicare claims data for instances in which beneficiaries receive care outside of the </text>
			<text transform="matrix(0.5563 0 0 1 75.3652 61.6289)" class="st11 st12 st13">ACO, allowing a full picture of patient care. In the production environment, the API provides data parallel to Claim and Claim Line Feed </text>
			<text transform="matrix(0.5563 0 0 1 75.3652 66.1797)" class="st11 st12 st13">(CCLF) files*, currently provided monthly to Shared Savings Program ACOs by CMS. This includes Medicare claims data for instances in </text>
			<text transform="matrix(0.5563 0 0 1 75.3652 70.7295)" class="st11 st12 st13">which beneficiaries receive care outside of the ACO, allowing a full picture of patient care. P</text>
			<text transform="matrix(0.5563 0 0 1 155.2344 70.7295)" class="st11 st12 st13">rovides data parallel to Claim and Claim Line </text>
			<text transform="matrix(0.5563 0 0 1 75.3652 75.2793)" class="st11 st12 st13">Feed (CCLF) files*, currently provided monthly to Shared Savings Program ACOs by CMS. This includes Medicare claims data for instances </text>
			<text transform="matrix(0.5563 0 0 1 75.3652 79.8311)" class="st11 st12 st13">in which beneficiaries receive care outside of the ACO, allowing a full picture of patient care. In the production environment, the API </text>
			<text transform="matrix(0.5563 0 0 1 75.3652 84.3818)" class="st11 st12 st13">provides data parallel to Claim and Claim Line Feed (CCLF) files*, currently provided monthly to Shared Savings Program ACOs by CMS. </text>
			<text transform="matrix(0.5563 0 0 1 75.3652 88.9316)" class="st11 st12 st13">This includes Medicare claims data for instances in which beneficiaries receive care outside of the ACO, allowing a full picture of patient </text>
		</g>
	</g>
</g>
<rect x="350.7" y="24.8" class="st14" width="244.8" height="232.2"/>
<path class="st15" d="M593.5,18.7H352.3c-2.4,0-4.3,4.3-4.3,4.3l0,0c0,2.4,249.8,2.4,249.8,0l0,0C597.8,23,595.8,18.7,593.5,18.7z"
	/>
<g>
	<path class="st16" d="M184.1,141.7c0.7-1,2-3.5,2-3.5l-4-4.4c0,0-6.5,3.2-8.4,4.7c-1.1,0.9-2.8,3.2-3.3,4.5c-0.4,1-3.3,6-2,6.2
		c1.1,0.2,4.6-3.9,5.6-4.5c1.5-0.8,5.4-2.6,5.4-2.6s0.4-0.6,0.4-0.5C181.1,141.3,182.7,141.5,184.1,141.7z"/>
	<path class="st17" d="M242.8,96.1l-11.8,2l-34.1,33.6l-10.9,7.1l-4.5-5.6c0,0,25.7-32,35.6-38.6C221.8,91.6,242.8,96.1,242.8,96.1z
		"/>
	<polygon class="st4" points="241.1,170.2 238.4,198.8 249.5,198.7 242,169.4 	"/>
	<path class="st18" d="M223.6,162.6h36l2.2,91.5H253c0,0-6.7-46.4-9-62.1c-0.7-4.8-1.8-19.9-1.8-19.9s-0.7,8.2-1,10.9
		c-1,8.8-2.8,34.9-2.8,34.9l-1.2,36.3H228c0,0-3.8-45.2-4.4-60.4C223.3,185.9,223.6,162.6,223.6,162.6z"/>
	<path class="st19" d="M214.9,263h23.3c0,0,0.2-4.2,0-5.5c-0.2-0.9-1-3.4-1-3.4h-8.8c0,0-5,2.2-6.7,2.7c-1.1,0.4-3.4,0.7-4.4,1.2
		c-0.7,0.4-1.8,1.7-2.1,2.4C214.9,261,214.9,263,214.9,263z"/>
	<polygon class="st16" points="247.4,81.9 247.2,86.9 244.9,102.5 239.6,102.7 236.1,87.4 	"/>
	<polygon class="st11" points="238.6,92.3 240.6,100.5 235.9,97.5 236.1,95.7 	"/>
	<polygon class="st11" points="245.1,91.4 242.2,100.8 248.2,96.9 247.6,94.8 	"/>
	<path class="st20" d="M229.5,66c0,0,0.5,14.6,1.5,18.1c0.5,1.8,2.9,3.1,4.9,3.5c5.1,0.8,9.5-3.4,9.5-3.4s1-1.7,1.1-2.3
		c0.3-1.3-0.2-5.2-0.2-5.2s1.6,0,2.1-0.6c0.6-0.7,1.4-3.7,1.2-4.7c-0.1-0.6-1.1-1.9-1.1-1.9l-2.2,1.9l-0.9-6.3c0,0-3-0.6-4.2-0.8
		C238.4,63.9,229.5,66,229.5,66z"/>
	<path class="st21" d="M249.5,64c0,0,0.4,2,0.5,2.6c0.2,1.4,0.3,5.4,0.3,5.4s-0.1,3.1-0.2,4.1c-0.1,1.1-1.5,3.9-1.7,4.3
		c-0.5,1.2-2.4,2.5-2.4,2.5l0.3-11.5l-0.8-6.3c0,0-1.7,0.1-2.4,0c-1.7-0.3-8.1,0.2-8.1,0.2s-4.2,0.7-5.6,0.6c-0.4,0-1.5-0.5-1.5-0.5
		l-1-7.2c0,0,3.8,0.3,8,0.2c4.6-0.1,8.7-2,11.4-0.2c0.5,0.4,1.5,1,1.9,1.7C249.4,61.6,249.5,64,249.5,64z"/>
	<path class="st22" d="M232,79.6c0,0,1.9-1.9,3.9-1.8c2.9,0.1,4.7,2.3,4.7,2.3s2.6-1.5,3.1-2.3c1-1.5,1.3-5.3,1.2-7.1
		c-0.1-1.4-1.8-5.5-1.8-5.5s-4.4-0.3-5.9-0.2c-1.8,0.1-7.7,1.5-7.7,1.5s-2.9-1.4-3.4-2.2c-0.7-1.2-0.1-4,0.8-5
		c1.4-1.5,5.2-1.7,7.2-2c2-0.4,6-0.5,8-0.3c1.7,0.2,5,1.6,6.1,3c1.1,1.3,1.5,5,1.7,6.7c0.3,2.3,0.5,7.8,0,10.1
		c-0.4,1.9-1.5,3.6-2.6,5.2c-1,1.4-4.4,4.9-6.3,5.6c-1.7,0.6-6.2,0.4-7.6-0.3c-1.4-0.7-2.5-3-2.8-4.2s-0.6-5-0.6-5L232,79.6z"/>
	<rect x="233.4" y="81.2" class="st23" width="4.8" height="1.5"/>
	<path class="st19" d="M241.6,265l22.9-4.5c0,0-0.6-4.1-1.1-5.4c-0.3-0.8-1.6-3.1-1.6-3.1l-8.6,1.7c0,0-4.5,3.1-6,4
		c-1,0.6-3.2,1.3-4.1,2.1c-0.6,0.5-1.5,2-1.6,2.8C241.3,263.1,241.6,265,241.6,265z"/>
	<path class="st24" d="M232.8,94.5c0,0,4.5,5.1,8.3,5c4.4-0.2,7.7-5,7.7-5l0.6,68.1h-13.2L232.8,94.5z"/>
	<path class="st17" d="M234.3,88.7c0,0-8.9-0.2-13.8,2.7c-1.9,1.1-2.6,6.1-3.3,7.2c-1.8,2.8-0.5,12.5-0.5,12.5l4.3,41l1.2,19.6
		l-0.4,27h16.6v-58.1c0,0-1.1-20.4-1.6-27.3C236.4,107.2,234.3,88.7,234.3,88.7z"/>
	<polygon class="st4" points="238.9,91.9 234.9,97.5 234.3,88.6 236.2,88 236.6,89.5 	"/>
	<path class="st25" d="M248.1,87.2c0,0,16.1,6.3,18.7,10.3c1.8,2.8,2.8,10.2,3.4,13.6c1.2,6.2,4.7,20.9,3.9,24.8
		c-0.5,2.6-1.6,7.7-3.1,9.8c-1.5,2.1-8.1,6.5-8.1,6.5l-0.1,19.5l0.4,26.3l-25.8,1.1l6.8-64.6c0,0,0.9-13.9,1.4-20.7
		C246,107.6,248.1,87.2,248.1,87.2z"/>
	<path class="st4" d="M244.9,91.7l4,5.5l0.6-9.4l-2.3-0.9c0,0-0.1,1.6-0.3,2.1C246.6,89.7,244.9,91.7,244.9,91.7z"/>
	
		<rect x="259.7" y="141.2" transform="matrix(0.9268 -0.3755 0.3755 0.9268 -36.3417 108.6538)" class="st4" width="1.8" height="12.8"/>
	<path class="st26" d="M235.6,73.8c3.5,1.1,6,3.1,9.7,2.1c1.9,0,1.6,2.4,1.6,2.9c-0.7,1.4-0.4,0.7-0.4,0.7c-0.8,2-4.3,4.7-4.3,4.7
		s-3.2,3.3-4.1,3.9c-2.4,1.6-4,0.5-5.1,0.1c-1.4-0.6-2-4-3-5.2c-1.4-1.6-0.1-4.7-0.1-4.7l-0.4-2.1C231.6,73.6,232.7,72.6,235.6,73.8
		z"/>
</g>
<g>
	<g>
		<path class="st27" d="M139.1,64.7c-1.2,0.3-3.3,0.4-3.3,0.4l-3.4-6.7c0,0,1.8-2,3.8-3.3c1.2-0.8,3.9-2.4,5.9-3.5
			c1-0.5,7.9-5.7,8.7-4.7c1,1.3-2.5,2.6-3.9,4.6c-0.4,0.6-1,1.4-1,1.4s0.8,0.3,0.8,1.2c-0.1,1.7-5.3,5-5.3,5s-0.8,0.2-0.6,0.2
			C139.9,60.5,139.4,63.3,139.1,64.7z"/>
		<path class="st27" d="M136.9,64.1l-4.5-5.6L105.9,78c0,0,0,0-0.1,0c1,4.4,2.9,8.7,6,12l15.7-17L136.9,64.1z"/>
		<path class="st28" d="M82.5,82.9c-3.9,3.7,0,26.7,0,26.7l4.6-11l23.5-5.6l2-2.2c-3.1-3.3-5.7-8.4-6.8-12.8
			C104.3,78.2,85.3,80.3,82.5,82.9z"/>
		<path class="st27" d="M138.9,60.4c0.7-0.5,2.8-2,3.8-2.2c0.2,0,1.7-1.9,2.6-2.5c0.9-0.6,0.9,1.8,0.8,2c0,0-0.2,0.5-0.1,1
			c0.2,1-0.3,1.3-0.4,1.4s-0.3,1.1-0.7,1.7c-0.6,1-1.3,2-5.5,2.8c-0.1,0-0.3,0.1-0.4,0.1C138.8,63.3,138.6,61.7,138.9,60.4z"/>
	</g>
	<g>
		<path class="st19" d="M84.4,260.4l-27.9-3.9c0,0,0.4-5,1-6.6c0.3-1,1.7-3.9,1.7-3.9l10.5,1.4c0,0,5.7,3.5,7.5,4.4
			c1.2,0.6,4,1.4,5.1,2.2c0.8,0.6,1.9,2.4,2.2,3.3C84.7,258,84.4,260.4,84.4,260.4z"/>
		<path class="st19" d="M100.8,256.5H77.5c0,0-0.2-4.2,0-5.6c0.2-0.9,1-3.4,1-3.4h8.8c0,0,5,2.2,6.7,2.7c1.1,0.4,3.4,0.7,4.4,1.2
			c0.7,0.4,1.8,1.7,2.1,2.4C100.8,254.5,100.8,256.5,100.8,256.5z"/>
		<g>
			<g>
				<path class="st29" d="M100,115.6c-0.5-2.7-3.2-8.8-3.2-8.8l-7.5,1.8l-0.3,1.6l-6,3.8l-10.7,1.1l-5.3,1.4l-6,3.6
					c0,0,3.4,2.2,4.7,2.4c3.7,0.6,9.9-0.5,15.3-1.8c2.9-0.7,5.4,0,7.4,0.2c1.7,0.2,6.8,1.2,9.1,0.5
					C100.4,120.7,100.3,117.2,100,115.6z"/>
				<path class="st28" d="M63.6,82.2c0,0-14.8,4.6-17,8.2c-3.4,5.7-4.7,33.8-4.7,33.8l8.4,0.2l4.7,37.9l19.4,9l16-11.8L89,121.9
					v-11.8l8.7-2.2c0,0-5.1-18.7-9.2-22.5c-2.7-2.6-14.9-4.2-14.9-4.2s-1.1,3.8-4.4,4C66.3,85.3,63.6,82.2,63.6,82.2z"/>
				<path class="st28" d="M89.2,146.8l-16.6,1c2,7.1-0.4,14.5-0.2,21.9l0.1-0.4l3.2,37l2.6,42.4h11.1l1.3-51.2l4.6-43.6L89.2,146.8z
					"/>
				<path class="st30" d="M90.6,161c0,0-11.4,6.5-15.7,6.6c-5.3,0.2-20.3-6.8-20.3-6.8l-0.4-4.2c0,0,4,30.8,4.2,41.2
					c0.3,12.8-1.2,50.9-1.2,50.9l15.2-0.7l8.1-65.8C80.2,174.7,92.6,168,90.6,161z"/>
				<polygon class="st31" points="64.6,77.2 63.6,83 70.7,94.4 74.3,84.8 72.9,77.6 				"/>
				<path class="st27" d="M77.6,58.9c0,0,1.3,10.5,0.8,13.9c-0.3,1.8-1.9,5.3-3.8,6.1C72.3,79.9,64,78,64,78s-1.2-1.4-1.5-2
					C62.1,74.8,62,71,62,71s-1.6,0.2-2.2-0.2c-0.7-0.6-1.9-3.3-1.9-4.2c0-0.5,0.8-1.9,0.8-1.9l2.5,1.4v-6c0,0,2.9-1,4.2-1.3
					C68.2,58.1,77.6,58.9,77.6,58.9z"/>
				<path class="st32" d="M56.9,59.7c0,0-0.1,1.9-0.1,2.5c0,1.3,0.5,5.1,0.5,5.1s0.5,2.9,0.8,3.8c0.3,1,2.1,3.4,2.3,3.8
					c0.7,1.1,2.8,2,2.8,2l-1.1-6.1c0,0-0.8,0.4-1.3,0.2c-0.5-0.2-1-0.6-1-0.6S58.1,68,58.1,67c0-0.6,0.1-1.6,0.7-1.8
					c0.7-0.2,2.5,1.1,2.5,1.1l-0.1-6c0,0,1.8-0.1,2.4-0.3c1.7-0.5,6.1,0,8.2,0c1.5-0.1,4.4-0.8,5.8-1c0.4-0.1,1.4-0.7,1.4-0.7v-6.9
					c0,0-3.8,0.8-8.1,1.2c-4.7,0.5-9.2-0.8-11.6,1.3c-0.5,0.4-1.3,1.1-1.7,1.9C56.7,57.4,56.9,59.7,56.9,59.7z"/>
				<path class="st26" d="M79.4,71.7l-0.1,0.2c0,0-0.6,2.6-2,4.1c-0.9,1-2.1,3.5-3.4,4c-1,0.4-2.7,1.4-4.9,0c-0.8-0.5-2-3.1-2-3.1
					s-4.4-2.8-5.2-4.6c0,0,0,0,0,0c0.1-0.4-0.3-2.6,1.5-2.6c3.4,0.9,5.7-0.9,9-1.8C75,66.7,77.6,69.4,79.4,71.7z"/>
			</g>
			<path class="st28" d="M85.4,86c1.5-1,2-0.5,3.6,0.3c3.2,1.6,7.3,9.7,8.7,12.8c1.5,3.4,1.3,45.3,1.3,45.3l-14.7,1.8
				c0,0,3.7-37.3,2.8-39.8C86.1,103.4,83.9,87,85.4,86z"/>
		</g>
	</g>
</g>
<g>
	<path class="st33" d="M170,160.6c0,0.6,1.6,1.9,1.6,1.9s4.2,0,6.3,0c2.2,0,6.7-0.2,6.7-0.2s1.1-1.2,1.1-1.7c0-1.1-3.5-1.9-7.9-1.9
		C173.5,158.7,170,159.5,170,160.6z"/>
	<path class="st33" d="M151.3,160c0,0.6,1.6,1.9,1.6,1.9s4.2,0,6.3,0c2.2,0,6.7-0.2,6.7-0.2s1.1-1.2,1.1-1.7c0-1.1-3.5-1.9-7.9-1.9
		S151.3,158.9,151.3,160z"/>
</g>
<g>
	<path class="st34" d="M58.4,172.6c0,0-2.2,15.6-3.2,20.7c-0.9,4.4-2.6,17.3-2.6,17.3l-0.2,41.9l-11.7,1.1c0,0-7.3-26.1-7-34.2
		c0.1-4,2.7-11.7,2.8-15.7c0-1.7-1.4-6.9-1.4-6.9L33.1,169L58.4,172.6z"/>
	<path class="st35" d="M47.9,175.8l-6.5,36.6l0.8,39.9l-13,0.1c0,0-5.2-23.1-5-31.2c0.1-4,2.7-11.7,2.8-15.7c0-1.7-1.1-5.1-1.4-6.9
		c-1.2-6.9-1.9-27.8-1.9-27.8L47.9,175.8z"/>
	<path class="st34" d="M45.8,116.3c-5.9,1.3-1,15.9-1,15.9l1.6,18c0,0,6.4-0.3,9.1-0.9c2.9-0.6,9.5-2.9,9.5-2.9s-2.7-13.9-4.3-17.1
		C58.2,124.3,49.7,115.4,45.8,116.3z"/>
	<path class="st36" d="M24.4,117.6c2.2-1,8.7-2.1,8.7-2.1l-4.2,3.4l15.9,8.8l2.2-9.4l-3.6-1.3l-1.3-2.3c0,0,4,1.9,5.3,2.7
		c3.7,2.2,7.1,8.4,8.9,11.8c2.2,4.1,2.5,8.4,2.5,8.4l-2.2,10l3.1,17.9l-0.1,7.2c0,0-10.7,2.9-14.3,2.9c-5.6-0.1-21.5-4.9-21.5-4.9
		l3.5-19c0,0-6.9,0-9.2-0.3c-1.6-0.2-4.9-1.3-4.9-1.3s2.2-18.5,4.8-24.6C19,123.2,21.7,118.8,24.4,117.6z"/>
	<path class="st37" d="M49.5,103.8c0.1-0.3,0.2,3-0.5,4.5c-1.4,2.8-1.5,5.3-5.3,5.3c-6.6,0.1-8.9-4.7-10.4-6.4
		c-0.5-0.6-1.7-3.6-1.7-3.6s-0.9-0.3-1.3-0.7c-1.1-1.2-1.1-3.5-1.1-4.6c0-0.8,0.5-1.9,0.5-1.9s0.1-8.3,11.8-8
		C53.4,88.7,49.5,103.8,49.5,103.8z"/>
	<path class="st37" d="M47,118.4c0,0-3.5-2.1-4.2-3.3c-0.8-1.4-1-5.4-1-5.4l-9-6.2l-1.1,12.3c0,0-4,2.4-2.5,3.6
		c2.4,1.9,15.3,8.9,15.3,8.9s1.5-3.1,1.8-4.2C46.7,122.6,47,118.4,47,118.4z"/>
	<g>
		<path class="st38" d="M39,252.2c0.3,0.2-0.4,4.9-0.4,4.9l6.4,0.7c0,0,5.2,1.9,5.6,2.2s8.8,0.8,8.8,0.8l2.6-1.4l-12.7-7.3L39,252.2
			z"/>
		<path class="st39" d="M31.9,252.3c0.3,0.3-0.4,7.1-0.4,7.1l6.4,1c0,0,5.3,2.7,5.6,3.1s8.8,1.2,8.8,1.2l2.6-2l-12.7-10.5
			L31.9,252.3z"/>
	</g>
	<path class="st34" d="M24.2,118c6.1-0.1,4,15.2,4,15.2l3.6,17.8c0,0-6.2,1.2-9,1.3c-2.9,0.1-10.7-1.5-10.7-1.5s0.5-9.6,1.1-13.1
		C14.2,132.2,20.1,118,24.2,118z"/>
	<path class="st26" d="M50.7,105.3l0,0.2c0,0-0.2,2.4-1.1,3.9c-0.7,1.1-1.3,3.4-2.4,4c-0.8,0.5-2.2,1.7-4.4,0.8
		c-0.8-0.3-4-1-5.1-1.8c-1.8-1.4-4.1-6.1-5-7.6c0,0-0.6-2.2,0.9-2.5c3.1,0.3,7.5,2,10.3,0.7C46.1,101.6,48.8,103.6,50.7,105.3z"/>
	<path class="st40" d="M44.1,90.1c0,0-1.6,1.8-3.7,3.7c-1.9,1.7-5.7,2.3-5.7,2.3s-2.6-0.7-2.8,0.2c-0.8,3.6,1.2,3.9,1.2,3.9l-0.2,5
		l-1.2,10.9l-3.5,0.8l-4.2,1c0,0,1.9-24.7,3.4-27.6c1.1-2.1,5.8-4.5,8-4.8c5.5-0.8,10.1,1.5,10.1,1.5s2.4,0.3,3.7,2.9
		c0.7,1.4,0.9,5.9,0.9,5.9L44.1,90.1z"/>
	<polygon class="st41" points="37.7,168.1 54,166.5 51,142.1 34.7,143.6 	"/>
	<g>
		<polygon class="st41" points="39.9,166.5 56.2,164.9 53.3,140.5 37,142.1 		"/>
		<g>
			<path class="st37" d="M48.5,151.9l-19.2,2.1l-1.1-2.9l-16.7-1.4c0,0,3.4,6.6,4.1,7.7s3.6,5,4.9,5.4c6.2,1.7,25.1-2.8,25.1-2.8
				l12.3-4l2.8-8.6c0,0-6.7-0.9-8.8,0.1C50.3,148.2,48.5,151.9,48.5,151.9z"/>
			<polygon class="st37" points="62.5,146.7 62.6,153.7 56,155.5 54.5,149.2 			"/>
		</g>
	</g>
</g>
<g>
	<path class="st35" d="M292.8,97.9c0,0,14.2,4.4,16.4,7.9c3.3,5.5-2.4,24.6-2.4,24.6H301l0.9,37.9h-18l-17.1-3.5l1.7-28.7v-11.4
		l-8.4-2.1c0,0,4.9-18,8.8-21.7c2.6-2.5,13.2-3.1,13.2-3.1s2.1,2.8,5.4,2.9C290.2,100.9,292.8,97.9,292.8,97.9z"/>
	<path class="st39" d="M257.8,265.2h21c0,0,0.2-3.8,0-5c-0.1-0.8-0.9-3-0.9-3H270c0,0-4.5,2-6,2.5c-1,0.3-3.1,0.6-4,1.1
		c-0.6,0.4-1.6,1.5-1.9,2.2C257.8,263.5,257.8,265.2,257.8,265.2z"/>
	<path class="st39" d="M286.6,267.1l20.6-4.1c0,0-0.5-3.7-1-4.9c-0.3-0.8-1.4-2.8-1.4-2.8l-7.7,1.5c0,0-4.1,2.8-5.4,3.6
		c-0.9,0.5-2.9,1.2-3.7,1.9c-0.5,0.5-1.3,1.8-1.5,2.5C286.4,265.3,286.6,267.1,286.6,267.1z"/>
	<path class="st35" d="M268.2,160.2l16,1c-1.9,6.8,0.4,13.9,0.2,21.1l-0.1-0.4l-4.5,35.2l-1.1,41.4H268l-1.3-49.3v-42.2L268.2,160.2
		z"/>
	<path class="st34" d="M267.2,163.6l21.7,1.4l11.3-2.8l1.7,7.5v39.4l4,48.3l-11.1,0.5l-10.4-75.6
		C284.6,175.1,265.3,170.4,267.2,163.6z"/>
	<path class="st42" d="M257.8,130.1c0.5-2.6,2.3-8.6,2.3-8.6l10.2,2l-0.6,2.3l0,2.9c0,0,15.4,1.5,19,1.5c2.7,0,9.6,0.1,9.6,0.1
		l1.7,4c0,0-8.8,1.9-10,1.9c-3.5,0.2-9.1,1.9-14.5,1.9c-2.4,0-4.1,0.2-6,0.4c-1.7,0.2-7,0-9.2-0.6
		C257.2,136.9,257.5,131.6,257.8,130.1z"/>
	<path class="st20" d="M306.6,129.5c0,0-2.8,8.3-5.4,9.2c-3.1,1.1-11.9-4.5-11.9-4.5l-13.9-5.3l-5.7-0.4l0-2.9c0,0,2-2.8,3.2-3
		c5.5-1,16.7,2.2,22.2,3.5C298,126.9,306.6,129.5,306.6,129.5z"/>
	<path class="st34" d="M304.5,102.8c1.5-0.1,3.9,1.8,4.8,3.1c1.6,2.5,0.8,9,0.5,12c-0.3,3.2-2.5,13.5-2.5,13.5l-12.7-5
		c0,0,2.3-5.7,2.8-7.9c0.5-2.7,1.2-8.9,2.7-11.2C300.8,106,303,102.9,304.5,102.8z"/>
	<path class="st34" d="M273.5,99.8c-1.3-0.9-1.7-0.4-3.1,0.2c-2.7,1.4-6.3,8.4-7.5,11.1c-1.3,2.9-3.8,13.2-3.8,13.2l11.1,1.4
		c0,0,1-6.1,1.8-8.3C272.9,114.9,274.8,100.7,273.5,99.8z"/>
	<polygon class="st43" points="291.9,93.1 293.3,101.2 281.2,100.4 283.9,93.5 	"/>
	<path class="st20" d="M279.4,75.4c0,0-1.3,10.1-0.8,13.4c0.2,1.7,1.8,5.1,3.6,5.8c2.2,0.9,10.2-0.9,10.2-0.9s1.2-1.4,1.4-1.9
		c0.4-1.1,0.5-4.7,0.5-4.7s1.6,0.2,2.1-0.2c0.6-0.6,1.9-3.2,1.9-4c0-0.5-0.8-1.9-0.8-1.9l-2.2,0.8l-0.2-5.2c0,0-2.8-0.9-4-1.2
		C288.4,74.7,279.4,75.4,279.4,75.4z"/>
	<path class="st44" d="M299.2,76.2c0,0,0.1,1.8,0.1,2.4c0,1.2-0.5,4.9-0.5,4.9s-0.5,2.8-0.8,3.7c-0.3,0.9-2,3.3-2.3,3.7
		c-0.6,1-2.7,1.9-2.7,1.9l1.3-7.2c0,0,2-0.3,2.4-0.8c0.5-0.6,1.2-2.6-0.1-3.3c-0.5-0.2-1.8,1-1.8,1l0.1-5.8c0,0-1.7-0.2-2.3-0.3
		c-1.9-0.1-5.4-1.3-7.3-1.4c-1.5-0.1-4.9,0.6-6.2,0.3c-0.4-0.1-0.3-2.6,0-3.3c0.6-1.6,2.2-3.2,6.5-2.8c4.5,0.5,8.8-0.7,11.1,1.3
		c0.5,0.4,1.3,1.1,1.7,1.8C299.5,74,299.2,76.2,299.2,76.2z"/>
	<path class="st26" d="M284.8,82.5c3.2,1,5.4,2.8,8.7,1.9c1.8,0,1.4,2.2,1.5,2.6v0c-0.9,1.4,0.1,4.9-1.7,6.4
		c-0.9,0.8-3.2,0.5-5.3,1.4c-2.2,1.4-5,0.3-6-0.1c-1.3-0.5-1.1-0.8-2.1-1.9c-1.3-1.5-2-6.2-2-6.2l0-0.2
		C279.7,84.1,282.2,81.4,284.8,82.5z"/>
</g>
<g>
	<path class="st45" d="M298.4,174.9c0,0,0.6,12,1.8,13.5c0,0,3.6-2.6,4.1-4.3c0.6-1.8-1.4-5.6-1.3-7.6c0.1-1.3,2.3-4.6,2.3-4.6
		l-0.6-1.9L298.4,174.9z"/>
	<g>
		<path class="st46" d="M307.7,200.5l2.7,29.6l-0.6,35.2l11.3-1.1c0,0,4.3-19.2,4.5-25.6c0.1-3.2,1.1-10.4,1.1-13.5
			c0-4.8-2-12.6-2-12.6l0.3-13.9L307.7,200.5z"/>
		<path class="st47" d="M309.5,192.6c0,0,5,1.8,7.4,1.7c3.3-0.1,7.4-1.6,7.4-1.6l-1.7-16.4h-12.1L309.5,192.6z"/>
		<path class="st48" d="M312.1,201.7l4.8,29.4l-0.6,35.2l11.3-1.1c0,0,4.3-19.2,4.5-25.6c0.1-3.2,1.1-10.4,1.1-13.5
			c0-4.8-2-12.6-2-12.6l0.3-13.9L312.1,201.7z"/>
		<path class="st46" d="M327.3,264.3c-0.3,0.3,0.4,7.7,0.4,7.7l-6.2,1.2c0,0-5,3-5.3,3.5c-0.3,0.4-8.5,1.4-8.5,1.4l-2.5-2.2
			l12.1-11.6L327.3,264.3L327.3,264.3z"/>
		<path class="st46" d="M320.4,264.3c-0.3,0.2,0.4,5.4,0.4,5.4l-6.2,0.8c0,0-5,2.1-5.3,2.4c-0.3,0.3-8.5,1-8.5,1l-2.5-1.5l12.1-8.1
			H320.4z"/>
		<path class="st49" d="M304.3,111.9c0,0-3.8,6.9-4.5,9.5c-0.6,2.3,1.2,10.3,1.2,10.3l0.9,28.4l-2.2,41.2c0,0,18.8,1.1,22.8,1.1
			c5.6,0,18.2-1.9,18.2-1.9s0-25.6-2.8-34.2c-0.9-2.7-6.1-11.5-6.1-11.5l0.4-23.7l9.9,7c0,0-0.2,2.5-1.1,4.4
			c-2.2,4.2-7.9,12.1-7.9,12.1l5.8,9.4c0,0,16.5-16,18-22c1.4-5.6-6-15.3-9-20.2c-3.1-5-14.7-18.8-14.7-18.8s-2.5-2.1-6.3-0.7
			c-1.3,0.5-8.2-3.7-12.5-1.6C309,103.2,304.3,111.9,304.3,111.9z"/>
		<path class="st50" d="M310.2,76.6c3-2.3,10.5-4.1,14-2.7c3.9,1.6,9.5,9.4,10.2,13.7c1.6,9.1,1.4,18.7,1.4,18.7L315,124.4l3.2-27.5
			l-4.7,5.3l1.5,6.9c0,0-5.9,3.3-6.9,4.3c-1.8,1.8-7,4.5-7,4.5s0.3-5-0.5-7.8c-1.5-5.6-1.2-17.3,0.8-23.1
			C302.5,83.8,306.7,79.3,310.2,76.6z"/>
		<path class="st51" d="M313.2,98.4c1,3.4,1,10.4,1,10.4l-8.4,11.8l10.6-7.9l6.7-18.8L313.2,98.4z"/>
		<path class="st45" d="M308.8,84.2c-1,4.1-0.8,8-0.9,11.6c0,4.8,0.7,8.1,3.9,9.3c3,1.2,7.3-1,10.8-3.7c0.7-0.5-0.4-0.8,0.2-1.3
			c2.5-2.2,1.1-5.8,1.1-7.8c0-2.2,1.2-5.2-5.5-7c-5-1.3-6.6-6.1-6.6-6.1S309.4,81.8,308.8,84.2z"/>
		<path class="st45" d="M334.9,156.3c0,0-11.6-0.6-13.2,0.6c0,0,2.1,4,3.8,4.7c1.7,0.8,5.6-0.9,7.4-0.6c1.2,0.2,4.1,2.9,4.1,2.9
			l1.8-0.4L334.9,156.3z"/>
		<path class="st49" d="M310,194.3c0,0,5,1.8,7.4,1.7c3.3-0.1,7.4-1.6,7.4-1.6l-1.7-16.4H311L310,194.3z"/>
		<polygon class="st52" points="310.5,183.1 323.9,183.1 323.3,177.7 310.8,177.7 		"/>
		<path class="st26" d="M314,92c3.5,1.3,5.8,3.5,9.5,2.7c1.9,0.1,1.4,2.5,1.4,3v0c-0.9,2-3.7,5.1-3.7,5.1s-3.8,2.6-4.7,3.1
			c-2.5,1.4-4.3,0.1-5.3-0.4c-1.4-0.7-2.4-3.5-3.4-4.8c-1.3-1.7-0.9-4-0.9-4l0.8-2.8C310,91.5,311.2,90.6,314,92z"/>
	</g>
</g>
<g>
	<path class="st53" d="M227.2,181.6c0,0-22.5-11.7-30.5-14.2c-5.4-1.6-16.7-3.2-22.3-3.4c-7.7-0.1-23.1,1.2-30.5,3.4
		c-8,2.3-28.9,14.2-30.2,14.2S227.2,181.6,227.2,181.6z"/>
	<rect x="115.1" y="181.2" class="st54" width="111.3" height="18.3"/>
	<g>
		<rect x="109.3" y="195.9" class="st55" width="123.3" height="12.2"/>
		<rect x="109.7" y="227" class="st55" width="123.3" height="12.2"/>
		<rect x="109.7" y="243.1" class="st55" width="123.3" height="4.5"/>
		<rect x="110.2" y="169.1" class="st55" width="120.9" height="4.5"/>
		<rect x="226.4" y="168.9" class="st55" width="6.1" height="96.1"/>
		<rect x="109" y="168.9" class="st55" width="6.1" height="96.1"/>
	</g>
</g>
<g>
	<path class="st33" d="M177.2,150.3c-0.1,0-3.1-9.1-3.1-9.1l-1.3-7.8l-7.4-6.8l-2.2,13c0.6,0.1,0.8,0.2,1,0.4
		C166.9,142.3,174.1,150.4,177.2,150.3z"/>
	<g>
		<path class="st33" d="M183.6,116.4l-2-4.7c0,0-4-2.3-5.9-2.5c-0.7-0.1-7.4-1.4-10.6,3.1c-0.7,1-3.5,3.6-4.1,4.4
			c-1.5,2.1-1.1,6.3-1.1,6.3s-2.6,0.9-0.8,3.4c1.2,1.8,1.9,2.9,2.7,3.3c0.7,0.3,2.3-0.5,2.3-0.5s2.2,3.6,3.5,4.7
			c1.8,1.6,4.1,3.6,4.1,3.6s6.6,2,7.8,2.1c3.2,0.3,3-1.2,3.9-2.2c1.1-1.3,2.1-4.5,2.6-6.1c0.6-2.3-0.6-6-0.6-6L183.6,116.4z"/>
		<path class="st56" d="M161.7,114c1-1.8,2.4-3.1,3.2-3.8c1.6-1.3,4.4-1.5,6.8-2.4c3.9-1.4,9.4,2.1,9.4,2.1s0.9,1.4,1.1,1.8
			c0.7,1.6,1.9,3.9,1.6,5.6c-0.1,0.6,0.5,3.5,0.5,3.5l-3.5-7.5c0,0-3.5-1.3-4.8-0.7c-5,2.4-7.1,4-7.1,4l-3.1,2.4l1.1,4.7l-0.4,2.4
			l-1.9,0.8c0,0-0.6-1.5-0.9-2c-0.3-0.6-0.9-1.5-1.5-1.9c-1.4-0.8-3.6,0.5-3.6,0.5s-0.7-1.4-0.6-2.6c0.1-0.8,0.1-3.2,0.3-3.8
			C159.2,115.8,161.3,114.8,161.7,114z"/>
		<path class="st28" d="M176.4,125.6c-2.9,2.7-6.7,0.8-10.7,1.6c-1.9,0.9-0.7,5.4-0.5,5.9l2.9,2.8c1.7,1.5,6.6,3.2,6.6,3.2
			s3.7,0.8,4.8,0.9c3.1,0.3,3-1.6,3.9-2.6c1.1-1.2,2.1-4.4,2.6-6c0.6-2.2-0.1-5.3-0.1-5.3l0-0.2C182.7,124.5,178.6,123,176.4,125.6z
			"/>
	</g>
	<path class="st57" d="M174.8,167.3h16.8c0,0,0-13.5-5.4-20.2c-1.5-1.9-12.2-8.4-12.3-7.3c-0.2,2.2,1.2,2.9-5.2,2.9
		c-0.4,0-5.5-4.8-5.5-4.8s-9,3.4-12.7,5.8c-1.7,1.1-3.7,5.9-4.4,8.7c-0.5,2-2,12.7-1.5,14.7C144.9,168.7,174.8,167.3,174.8,167.3z"
		/>
	<path class="st56" d="M165.8,103.2l-5.2,3c-1.9,1.1-2.6,3.6-1.5,5.5l0,0c1.1,1.9,3.6,2.6,5.5,1.5l5.2-3c1.9-1.1,2.6-3.6,1.5-5.5
		l0,0C170.2,102.7,167.7,102,165.8,103.2z"/>
	<path class="st16" d="M180.1,140c-0.7,0.5-1.8,0.9-2.3,1.7c-0.2,0.4-2.4,1.9-1.4,2.3c0.8,0.3,5.9-1.3,7.6-2.3c0.1,0,0-0.1,0.1-0.1
		C182.9,140.9,181.5,140.1,180.1,140z"/>
</g>
<path class="st8" d="M143.5,141.5l-1.2,3.1l-3.1,6.4c0,0-4.1,8.4-5.3,10.9c-1.1,2.2-3.3,7.9-5.8,8.3c-10.8,1.5-28.8-24.3-28.8-24.3
	s5.6-1.8,6.6-1.5c2.6,0.7,8.9,6.1,8.9,6.1l7.3,6.7l1.5,1.5c1.8-2.1,4.2-4.9,5.3-6.2c1.6-2,6.4-8.1,6.4-8.1l4.1-4.7L143.5,141.5z"/>
<path class="st15" d="M140.4,152.3l-10.5-3.5c-0.8-0.3-1.2-1.2-1-2l8.1-24c0.3-0.8,1.2-1.2,2-1l10.5,3.5c0.8,0.3,1.2,1.2,1,2
	l-8.1,24C142.1,152.2,141.2,152.6,140.4,152.3z"/>
<g>
	<ellipse transform="matrix(0.369 -0.9294 0.9294 0.369 -39.4545 223.9245)" class="st33" cx="145.2" cy="141" rx="1.3" ry="3.6"/>
	<ellipse transform="matrix(0.369 -0.9294 0.9294 0.369 -41.5737 223.7811)" class="st33" cx="144" cy="142.5" rx="1.3" ry="4.2"/>
	<path class="st33" d="M147.3,145.6c-0.3,0.7-1.7,0.8-3.6,0c-1.9-0.7-3.1-1.9-2.9-2.6c0.3-0.7,2-0.6,3.9,0.1
		C146.6,143.9,147.6,144.9,147.3,145.6z"/>
	<path class="st33" d="M147.1,146c-0.1,0.2-3.4,1.7-3.4,1.7l0.6-2.7l3.6-3.7l0.7,1.1C148.6,142.4,147.7,145,147.1,146z"/>
</g>
<g>
	<path class="st50" d="M112.3,263.6c0,0,1.1,2.2,1.6,2.8c1.3,1.7,4.3,4.8,5.9,6.1c1.2,1,5.1,3.5,5.1,3.5s-0.4,1.1-0.7,1.3
		c-1.5,1-5-0.1-6.9-0.5c-1.4-0.3-4.1-1-5.2-1.8c-1.4-1-4.5-5.1-4.5-5.1l-0.1,6l-1.7,0.1c0,0-0.9-4.2-1.1-5.8
		c-0.1-0.9-0.2-3.2,0.2-4.1c0.3-0.8,1.6-2.8,1.6-2.8L112.3,263.6z"/>
	<path class="st50" d="M99.4,263.6c0,0,1.1,2.2,1.6,2.8c1.3,1.7,4.3,4.8,5.9,6.1c1.2,1,5.1,3.5,5.1,3.5s-0.4,1.1-0.7,1.3
		c-1.5,1-5-0.1-6.9-0.5c-1.4-0.3-4.1-1-5.2-1.8c-1.4-1-4.5-5.1-4.5-5.1l-0.1,6l-1.7,0.1c0,0-0.9-4.2-1.1-5.8
		c-0.1-0.9-0.2-3.2,0.2-4.1c0.3-0.8,1.6-2.8,1.6-2.8L99.4,263.6z"/>
	<ellipse class="st58" cx="97.1" cy="104.8" rx="3.6" ry="3.7"/>
	<ellipse class="st58" cx="94" cy="97.8" rx="1.5" ry="1.5"/>
	<polygon class="st59" points="92.9,236.7 99.7,237.7 97.2,264.5 93.5,264.2 93.1,237.3 	"/>
	<polygon class="st59" points="112.2,235.7 109.7,263.9 105.9,264.1 106.3,237.3 	"/>
	<path class="st60" d="M105.1,99.9c-6.4,0-11.4,6.1-11.4,15.5c0,0.2-0.6,0.2-1.1,0.4c-0.6,0.3-1.1,1.2-1.2,1.5
		c-0.6,2.8,0.9,4.7,1.8,5.3c1.1,0.8,3.4,0.7,3.4,0.7l0.5,3.2l6.7,5c0,0,2.9,2.5,4.2,2.1c3.3-1,6.7-4,8.3-10.3
		c0.4-1.7-0.5-3.6-0.4-4.7c0.1-1.8,0.8-2.1,0.8-2.8C116.6,106.3,111.5,99.9,105.1,99.9z"/>
	<path class="st60" d="M103.7,131.5c0,0,0.1,2.6,0.2,3.2c0.2,0.6,1.1,1.8,1.1,1.8l5,5.5l1.7,7.4l-5.3,3.2l-9.9-14.8l0.7-11.6
		L103.7,131.5z"/>
	<path class="st61" d="M102.3,225.9l-1.9-19.6c0-1-1.9-3.2-1.9-3.2c-1,0-1.8,2.1-1.8,3.2l-0.4,21c0,1,0.7,2.9,2.3,1.8l0,0
		C99.6,229.1,102.3,226.9,102.3,225.9z"/>
	<path class="st50" d="M91.6,117c0,0,0.8-1.2,1.9-1.4c0.9-0.1,1.9,0.7,1.9,0.7s0.5,3.9,0.7,4.7c0.6,2.3-0.7,8.8-0.7,8.8l1.7-4.8
		c0,0,0.4-0.8,1.1-5.4c0.1-0.7-0.3-2.9-0.3-2.9s1.7-2.4,2.1-3c0.8-1.2,1.8-1.9,2.4-2.5c1.4-1.2,4.6-1.4,6.2-2.9
		c0.8-0.8,2.8-1.5,2.8-1.5s0.7,0.1,1.1,0.6c0.6,0.8,0.4,2.5,0.9,3.3c1.4,2,3.2,2.8,3.4,3.6c0.6,2.5,1.6,6.2,1.6,6.2s1.1-4.8,1.1-7.4
		c0.4-1.4,0.8-3.4-0.4-5.3c-0.5-0.8,0.8-1.6-0.6-3.8c-0.3-0.6-2.6-1.7-2.6-1.7s-1-1.9-1.6-2.2c-0.8-0.4-4.4-0.5-4.4-0.5
		s-2.3-3.2-7.7-3c-3.4,0.1-7,2.2-8.7,4c-1.6,1.7-3.3,5.2-3.2,7.7"/>
	<path class="st62" d="M90.8,117.6l0.2-0.1c0.1-0.1,0.2-0.2,0.1-0.4"/>
	<path class="st63" d="M116.6,123.6l-0.1,0.2c0,0-0.7,3-2.1,4.6c-1,1.2-2.2,4-3.7,4.5c-1.1,0.4-2.9,1.6-5.3,0
		c-0.9-0.6-2.2-3.5-2.2-3.5s-4.8-3.2-5.6-5.2c0,0,0,0,0,0c0.1-0.5-0.3-2.9,1.6-2.9c3.7,1,6.2-1,9.7-2.1
		C111.9,118,114.7,121.1,116.6,123.6z"/>
	<path class="st24" d="M114.1,260.1c0,0,4.2-27.8,4.3-37.1c0-1.4,0-32.8,0-32.8s-6-1-8-1H95.8c-1.8,0-5.9,0.4-5.9,0.4
		s-2.8,33.3-2.8,34.9l4.7,35.6c0,3.5,2.3,5.1,5.7,5.1l3,0l2.8-44.8l1.9,44.8l1.9,0C110.5,265.2,114.1,263.6,114.1,260.1z"/>
	<polygon class="st64" points="108,163 111.6,163.8 113.5,149.2 108.2,139.3 106.8,144.3 98.2,139.8 	"/>
	<path class="st65" d="M103.5,146.4c1.1,1.2,2.6,4.5,3.5,5.8c1.6,2.3,3.4,11,3.4,11s1-7.3,1.1-9.8c0.1-2.5-0.2-7.7-1.2-10.1
		c-0.8-2-5.2-6.9-5.2-6.9l3.2,1.2l7.8,7.5c0,0,5.4,3.8,5.9,6.4c0.9,4.2-1,10-1.4,10.9c-1,2-0.2,15.4,0,18.3c0.2,3,0,36.4,0,36.4
		s-13.3-0.4-16.3-0.1c-4.3,0.5-17.2-3.3-17.2-3.3s4.1-31.4,4.6-34.3c0.7-3.9,1.4-11.8,0.8-15.7c-0.3-1.8-1.9-4-1.9-4
		s-4.6-15.9-2.7-18.1c1-1.2,2.7-3.2,4.2-4c0.9-0.5,4.1-0.3,4.1-0.3S101.4,144.1,103.5,146.4z"/>
	<path class="st66" d="M95.9,137.3c0,0,9.1,9.4,11,13.2c1.8,3.5,3.3,11.4,3.3,11.4s1.6-8.8,0.8-13.1c-0.6-3.4-6.9-13.8-6.9-13.8
		l12.7,14.3l-2.5,3l1.8,3.1l-5.3,16.3l-6.7-14.9l1.8-3.1L101,154l-5.3-15.7L95.9,137.3z"/>
	<polygon class="st67" points="91.2,101.8 97.6,96.6 98.3,97.5 92,102.7 	"/>
	<path class="st50" d="M91.3,102l6.6-5.4c1.4-1.1,0.4-2.4-0.7-3.9l-3.6-2.4c-1.1-1.4-0.9-3.1-4.8-1.1l-4.5,3.5
		c-3.2,3.7,1.2,3.3,2.2,4.7l0.3,4C87.9,102.9,89.9,103.2,91.3,102z"/>
	<path class="st68" d="M95.4,175.5c0,0-0.4-11.9,3.9-11.5c5.8,0.5,4.8,11.3,4.8,11.3"/>
	<path class="st68" d="M99.3,164c0,0,1.5-8.3,1-11c-0.8-3.8-5.8-12-4.6-15.2c0.2-0.5,2-1.8,2-1.8"/>
	<polygon class="st60" points="96.7,133.8 99.1,135.4 98.2,139.5 96.5,137.8 96.6,135.6 	"/>
	<path class="st68" d="M116.8,159.1c0,0,2.5-7.2,1.5-9.7c-1.5-3.6-8.8-11.1-11.5-13c-0.4-0.3-4.4-1.9-4.4-1.9"/>
	<polygon class="st60" points="103,133 100.9,132.9 101,137.1 106.2,138 103.9,134.4 	"/>
	<ellipse class="st69" cx="104.2" cy="175.5" rx="1.7" ry="0.8"/>
	<ellipse class="st69" cx="95.3" cy="175.9" rx="1.8" ry="0.9"/>
	<ellipse class="st70" cx="115.8" cy="161.6" rx="3" ry="3.1"/>
	<ellipse class="st71" cx="115.8" cy="161.6" rx="1.7" ry="1.8"/>
	<path class="st72" d="M87.8,141.6c0,0,2.8,3.9,3.5,8.3c0.6,3.8-0.4,10.4-0.4,10.4s-1.7,11-0.1,15.4c1.4,4.1,2.3,8.8,2.3,8.8l-3,7.8
		c0,0-10.5-13.4-12.4-18.5c-1-2.6,2.2-6.4,2.6-9.1c0.6-4.7,0.1-12.1,2.4-16.2C83.6,146.6,87.8,141.6,87.8,141.6z"/>
</g>
<g>
	<polygon class="st73" points="568.1,166 554.9,169.7 545.1,160.2 548.4,146.9 561.6,143.2 571.4,152.7 	"/>
	<polygon class="st74" points="574.7,189.1 561.5,192.8 551.7,183.3 555,170 568.2,166.2 578,175.8 	"/>
	<polygon class="st75" points="551.5,183.3 538.4,187.1 528.5,177.6 531.8,164.3 545,160.5 554.9,170.1 	"/>
	<polygon class="st73" points="557.8,205.7 544.6,209.5 534.8,199.9 538.1,186.7 551.3,182.9 561.1,192.4 	"/>
	<polygon class="st74" points="564.3,228.5 551.2,232.3 541.3,222.8 544.6,209.5 557.8,205.7 567.6,215.2 	"/>
	<polygon class="st74" points="581.2,211.9 568,215.7 558.2,206.2 561.5,192.9 574.7,189.1 584.5,198.6 	"/>
	<polygon class="st76" points="541.2,222.8 528,226.6 518.2,217 521.5,203.7 534.7,200 544.5,209.5 	"/>
	<polygon class="st74" points="591.4,249.9 578.2,253.7 568.3,244.2 571.7,230.9 584.8,227.1 594.7,236.7 	"/>
	<polygon class="st77" points="528.5,177.6 515.4,181.3 505.5,171.8 508.9,158.5 522,154.8 531.9,164.3 	"/>
	<polygon class="st76" points="505.9,170.8 492.7,174.6 482.9,165 486.2,151.8 499.3,148 509.2,157.5 	"/>
	<polygon class="st78" points="547.7,245.6 534.5,249.4 524.7,239.8 528,226.6 541.2,222.8 551,232.3 	"/>
	<polygon class="st77" points="518.2,217 505,220.8 495.2,211.3 498.5,198 511.7,194.2 521.5,203.7 	"/>
</g>
<g class="st79">
	<polygon class="st73" points="408.6,245.4 398.8,242.6 391.6,249.6 394,259.4 403.8,262.2 411,255.2 	"/>
	<polygon class="st74" points="413.4,228.3 403.7,225.6 396.5,232.6 398.9,242.4 408.6,245.2 415.9,238.1 	"/>
	<polygon class="st75" points="396.4,232.6 386.6,229.8 379.4,236.8 381.8,246.6 391.5,249.4 398.8,242.4 	"/>
	<polygon class="st73" points="401,216.1 391.3,213.3 384,220.3 386.5,230.1 396.2,232.9 403.4,225.9 	"/>
	<polygon class="st74" points="405.8,199.2 396.1,196.5 388.8,203.5 391.3,213.3 401,216.1 408.2,209 	"/>
	<polygon class="st74" points="418.2,211.5 408.5,208.7 401.3,215.7 403.7,225.5 413.4,228.3 420.7,221.3 	"/>
	<polygon class="st76" points="388.7,203.5 379,200.7 371.7,207.7 374.2,217.5 383.9,220.3 391.2,213.3 	"/>
	<polygon class="st74" points="425.7,183.4 416,180.6 408.8,187.7 411.2,197.5 420.9,200.2 428.2,193.2 	"/>
	<polygon class="st77" points="379.4,236.8 369.7,234 362.4,241.1 364.9,250.9 374.6,253.6 381.8,246.6 	"/>
	<polygon class="st76" points="362.7,241.8 353,239 345.7,246.1 348.1,255.9 357.9,258.6 365.1,251.6 	"/>
	<polygon class="st78" points="393.5,186.6 383.8,183.9 376.5,190.9 379,200.7 388.7,203.5 396,196.4 	"/>
	<polygon class="st77" points="371.7,207.7 362,204.9 354.8,212 357.2,221.8 366.9,224.5 374.2,217.5 	"/>
</g>
<g class="st79">
	<polygon class="st73" points="426.1,104.2 422.4,91.1 431.8,81.3 445,84.6 448.7,97.7 439.3,107.4 	"/>
	<polygon class="st74" points="403.2,110.7 399.5,97.6 408.9,87.9 422.1,91.2 425.8,104.2 416.4,114 	"/>
	<polygon class="st75" points="408.9,87.8 405.2,74.7 414.6,64.9 427.8,68.2 431.5,81.3 422.1,91.1 	"/>
	<polygon class="st73" points="386.7,94 383,80.9 392.4,71.2 405.6,74.4 409.3,87.5 399.9,97.3 	"/>
	<polygon class="st74" points="364.1,100.4 360.4,87.4 369.8,77.6 383,80.9 386.7,94 377.3,103.7 	"/>
	<polygon class="st74" points="380.5,117.2 376.8,104.1 386.2,94.4 399.4,97.7 403.1,110.7 393.7,120.5 	"/>
	<polygon class="st76" points="369.8,77.5 366.1,64.4 375.5,54.7 388.7,58 392.4,71 383,80.8 	"/>
	<polygon class="st74" points="342.9,127.2 339.1,114.2 348.6,104.4 361.8,107.7 365.5,120.8 356,130.5 	"/>
	<polygon class="st77" points="414.6,65 410.9,51.9 420.3,42.2 433.5,45.5 437.2,58.5 427.8,68.2 	"/>
	<polygon class="st76" points="421.3,42.5 417.6,29.4 427,19.7 440.2,23 443.9,36 434.5,45.8 	"/>
	<polygon class="st78" points="347.2,84 343.5,70.9 352.9,61.2 366.1,64.4 369.8,77.5 360.4,87.2 	"/>
	<polygon class="st77" points="375.5,54.7 371.8,41.6 381.2,31.9 394.4,35.2 398.1,48.2 388.7,58 	"/>
</g>
<g class="st79">
	<polygon class="st75" points="587.4,58.4 577.7,55.6 570.4,62.6 572.9,72.4 582.6,75.2 589.9,68.2 	"/>
	<polygon class="st73" points="592,41.9 582.3,39.1 575.1,46.1 577.5,55.9 587.2,58.7 594.5,51.7 	"/>
	<polygon class="st76" points="579.8,29.3 570.1,26.5 562.8,33.5 565.2,43.3 575,46.1 582.2,39.1 	"/>
	<polygon class="st77" points="570.4,62.6 560.7,59.8 553.5,66.9 555.9,76.7 565.6,79.5 572.9,72.4 	"/>
	<polygon class="st76" points="553.7,67.6 544,64.8 536.7,71.9 539.2,81.7 548.9,84.4 556.2,77.4 	"/>
	<polygon class="st77" points="562.8,33.5 553.1,30.8 545.8,37.8 548.3,47.6 558,50.3 565.3,43.3 	"/>
</g>
<line class="st80" x1="458" y1="135.6" x2="587.1" y2="135.6"/>
<g>
	<rect x="381.6" y="23.3" class="st24" width="179.6" height="206.4"/>
	<rect x="383.1" y="23.3" class="st81" width="179.6" height="204.3"/>
	<rect x="393.9" y="42" class="st82" width="153.3" height="51.6"/>
	<g class="st83">
		<path d="M412.9,50.4l-4.4-0.5c0.2-0.8,0.4-1.4,0.7-1.8s0.8-0.8,1.3-1.1c0.4-0.2,1-0.4,1.7-0.5c0.7-0.1,1.5-0.2,2.4-0.2
			c1.4,0,2.5,0.1,3.3,0.2c0.8,0.2,1.5,0.5,2.1,1c0.4,0.3,0.7,0.8,0.9,1.4c0.2,0.6,0.3,1.2,0.3,1.8v5.2c0,0.6,0,1,0.1,1.3
			c0.1,0.3,0.2,0.7,0.5,1.2h-4.3c-0.2-0.3-0.3-0.5-0.3-0.7c-0.1-0.2-0.1-0.4-0.2-0.8c-0.6,0.6-1.2,1-1.8,1.2
			c-0.8,0.3-1.7,0.5-2.8,0.5c-1.4,0-2.5-0.3-3.2-1c-0.7-0.7-1.1-1.5-1.1-2.4c0-0.9,0.3-1.6,0.8-2.2c0.5-0.6,1.5-1,2.9-1.3
			c1.7-0.3,2.8-0.6,3.3-0.7s1-0.3,1.6-0.5c0-0.6-0.1-1-0.3-1.2c-0.2-0.2-0.6-0.3-1.2-0.3c-0.7,0-1.3,0.1-1.7,0.4
			C413.3,49.5,413.1,49.9,412.9,50.4z M416.9,52.8c-0.6,0.2-1.3,0.4-2,0.6c-0.9,0.2-1.5,0.5-1.8,0.7c-0.3,0.2-0.4,0.5-0.4,0.8
			c0,0.4,0.1,0.7,0.4,0.9s0.6,0.3,1.1,0.3c0.5,0,1-0.1,1.4-0.4c0.4-0.2,0.7-0.5,0.9-0.9c0.2-0.4,0.3-0.8,0.3-1.4V52.8z"/>
		<path d="M435.7,46.8l-4.3-0.8c0.4-1.4,1-2.4,2.1-3.2s2.5-1.1,4.3-1.1c2.1,0,3.7,0.4,4.6,1.2c1,0.8,1.4,1.8,1.4,3
			c0,0.7-0.2,1.4-0.6,1.9c-0.4,0.6-1,1.1-1.8,1.5c0.6,0.2,1.1,0.3,1.5,0.5c0.5,0.3,1,0.8,1.3,1.3c0.3,0.5,0.5,1.2,0.5,2
			c0,1-0.2,1.9-0.8,2.7c-0.5,0.9-1.2,1.6-2.2,2c-0.9,0.5-2.2,0.7-3.7,0.7c-1.5,0-2.7-0.2-3.5-0.5c-0.9-0.4-1.6-0.9-2.1-1.5
			c-0.6-0.7-1-1.5-1.3-2.5l4.6-0.6c0.2,0.9,0.5,1.6,0.8,1.9c0.4,0.4,0.9,0.5,1.4,0.5c0.6,0,1.1-0.2,1.5-0.7c0.4-0.4,0.6-1,0.6-1.8
			c0-0.8-0.2-1.4-0.6-1.8s-0.9-0.6-1.6-0.6c-0.4,0-0.9,0.1-1.5,0.3l0.2-3.3c0.3,0,0.5,0.1,0.6,0.1c0.6,0,1.1-0.2,1.5-0.6
			c0.4-0.4,0.6-0.8,0.6-1.4c0-0.5-0.1-0.9-0.4-1.2c-0.3-0.3-0.7-0.4-1.2-0.4c-0.5,0-1,0.2-1.3,0.5S435.8,46,435.7,46.8z"/>
		<path d="M459.7,45.7l-4.5,0.6c-0.1-0.6-0.3-1.1-0.6-1.3c-0.3-0.3-0.6-0.4-1-0.4c-0.7,0-1.3,0.4-1.7,1.1c-0.3,0.5-0.5,1.7-0.7,3.4
			c0.5-0.6,1.1-1,1.7-1.2c0.6-0.3,1.2-0.4,2-0.4c1.5,0,2.7,0.5,3.7,1.6c1,1,1.5,2.4,1.5,4c0,1.1-0.3,2.1-0.8,3
			c-0.5,0.9-1.2,1.6-2.1,2s-2,0.7-3.4,0.7c-1.6,0-3-0.3-4-0.8s-1.8-1.5-2.4-2.7c-0.6-1.2-0.9-2.9-0.9-4.9c0-3,0.6-5.1,1.9-6.5
			c1.2-1.4,3-2.1,5.2-2.1c1.3,0,2.3,0.2,3.1,0.5c0.8,0.3,1.4,0.7,1.9,1.3S459.5,44.8,459.7,45.7z M451.3,53c0,0.9,0.2,1.6,0.7,2.1
			c0.4,0.5,1,0.8,1.6,0.8c0.6,0,1.1-0.2,1.5-0.7c0.4-0.5,0.6-1.1,0.6-2c0-0.9-0.2-1.6-0.6-2.1c-0.4-0.5-0.9-0.7-1.6-0.7
			c-0.6,0-1.2,0.2-1.6,0.7C451.6,51.5,451.3,52.1,451.3,53z"/>
		<path d="M461.8,50.2c0-3.1,0.6-5.3,1.7-6.5c1.1-1.2,2.8-1.9,5.1-1.9c1.1,0,2,0.1,2.7,0.4c0.7,0.3,1.3,0.6,1.7,1.1
			c0.4,0.4,0.8,0.9,1.1,1.4c0.3,0.5,0.5,1,0.6,1.7c0.3,1.2,0.5,2.5,0.5,3.8c0,3-0.5,5.2-1.5,6.5c-1,1.4-2.7,2.1-5.2,2.1
			c-1.4,0-2.5-0.2-3.3-0.7c-0.9-0.4-1.5-1.1-2.1-1.9c-0.4-0.6-0.7-1.4-0.9-2.5C461.9,52.6,461.8,51.4,461.8,50.2z M466.4,50.2
			c0,2.1,0.2,3.5,0.6,4.3c0.4,0.8,0.9,1.1,1.6,1.1c0.5,0,0.9-0.2,1.2-0.5c0.3-0.3,0.6-0.8,0.8-1.5s0.2-1.8,0.2-3.3
			c0-2.2-0.2-3.6-0.6-4.4c-0.4-0.8-0.9-1.1-1.7-1.1c-0.8,0-1.3,0.4-1.6,1.1C466.5,46.7,466.4,48.1,466.4,50.2z"/>
		<path d="M483.9,46.5h4.7l2.3,7.5l2.4-7.5h4.6l-5.1,11.9h-4L483.9,46.5z"/>
		<path d="M499.4,42h4.6v3.1h-4.6V42z M499.4,46.5h4.6v11.9h-4.6V46.5z"/>
		<path d="M520,53.6h-9.1c0.1,0.7,0.3,1.3,0.6,1.6c0.4,0.5,1,0.8,1.7,0.8c0.4,0,0.9-0.1,1.3-0.3c0.2-0.1,0.5-0.4,0.8-0.8l4.5,0.4
			c-0.7,1.2-1.5,2.1-2.5,2.6c-1,0.5-2.4,0.8-4.2,0.8c-1.6,0-2.8-0.2-3.7-0.7c-0.9-0.4-1.7-1.1-2.2-2.1c-0.6-1-0.9-2.1-0.9-3.4
			c0-1.9,0.6-3.4,1.8-4.5c1.2-1.1,2.8-1.7,4.9-1.7c1.7,0,3,0.3,4,0.8c1,0.5,1.7,1.3,2.2,2.2c0.5,1,0.8,2.2,0.8,3.8V53.6z
			 M515.4,51.4c-0.1-0.9-0.3-1.5-0.7-1.9c-0.4-0.4-0.9-0.6-1.5-0.6c-0.7,0-1.3,0.3-1.7,0.9c-0.3,0.4-0.5,0.9-0.5,1.6H515.4z"/>
		<path d="M520.8,46.5h4.4l1.9,7.5l2.4-7.5h4.1l2.5,7.5l1.9-7.5h4.4l-4.4,11.9H534l-2.4-7.2l-2.3,7.2h-4.1L520.8,46.5z"/>
	</g>
	<g class="st83">
		<path d="M411.8,72c0-1.1,0.4-2.1,1.2-2.8c0.8-0.7,1.8-1.1,3.1-1.1c1.5,0,2.6,0.4,3.4,1.3c0.6,0.7,0.9,1.6,0.9,2.6
			c0,1.2-0.4,2.1-1.1,2.8c-0.8,0.7-1.8,1.1-3.2,1.1c-1.2,0-2.2-0.3-2.9-0.9C412.2,74.2,411.8,73.3,411.8,72z M414.6,72
			c0,0.7,0.1,1.2,0.4,1.5c0.3,0.3,0.6,0.5,1,0.5c0.4,0,0.8-0.2,1-0.5c0.3-0.3,0.4-0.8,0.4-1.5c0-0.6-0.1-1.1-0.4-1.4
			c-0.3-0.3-0.6-0.5-1-0.5c-0.4,0-0.8,0.2-1,0.5C414.8,70.9,414.6,71.4,414.6,72z"/>
		<path d="M424.9,68.3h1.4v2.1h-1.4v5.4h-2.9v-5.4H421v-2.1h1.1v-0.3c0-0.3,0-0.6,0.1-1c0.1-0.4,0.2-0.7,0.4-0.9
			c0.2-0.2,0.4-0.4,0.8-0.6c0.3-0.1,0.8-0.2,1.4-0.2c0.5,0,1.2,0.1,2.2,0.2l-0.3,1.7c-0.3-0.1-0.6-0.1-0.8-0.1c-0.3,0-0.4,0-0.6,0.1
			c-0.1,0.1-0.2,0.2-0.2,0.4C425,67.7,424.9,67.9,424.9,68.3z"/>
		<path d="M432.2,68.3h3l1.5,5l1.4-5h2.8l-3,8c-0.3,0.9-0.7,1.5-1,1.8c-0.5,0.5-1.3,0.7-2.3,0.7c-0.4,0-1.1-0.1-1.9-0.2l-0.2-2
			c0.4,0.1,0.9,0.2,1.4,0.2c0.3,0,0.6-0.1,0.8-0.2s0.4-0.4,0.5-0.8L432.2,68.3z"/>
		<path d="M441.2,72c0-1.1,0.4-2.1,1.2-2.8c0.8-0.7,1.8-1.1,3.1-1.1c1.5,0,2.6,0.4,3.4,1.3c0.6,0.7,0.9,1.6,0.9,2.6
			c0,1.2-0.4,2.1-1.1,2.8s-1.8,1.1-3.2,1.1c-1.2,0-2.2-0.3-2.9-0.9C441.7,74.2,441.2,73.3,441.2,72z M444.1,72
			c0,0.7,0.1,1.2,0.4,1.5s0.6,0.5,1,0.5c0.4,0,0.8-0.2,1-0.5c0.3-0.3,0.4-0.8,0.4-1.5c0-0.6-0.1-1.1-0.4-1.4s-0.6-0.5-1-0.5
			c-0.4,0-0.8,0.2-1,0.5C444.2,70.9,444.1,71.4,444.1,72z"/>
		<path d="M459.1,75.7h-2.7v-1.2c-0.4,0.5-0.8,0.9-1.2,1.1c-0.4,0.2-0.9,0.3-1.5,0.3c-0.8,0-1.4-0.2-1.9-0.7
			c-0.4-0.5-0.7-1.2-0.7-2.2v-4.8h2.9v4.1c0,0.5,0.1,0.8,0.3,1s0.4,0.3,0.7,0.3c0.3,0,0.6-0.1,0.8-0.4c0.2-0.3,0.3-0.7,0.3-1.4v-3.6
			h2.9V75.7z"/>
		<path d="M460.9,68.3h2.7v1.2c0.3-0.5,0.5-0.9,0.8-1.1c0.3-0.2,0.6-0.3,1-0.3c0.4,0,0.9,0.1,1.4,0.4l-0.9,2
			c-0.3-0.1-0.6-0.2-0.8-0.2c-0.4,0-0.7,0.2-0.9,0.5c-0.3,0.4-0.4,1.3-0.4,2.5v2.5h-2.9V68.3z"/>
		<path d="M472.1,78.6V68.3h2.7v1.1c0.4-0.5,0.7-0.8,1-0.9c0.4-0.2,0.9-0.3,1.4-0.3c1,0,1.8,0.4,2.3,1.1c0.5,0.8,0.8,1.7,0.8,2.8
			c0,1.2-0.3,2.2-0.9,2.9c-0.6,0.7-1.4,1-2.3,1c-0.4,0-0.8-0.1-1.2-0.2s-0.7-0.4-1-0.7v3.6H472.1z M474.9,72c0,0.6,0.1,1,0.4,1.3
			c0.2,0.3,0.6,0.4,0.9,0.4c0.3,0,0.6-0.1,0.8-0.4c0.2-0.3,0.3-0.7,0.3-1.4c0-0.6-0.1-1.1-0.4-1.3c-0.2-0.3-0.5-0.4-0.9-0.4
			c-0.4,0-0.7,0.1-0.9,0.4C475.1,70.9,474.9,71.4,474.9,72z"/>
		<path d="M484.3,70.7l-2.7-0.3c0.1-0.5,0.3-0.9,0.4-1.1c0.2-0.3,0.5-0.5,0.8-0.7c0.3-0.1,0.6-0.3,1.1-0.3c0.5-0.1,1-0.1,1.5-0.1
			c0.9,0,1.6,0,2.1,0.1c0.5,0.1,1,0.3,1.3,0.6c0.2,0.2,0.4,0.5,0.6,0.9c0.1,0.4,0.2,0.8,0.2,1.1v3.3c0,0.4,0,0.6,0.1,0.8
			c0,0.2,0.1,0.5,0.3,0.8h-2.7c-0.1-0.2-0.2-0.3-0.2-0.4s-0.1-0.3-0.1-0.5c-0.4,0.4-0.7,0.6-1.1,0.8c-0.5,0.2-1.1,0.3-1.8,0.3
			c-0.9,0-1.6-0.2-2-0.6c-0.5-0.4-0.7-0.9-0.7-1.5c0-0.6,0.2-1,0.5-1.4s0.9-0.6,1.8-0.8c1.1-0.2,1.8-0.4,2.1-0.5s0.7-0.2,1-0.3
			c0-0.4-0.1-0.6-0.2-0.7c-0.1-0.1-0.4-0.2-0.8-0.2c-0.5,0-0.8,0.1-1.1,0.2C484.6,70.1,484.4,70.4,484.3,70.7z M486.8,72.2
			c-0.4,0.1-0.8,0.3-1.2,0.4c-0.6,0.2-1,0.3-1.1,0.5c-0.2,0.2-0.2,0.3-0.2,0.5c0,0.2,0.1,0.4,0.2,0.6c0.2,0.1,0.4,0.2,0.7,0.2
			c0.3,0,0.6-0.1,0.9-0.2c0.3-0.2,0.5-0.3,0.6-0.6c0.1-0.2,0.2-0.5,0.2-0.9V72.2z"/>
		<path d="M494.5,65.4v2.8h1.6v2.1h-1.6V73c0,0.3,0,0.5,0.1,0.6c0.1,0.2,0.3,0.2,0.5,0.2c0.2,0,0.5-0.1,0.9-0.2l0.2,2
			c-0.7,0.2-1.4,0.2-2,0.2c-0.7,0-1.2-0.1-1.6-0.3s-0.6-0.5-0.8-0.8c-0.2-0.4-0.2-1-0.2-1.8v-2.6h-1.1v-2.1h1.1v-1.4L494.5,65.4z"/>
		<path d="M497.6,65.4h2.9v2h-2.9V65.4z M497.6,68.3h2.9v7.5h-2.9V68.3z"/>
		<path d="M510.6,72.7h-5.8c0.1,0.5,0.2,0.8,0.4,1c0.3,0.3,0.6,0.5,1.1,0.5c0.3,0,0.5-0.1,0.8-0.2c0.2-0.1,0.3-0.2,0.5-0.5l2.8,0.3
			c-0.4,0.8-1,1.3-1.6,1.6c-0.6,0.3-1.5,0.5-2.6,0.5c-1,0-1.8-0.1-2.3-0.4s-1-0.7-1.4-1.3c-0.4-0.6-0.6-1.3-0.6-2.1
			c0-1.2,0.4-2.1,1.1-2.8c0.7-0.7,1.8-1.1,3.1-1.1c1.1,0,1.9,0.2,2.5,0.5s1.1,0.8,1.4,1.4c0.3,0.6,0.5,1.4,0.5,2.4V72.7z
			 M507.7,71.3c-0.1-0.6-0.2-1-0.4-1.2c-0.2-0.2-0.6-0.4-1-0.4c-0.5,0-0.8,0.2-1.1,0.5c-0.2,0.2-0.3,0.6-0.3,1H507.7z"/>
		<path d="M511.9,68.3h2.7v1.2c0.4-0.5,0.8-0.9,1.2-1.1c0.4-0.2,0.9-0.3,1.5-0.3c0.8,0,1.4,0.2,1.9,0.7c0.4,0.5,0.7,1.2,0.7,2.2v4.8
			h-2.9v-4.1c0-0.5-0.1-0.8-0.3-1c-0.2-0.2-0.4-0.3-0.7-0.3c-0.3,0-0.6,0.1-0.8,0.4c-0.2,0.3-0.3,0.7-0.3,1.4v3.6h-2.9V68.3z"/>
		<path d="M525,65.4v2.8h1.6v2.1H525V73c0,0.3,0,0.5,0.1,0.6c0.1,0.2,0.3,0.2,0.5,0.2c0.2,0,0.5-0.1,0.9-0.2l0.2,2
			c-0.7,0.2-1.4,0.2-2,0.2c-0.7,0-1.2-0.1-1.6-0.3s-0.6-0.5-0.8-0.8c-0.2-0.4-0.2-1-0.2-1.8v-2.6h-1.1v-2.1h1.1v-1.4L525,65.4z"/>
		<path d="M527.4,73.7l2.8-0.3c0.1,0.3,0.3,0.6,0.5,0.7c0.2,0.1,0.5,0.2,0.8,0.2c0.4,0,0.7-0.1,0.9-0.2c0.2-0.1,0.2-0.3,0.2-0.5
			c0-0.2-0.1-0.4-0.3-0.5c-0.2-0.1-0.6-0.2-1.2-0.3c-1-0.2-1.7-0.3-2.1-0.5c-0.4-0.1-0.7-0.4-1-0.8c-0.3-0.4-0.4-0.8-0.4-1.2
			c0-0.5,0.1-0.9,0.4-1.3c0.3-0.4,0.7-0.6,1.2-0.8c0.5-0.2,1.2-0.3,2-0.3c0.9,0,1.6,0.1,2,0.2c0.4,0.1,0.8,0.3,1.1,0.6
			s0.5,0.7,0.7,1.2l-2.7,0.3c-0.1-0.2-0.2-0.4-0.4-0.5c-0.2-0.2-0.5-0.2-0.8-0.2c-0.3,0-0.6,0.1-0.7,0.2c-0.1,0.1-0.2,0.3-0.2,0.4
			c0,0.2,0.1,0.3,0.3,0.4s0.6,0.2,1.2,0.3c1,0.1,1.7,0.3,2.1,0.5s0.8,0.5,1.1,0.8c0.2,0.4,0.4,0.7,0.4,1.2c0,0.4-0.1,0.9-0.4,1.3
			c-0.3,0.4-0.7,0.7-1.2,1s-1.3,0.4-2.3,0.4c-1.4,0-2.3-0.2-2.9-0.6C528,74.9,527.6,74.4,527.4,73.7z"/>
		<path d="M536.4,65.2h3.1v2.4c0,0.9-0.2,1.6-0.5,2.1c-0.4,0.5-1,0.9-1.9,1.3l-0.7-1.3c0.5-0.3,0.9-0.5,1.1-0.8
			c0.2-0.3,0.3-0.5,0.3-0.9h-1.5V65.2z"/>
	</g>
	<g class="st83">
		<path d="M425.2,90.1l2.7,0.3c-0.2,0.6-0.4,1.1-0.7,1.5c-0.3,0.4-0.8,0.7-1.3,1c-0.5,0.2-1.2,0.3-2,0.3c-0.8,0-1.5-0.1-2-0.2
			c-0.5-0.1-1-0.4-1.4-0.7s-0.7-0.7-0.9-1.2c-0.2-0.4-0.3-1-0.3-1.8c0-0.8,0.1-1.4,0.4-1.9c0.2-0.4,0.5-0.7,0.8-1s0.7-0.5,1-0.7
			c0.6-0.2,1.3-0.3,2.1-0.3c1.2,0,2.2,0.2,2.8,0.7c0.6,0.4,1.1,1.1,1.3,1.9l-2.7,0.4c-0.1-0.3-0.2-0.6-0.5-0.7
			c-0.2-0.2-0.5-0.2-0.9-0.2c-0.5,0-0.9,0.2-1.2,0.5c-0.3,0.3-0.4,0.9-0.4,1.5c0,0.6,0.1,1.1,0.4,1.4c0.3,0.3,0.7,0.5,1.1,0.5
			c0.4,0,0.7-0.1,0.9-0.3C424.9,90.8,425.1,90.5,425.2,90.1z"/>
		<path d="M429,82.7h2.9v10.3H429V82.7z"/>
		<path d="M436.3,88l-2.7-0.3c0.1-0.5,0.3-0.9,0.4-1.1c0.2-0.3,0.5-0.5,0.8-0.7c0.3-0.1,0.6-0.3,1.1-0.3c0.5-0.1,1-0.1,1.5-0.1
			c0.9,0,1.6,0,2.1,0.1c0.5,0.1,1,0.3,1.3,0.6c0.2,0.2,0.4,0.5,0.6,0.9c0.1,0.4,0.2,0.8,0.2,1.1v3.3c0,0.4,0,0.6,0.1,0.8
			c0,0.2,0.1,0.5,0.3,0.8h-2.7c-0.1-0.2-0.2-0.3-0.2-0.4s-0.1-0.3-0.1-0.5c-0.4,0.4-0.7,0.6-1.1,0.8c-0.5,0.2-1.1,0.3-1.8,0.3
			c-0.9,0-1.6-0.2-2-0.6c-0.5-0.4-0.7-0.9-0.7-1.5c0-0.6,0.2-1,0.5-1.4s0.9-0.6,1.8-0.8c1.1-0.2,1.8-0.4,2.1-0.5s0.7-0.2,1-0.3
			c0-0.4-0.1-0.6-0.2-0.7c-0.1-0.1-0.4-0.2-0.8-0.2c-0.5,0-0.8,0.1-1.1,0.2C436.6,87.5,436.4,87.7,436.3,88z M438.8,89.5
			c-0.4,0.1-0.8,0.3-1.2,0.4c-0.6,0.2-1,0.3-1.1,0.5c-0.2,0.2-0.2,0.3-0.2,0.5c0,0.2,0.1,0.4,0.2,0.6c0.2,0.1,0.4,0.2,0.7,0.2
			c0.3,0,0.6-0.1,0.9-0.2c0.3-0.2,0.5-0.3,0.6-0.6c0.1-0.2,0.2-0.5,0.2-0.9V89.5z"/>
		<path d="M443.4,82.7h2.9v2h-2.9V82.7z M443.4,85.6h2.9v7.5h-2.9V85.6z"/>
		<path d="M448.2,85.6h2.7v1.1c0.4-0.5,0.8-0.8,1.2-1c0.4-0.2,0.9-0.3,1.4-0.3c0.6,0,1.1,0.1,1.4,0.3c0.3,0.2,0.6,0.5,0.9,0.9
			c0.5-0.5,0.9-0.8,1.2-1c0.4-0.2,0.8-0.3,1.4-0.3c0.8,0,1.4,0.2,1.9,0.7c0.5,0.5,0.7,1.2,0.7,2.2v4.7H458v-4.3
			c0-0.3-0.1-0.6-0.2-0.8c-0.2-0.3-0.4-0.4-0.7-0.4c-0.3,0-0.6,0.1-0.8,0.4c-0.2,0.2-0.3,0.6-0.3,1.2v3.9h-2.9v-4.1
			c0-0.3,0-0.6-0.1-0.7c-0.1-0.2-0.2-0.3-0.3-0.5c-0.2-0.1-0.3-0.2-0.5-0.2c-0.3,0-0.6,0.1-0.8,0.4c-0.2,0.2-0.3,0.7-0.3,1.2v3.8
			h-2.9V85.6z"/>
		<path d="M462.1,91l2.8-0.3c0.1,0.3,0.3,0.6,0.5,0.7c0.2,0.1,0.5,0.2,0.8,0.2c0.4,0,0.7-0.1,0.9-0.2c0.2-0.1,0.2-0.3,0.2-0.5
			c0-0.2-0.1-0.4-0.3-0.5c-0.2-0.1-0.6-0.2-1.2-0.3c-1-0.2-1.7-0.3-2.1-0.5c-0.4-0.1-0.7-0.4-1-0.8c-0.3-0.4-0.4-0.8-0.4-1.2
			c0-0.5,0.1-0.9,0.4-1.3c0.3-0.4,0.7-0.6,1.2-0.8c0.5-0.2,1.2-0.3,2-0.3c0.9,0,1.6,0.1,2,0.2c0.4,0.1,0.8,0.3,1.1,0.6
			s0.5,0.7,0.7,1.2l-2.7,0.3c-0.1-0.2-0.2-0.4-0.4-0.5c-0.2-0.2-0.5-0.2-0.8-0.2c-0.3,0-0.6,0.1-0.7,0.2c-0.1,0.1-0.2,0.3-0.2,0.4
			c0,0.2,0.1,0.3,0.3,0.4s0.6,0.2,1.2,0.3c1,0.1,1.7,0.3,2.1,0.5s0.8,0.5,1.1,0.8c0.2,0.4,0.4,0.7,0.4,1.2c0,0.4-0.1,0.9-0.4,1.3
			c-0.3,0.4-0.7,0.7-1.2,1s-1.3,0.4-2.3,0.4c-1.4,0-2.3-0.2-2.9-0.6C462.6,92.3,462.2,91.7,462.1,91z"/>
		<path d="M476.2,82.7h2.9v3.8c0.4-0.4,0.8-0.7,1.2-0.9c0.4-0.2,0.8-0.3,1.4-0.3c0.8,0,1.4,0.2,1.8,0.7c0.4,0.5,0.7,1.2,0.7,2.2v4.8
			h-2.9V89c0-0.5-0.1-0.8-0.3-1c-0.2-0.2-0.4-0.3-0.7-0.3c-0.3,0-0.6,0.1-0.8,0.4c-0.2,0.3-0.3,0.7-0.3,1.4v3.6h-2.9V82.7z"/>
		<path d="M485.9,82.7h2.9v2h-2.9V82.7z M485.9,85.6h2.9v7.5h-2.9V85.6z"/>
		<path d="M490.1,91l2.8-0.3c0.1,0.3,0.3,0.6,0.5,0.7c0.2,0.1,0.5,0.2,0.8,0.2c0.4,0,0.7-0.1,0.9-0.2c0.2-0.1,0.2-0.3,0.2-0.5
			c0-0.2-0.1-0.4-0.3-0.5c-0.2-0.1-0.6-0.2-1.2-0.3c-1-0.2-1.7-0.3-2.1-0.5c-0.4-0.1-0.7-0.4-1-0.8c-0.3-0.4-0.4-0.8-0.4-1.2
			c0-0.5,0.1-0.9,0.4-1.3c0.3-0.4,0.7-0.6,1.2-0.8c0.5-0.2,1.2-0.3,2-0.3c0.9,0,1.6,0.1,2,0.2c0.4,0.1,0.8,0.3,1.1,0.6
			s0.5,0.7,0.7,1.2l-2.7,0.3c-0.1-0.2-0.2-0.4-0.4-0.5c-0.2-0.2-0.5-0.2-0.8-0.2c-0.3,0-0.6,0.1-0.7,0.2c-0.1,0.1-0.2,0.3-0.2,0.4
			c0,0.2,0.1,0.3,0.3,0.4s0.6,0.2,1.2,0.3c1,0.1,1.7,0.3,2.1,0.5s0.8,0.5,1.1,0.8c0.2,0.4,0.4,0.7,0.4,1.2c0,0.4-0.1,0.9-0.4,1.3
			c-0.3,0.4-0.7,0.7-1.2,1s-1.3,0.4-2.3,0.4c-1.4,0-2.3-0.2-2.9-0.6C490.7,92.3,490.3,91.7,490.1,91z"/>
		<path d="M502.9,82.7v2.8h1.6v2.1h-1.6v2.7c0,0.3,0,0.5,0.1,0.6c0.1,0.2,0.3,0.2,0.5,0.2c0.2,0,0.5-0.1,0.9-0.2l0.2,2
			c-0.7,0.2-1.4,0.2-2,0.2c-0.7,0-1.2-0.1-1.6-0.3s-0.6-0.5-0.8-0.8c-0.2-0.4-0.2-1-0.2-1.8v-2.6H499v-2.1h1.1v-1.4L502.9,82.7z"/>
		<path d="M505.5,89.3c0-1.1,0.4-2.1,1.2-2.8c0.8-0.7,1.8-1.1,3.1-1.1c1.5,0,2.6,0.4,3.4,1.3c0.6,0.7,0.9,1.6,0.9,2.6
			c0,1.2-0.4,2.1-1.1,2.8s-1.8,1.1-3.2,1.1c-1.2,0-2.2-0.3-2.9-0.9C506,91.6,505.5,90.6,505.5,89.3z M508.4,89.3
			c0,0.7,0.1,1.2,0.4,1.5s0.6,0.5,1,0.5c0.4,0,0.8-0.2,1-0.5c0.3-0.3,0.4-0.8,0.4-1.5c0-0.6-0.1-1.1-0.4-1.4s-0.6-0.5-1-0.5
			c-0.4,0-0.8,0.2-1,0.5C508.5,88.2,508.4,88.7,508.4,89.3z"/>
		<path d="M515.5,85.6h2.7v1.2c0.3-0.5,0.5-0.9,0.8-1.1c0.3-0.2,0.6-0.3,1-0.3c0.4,0,0.9,0.1,1.4,0.4l-0.9,2
			c-0.3-0.1-0.6-0.2-0.8-0.2c-0.4,0-0.7,0.2-0.9,0.5c-0.3,0.4-0.4,1.3-0.4,2.5v2.5h-2.9V85.6z"/>
		<path d="M521.9,85.6h3l1.5,5l1.4-5h2.8l-3,8c-0.3,0.9-0.7,1.5-1,1.8c-0.5,0.5-1.3,0.7-2.3,0.7c-0.4,0-1.1-0.1-1.9-0.2l-0.2-2
			c0.4,0.1,0.9,0.2,1.4,0.2c0.3,0,0.6-0.1,0.8-0.2s0.4-0.4,0.5-0.8L521.9,85.6z"/>
	</g>
</g>
<rect x="429.6" y="111" class="st82" width="117.1" height="14.2"/>
<g class="st83">
	<path class="st50" d="M430.3,118.2V111h1.4l2.9,4.8V111h1.3v7.2h-1.5l-2.9-4.7v4.7H430.3z"/>
	<path class="st50" d="M440.5,116.5l1.4,0.2c-0.2,0.5-0.5,0.9-0.8,1.1c-0.4,0.3-0.9,0.4-1.4,0.4c-0.9,0-1.6-0.3-2-0.9
		c-0.3-0.5-0.5-1.1-0.5-1.8c0-0.9,0.2-1.5,0.7-2c0.4-0.5,1-0.7,1.7-0.7c0.8,0,1.4,0.3,1.8,0.8c0.4,0.5,0.7,1.3,0.6,2.3h-3.4
		c0,0.4,0.1,0.7,0.3,0.9c0.2,0.2,0.5,0.3,0.8,0.3c0.2,0,0.4-0.1,0.5-0.2S440.5,116.8,440.5,116.5z M440.6,115.1
		c0-0.4-0.1-0.7-0.3-0.9c-0.2-0.2-0.4-0.3-0.7-0.3c-0.3,0-0.5,0.1-0.7,0.3s-0.3,0.5-0.3,0.9H440.6z"/>
	<path class="st50" d="M444.1,118.2l-1.6-5.2h1.3l1,3.4l0.9-3.4h1.3l0.9,3.4l1-3.4h1.4l-1.7,5.2h-1.3l-0.9-3.3l-0.9,3.3H444.1z"/>
	<path class="st50" d="M453.7,111h2.6c0.6,0,1,0,1.4,0.1c0.4,0.1,0.8,0.3,1.1,0.7s0.5,0.7,0.7,1.2c0.2,0.5,0.2,1,0.2,1.7
		c0,0.6-0.1,1.1-0.2,1.5c-0.2,0.5-0.4,0.9-0.8,1.3c-0.3,0.2-0.6,0.4-1,0.6c-0.3,0.1-0.7,0.2-1.3,0.2h-2.7V111z M455.1,112.2v4.7h1.1
		c0.4,0,0.7,0,0.9-0.1c0.2-0.1,0.4-0.2,0.6-0.3c0.2-0.1,0.3-0.4,0.4-0.7c0.1-0.3,0.1-0.8,0.1-1.3s0-1-0.1-1.3s-0.2-0.5-0.4-0.7
		s-0.4-0.3-0.7-0.3c-0.2,0-0.6-0.1-1.2-0.1H455.1z"/>
	<path class="st50" d="M460.9,112.3V111h1.4v1.3H460.9z M460.9,118.2V113h1.4v5.2H460.9z"/>
	<path class="st50" d="M464.7,114.6l-1.2-0.2c0.1-0.5,0.4-0.9,0.7-1.1s0.8-0.4,1.5-0.4c0.6,0,1.1,0.1,1.4,0.2
		c0.3,0.1,0.5,0.3,0.6,0.6c0.1,0.2,0.2,0.6,0.2,1.2l0,1.6c0,0.5,0,0.8,0.1,1c0,0.2,0.1,0.4,0.2,0.7h-1.4c0-0.1-0.1-0.2-0.1-0.4
		c0-0.1,0-0.1,0-0.2c-0.2,0.2-0.5,0.4-0.8,0.5s-0.6,0.2-0.9,0.2c-0.5,0-1-0.1-1.3-0.4c-0.3-0.3-0.5-0.7-0.5-1.1
		c0-0.3,0.1-0.6,0.2-0.8c0.1-0.2,0.3-0.4,0.6-0.5c0.3-0.1,0.6-0.2,1.1-0.3c0.6-0.1,1.1-0.2,1.3-0.3v-0.1c0-0.3-0.1-0.5-0.2-0.6
		c-0.1-0.1-0.4-0.2-0.7-0.2c-0.2,0-0.4,0-0.6,0.1C464.9,114.2,464.8,114.3,464.7,114.6z M466.5,115.7c-0.2,0.1-0.5,0.1-0.8,0.2
		s-0.6,0.2-0.7,0.2c-0.2,0.1-0.3,0.3-0.3,0.5c0,0.2,0.1,0.4,0.2,0.5s0.3,0.2,0.5,0.2c0.2,0,0.5-0.1,0.7-0.2c0.2-0.1,0.3-0.3,0.3-0.5
		c0-0.1,0.1-0.3,0.1-0.7V115.7z"/>
	<path class="st50" d="M469.1,118.5l1.6,0.2c0,0.2,0.1,0.3,0.2,0.4c0.1,0.1,0.3,0.1,0.6,0.1c0.4,0,0.6-0.1,0.8-0.2
		c0.1-0.1,0.2-0.2,0.3-0.3c0-0.1,0.1-0.3,0.1-0.6v-0.8c-0.4,0.6-0.9,0.8-1.6,0.8c-0.7,0-1.2-0.3-1.7-0.9c-0.3-0.5-0.5-1-0.5-1.7
		c0-0.9,0.2-1.5,0.6-2c0.4-0.5,0.9-0.7,1.6-0.7c0.6,0,1.2,0.3,1.6,0.8V113h1.3v4.7c0,0.6-0.1,1.1-0.2,1.4s-0.2,0.5-0.4,0.7
		s-0.4,0.3-0.7,0.4c-0.3,0.1-0.7,0.1-1.2,0.1c-0.9,0-1.5-0.2-1.9-0.5c-0.4-0.3-0.6-0.7-0.6-1.1C469.1,118.6,469.1,118.6,469.1,118.5
		z M470.3,115.5c0,0.5,0.1,1,0.3,1.2c0.2,0.3,0.5,0.4,0.8,0.4c0.3,0,0.6-0.1,0.8-0.4c0.2-0.3,0.3-0.6,0.3-1.2c0-0.5-0.1-0.9-0.3-1.2
		s-0.5-0.4-0.8-0.4c-0.3,0-0.6,0.1-0.8,0.4C470.4,114.6,470.3,115,470.3,115.5z"/>
	<path class="st50" d="M480,118.2h-1.4v-2.6c0-0.6,0-0.9-0.1-1.1c-0.1-0.2-0.2-0.3-0.3-0.4c-0.1-0.1-0.3-0.1-0.5-0.1
		c-0.2,0-0.5,0.1-0.6,0.2s-0.3,0.3-0.4,0.5c-0.1,0.2-0.1,0.6-0.1,1.2v2.3h-1.4V113h1.3v0.8c0.5-0.6,1-0.9,1.7-0.9
		c0.3,0,0.6,0.1,0.8,0.2c0.3,0.1,0.4,0.2,0.6,0.4c0.1,0.2,0.2,0.4,0.3,0.6c0,0.2,0.1,0.5,0.1,0.9V118.2z"/>
	<path class="st50" d="M481.1,115.5c0-0.5,0.1-0.9,0.3-1.3s0.5-0.8,1-1c0.4-0.2,0.9-0.3,1.4-0.3c0.8,0,1.4,0.3,1.9,0.8
		c0.5,0.5,0.8,1.2,0.8,1.9c0,0.8-0.3,1.4-0.8,2c-0.5,0.5-1.1,0.8-1.9,0.8c-0.5,0-0.9-0.1-1.4-0.3c-0.4-0.2-0.8-0.5-1-0.9
		C481.2,116.6,481.1,116.1,481.1,115.5z M482.5,115.6c0,0.5,0.1,0.9,0.4,1.2s0.5,0.4,0.9,0.4s0.7-0.1,0.9-0.4
		c0.2-0.3,0.4-0.7,0.4-1.2c0-0.5-0.1-0.9-0.4-1.2c-0.2-0.3-0.5-0.4-0.9-0.4s-0.7,0.1-0.9,0.4S482.5,115.1,482.5,115.6z"/>
	<path class="st50" d="M487,116.7l1.4-0.2c0.1,0.3,0.2,0.5,0.4,0.6c0.2,0.1,0.4,0.2,0.8,0.2c0.4,0,0.6-0.1,0.8-0.2
		c0.1-0.1,0.2-0.2,0.2-0.4c0-0.1,0-0.2-0.1-0.3c-0.1-0.1-0.2-0.1-0.5-0.2c-1.1-0.2-1.8-0.5-2.1-0.7c-0.4-0.3-0.6-0.7-0.6-1.2
		c0-0.4,0.2-0.8,0.5-1.1s0.9-0.5,1.7-0.5c0.7,0,1.2,0.1,1.6,0.3s0.6,0.6,0.7,1l-1.3,0.2c-0.1-0.2-0.2-0.4-0.3-0.5
		c-0.2-0.1-0.4-0.2-0.7-0.2c-0.4,0-0.6,0.1-0.8,0.2c-0.1,0.1-0.2,0.2-0.2,0.3c0,0.1,0,0.2,0.1,0.2c0.1,0.1,0.6,0.2,1.3,0.4
		c0.7,0.2,1.2,0.4,1.5,0.6c0.3,0.2,0.4,0.6,0.4,1c0,0.5-0.2,0.9-0.6,1.2s-1,0.5-1.8,0.5c-0.7,0-1.3-0.1-1.7-0.4
		C487.4,117.6,487.2,117.2,487,116.7z"/>
	<path class="st50" d="M496.1,116.5l1.4,0.2c-0.2,0.5-0.5,0.9-0.8,1.1c-0.4,0.3-0.9,0.4-1.4,0.4c-0.9,0-1.6-0.3-2-0.9
		c-0.3-0.5-0.5-1.1-0.5-1.8c0-0.9,0.2-1.5,0.7-2c0.4-0.5,1-0.7,1.7-0.7c0.8,0,1.4,0.3,1.8,0.8c0.4,0.5,0.7,1.3,0.6,2.3h-3.4
		c0,0.4,0.1,0.7,0.3,0.9c0.2,0.2,0.5,0.3,0.8,0.3c0.2,0,0.4-0.1,0.5-0.2S496,116.8,496.1,116.5z M496.2,115.1c0-0.4-0.1-0.7-0.3-0.9
		c-0.2-0.2-0.4-0.3-0.7-0.3c-0.3,0-0.5,0.1-0.7,0.3s-0.3,0.5-0.3,0.9H496.2z"/>
	<path class="st50" d="M498.2,116.7l1.4-0.2c0.1,0.3,0.2,0.5,0.4,0.6c0.2,0.1,0.4,0.2,0.8,0.2c0.4,0,0.6-0.1,0.8-0.2
		c0.1-0.1,0.2-0.2,0.2-0.4c0-0.1,0-0.2-0.1-0.3c-0.1-0.1-0.2-0.1-0.5-0.2c-1.1-0.2-1.8-0.5-2.1-0.7c-0.4-0.3-0.6-0.7-0.6-1.2
		c0-0.4,0.2-0.8,0.5-1.1s0.9-0.5,1.7-0.5c0.7,0,1.2,0.1,1.6,0.3s0.6,0.6,0.7,1l-1.3,0.2c-0.1-0.2-0.2-0.4-0.3-0.5
		c-0.2-0.1-0.4-0.2-0.7-0.2c-0.4,0-0.6,0.1-0.8,0.2c-0.1,0.1-0.2,0.2-0.2,0.3c0,0.1,0,0.2,0.1,0.2c0.1,0.1,0.6,0.2,1.3,0.4
		c0.7,0.2,1.2,0.4,1.5,0.6c0.3,0.2,0.4,0.6,0.4,1c0,0.5-0.2,0.9-0.6,1.2s-1,0.5-1.8,0.5c-0.7,0-1.3-0.1-1.7-0.4
		C498.6,117.6,498.3,117.2,498.2,116.7z"/>
</g>
<rect x="429.6" y="131.2" class="st82" width="117.1" height="14.2"/>
<g class="st83">
	<path class="st50" d="M430.3,138.4v-7.2h2.2l1.3,4.9l1.3-4.9h2.2v7.2h-1.3v-5.6l-1.4,5.6h-1.4l-1.4-5.6v5.6H430.3z"/>
	<path class="st50" d="M441.6,136.8l1.4,0.2c-0.2,0.5-0.5,0.9-0.8,1.1c-0.4,0.3-0.9,0.4-1.4,0.4c-0.9,0-1.6-0.3-2-0.9
		c-0.3-0.5-0.5-1.1-0.5-1.8c0-0.9,0.2-1.5,0.7-2c0.4-0.5,1-0.7,1.7-0.7c0.8,0,1.4,0.3,1.8,0.8c0.4,0.5,0.7,1.3,0.6,2.3h-3.4
		c0,0.4,0.1,0.7,0.3,0.9c0.2,0.2,0.5,0.3,0.8,0.3c0.2,0,0.4-0.1,0.5-0.2S441.6,137,441.6,136.8z M441.7,135.4c0-0.4-0.1-0.7-0.3-0.9
		c-0.2-0.2-0.4-0.3-0.7-0.3c-0.3,0-0.5,0.1-0.7,0.3s-0.3,0.5-0.3,0.9H441.7z"/>
	<path class="st50" d="M449,138.4h-1.3v-0.8c-0.2,0.3-0.5,0.5-0.8,0.7c-0.3,0.1-0.6,0.2-0.9,0.2c-0.6,0-1.1-0.2-1.5-0.7
		c-0.4-0.5-0.6-1.1-0.6-2c0-0.9,0.2-1.5,0.6-2c0.4-0.5,0.9-0.7,1.6-0.7c0.6,0,1.1,0.2,1.5,0.7v-2.6h1.4V138.4z M445.3,135.7
		c0,0.6,0.1,1,0.2,1.2c0.2,0.4,0.5,0.5,0.9,0.5c0.3,0,0.6-0.1,0.8-0.4c0.2-0.3,0.3-0.7,0.3-1.2c0-0.6-0.1-1-0.3-1.3
		c-0.2-0.3-0.5-0.4-0.8-0.4c-0.3,0-0.6,0.1-0.8,0.4C445.4,134.8,445.3,135.2,445.3,135.7z"/>
	<path class="st50" d="M450.3,132.5v-1.3h1.4v1.3H450.3z M450.3,138.4v-5.2h1.4v5.2H450.3z"/>
	<path class="st50" d="M457.6,134.8l-1.4,0.2c0-0.3-0.1-0.5-0.3-0.6c-0.2-0.1-0.4-0.2-0.6-0.2c-0.3,0-0.6,0.1-0.8,0.4
		c-0.2,0.2-0.3,0.6-0.3,1.2c0,0.6,0.1,1,0.3,1.3c0.2,0.3,0.5,0.4,0.8,0.4c0.3,0,0.5-0.1,0.6-0.2c0.2-0.1,0.3-0.4,0.4-0.8l1.3,0.2
		c-0.1,0.6-0.4,1.1-0.8,1.4s-0.9,0.5-1.6,0.5c-0.8,0-1.4-0.2-1.8-0.7c-0.5-0.5-0.7-1.1-0.7-2c0-0.9,0.2-1.5,0.7-2
		c0.5-0.5,1.1-0.7,1.8-0.7c0.6,0,1.1,0.1,1.5,0.4C457.2,133.8,457.4,134.2,457.6,134.8z"/>
	<path class="st50" d="M459.7,134.8l-1.2-0.2c0.1-0.5,0.4-0.9,0.7-1.1s0.8-0.4,1.5-0.4c0.6,0,1.1,0.1,1.4,0.2
		c0.3,0.1,0.5,0.3,0.6,0.6c0.1,0.2,0.2,0.6,0.2,1.2l0,1.6c0,0.5,0,0.8,0.1,1c0,0.2,0.1,0.4,0.2,0.7h-1.4c0-0.1-0.1-0.2-0.1-0.4
		c0-0.1,0-0.1,0-0.2c-0.2,0.2-0.5,0.4-0.8,0.5s-0.6,0.2-0.9,0.2c-0.5,0-1-0.1-1.3-0.4c-0.3-0.3-0.5-0.7-0.5-1.1
		c0-0.3,0.1-0.6,0.2-0.8c0.1-0.2,0.3-0.4,0.6-0.5c0.3-0.1,0.6-0.2,1.1-0.3c0.6-0.1,1.1-0.2,1.3-0.3v-0.1c0-0.3-0.1-0.5-0.2-0.6
		c-0.1-0.1-0.4-0.2-0.7-0.2c-0.2,0-0.4,0-0.6,0.1C459.9,134.4,459.8,134.6,459.7,134.8z M461.5,135.9c-0.2,0.1-0.5,0.1-0.8,0.2
		s-0.6,0.2-0.7,0.2c-0.2,0.1-0.3,0.3-0.3,0.5c0,0.2,0.1,0.4,0.2,0.5s0.3,0.2,0.5,0.2c0.2,0,0.5-0.1,0.7-0.2c0.2-0.1,0.3-0.3,0.3-0.5
		c0-0.1,0.1-0.3,0.1-0.7V135.9z"/>
	<path class="st50" d="M466.6,133.2v1.1h-0.9v2.1c0,0.4,0,0.7,0,0.7c0,0.1,0.1,0.1,0.1,0.2c0.1,0,0.1,0.1,0.2,0.1
		c0.1,0,0.3,0,0.6-0.1l0.1,1.1c-0.3,0.1-0.7,0.2-1.1,0.2c-0.2,0-0.5,0-0.7-0.1c-0.2-0.1-0.3-0.2-0.4-0.3c-0.1-0.1-0.2-0.3-0.2-0.5
		c0-0.2,0-0.5,0-1v-2.3h-0.6v-1.1h0.6v-1l1.4-0.8v1.8H466.6z"/>
	<path class="st50" d="M467.5,132.5v-1.3h1.4v1.3H467.5z M467.5,138.4v-5.2h1.4v5.2H467.5z"/>
	<path class="st50" d="M470,135.7c0-0.5,0.1-0.9,0.3-1.3s0.5-0.8,1-1c0.4-0.2,0.9-0.3,1.4-0.3c0.8,0,1.4,0.3,1.9,0.8
		c0.5,0.5,0.8,1.2,0.8,1.9c0,0.8-0.3,1.4-0.8,2c-0.5,0.5-1.1,0.8-1.9,0.8c-0.5,0-0.9-0.1-1.4-0.3c-0.4-0.2-0.8-0.5-1-0.9
		C470.1,136.8,470,136.3,470,135.7z M471.4,135.8c0,0.5,0.1,0.9,0.4,1.2s0.5,0.4,0.9,0.4s0.7-0.1,0.9-0.4c0.2-0.3,0.4-0.7,0.4-1.2
		c0-0.5-0.1-0.9-0.4-1.2c-0.2-0.3-0.5-0.4-0.9-0.4s-0.7,0.1-0.9,0.4S471.4,135.3,471.4,135.8z"/>
	<path class="st50" d="M481.1,138.4h-1.4v-2.6c0-0.6,0-0.9-0.1-1.1c-0.1-0.2-0.2-0.3-0.3-0.4c-0.1-0.1-0.3-0.1-0.5-0.1
		c-0.2,0-0.5,0.1-0.6,0.2s-0.3,0.3-0.4,0.5c-0.1,0.2-0.1,0.6-0.1,1.2v2.3h-1.4v-5.2h1.3v0.8c0.5-0.6,1-0.9,1.7-0.9
		c0.3,0,0.6,0.1,0.8,0.2c0.3,0.1,0.4,0.2,0.6,0.4c0.1,0.2,0.2,0.4,0.3,0.6c0,0.2,0.1,0.5,0.1,0.9V138.4z"/>
	<path class="st50" d="M482,136.9l1.4-0.2c0.1,0.3,0.2,0.5,0.4,0.6c0.2,0.1,0.4,0.2,0.8,0.2c0.4,0,0.6-0.1,0.8-0.2
		c0.1-0.1,0.2-0.2,0.2-0.4c0-0.1,0-0.2-0.1-0.3c-0.1-0.1-0.2-0.1-0.5-0.2c-1.1-0.2-1.8-0.5-2.1-0.7c-0.4-0.3-0.6-0.7-0.6-1.2
		c0-0.4,0.2-0.8,0.5-1.1s0.9-0.5,1.7-0.5c0.7,0,1.2,0.1,1.6,0.3s0.6,0.6,0.7,1l-1.3,0.2c-0.1-0.2-0.2-0.4-0.3-0.5
		c-0.2-0.1-0.4-0.2-0.7-0.2c-0.4,0-0.6,0.1-0.8,0.2c-0.1,0.1-0.2,0.2-0.2,0.3c0,0.1,0,0.2,0.1,0.2c0.1,0.1,0.6,0.2,1.3,0.4
		c0.7,0.2,1.2,0.4,1.5,0.6c0.3,0.2,0.4,0.6,0.4,1c0,0.5-0.2,0.9-0.6,1.2s-1,0.5-1.8,0.5c-0.7,0-1.3-0.1-1.7-0.4
		C482.4,137.8,482.2,137.4,482,136.9z"/>
</g>
<rect x="429.6" y="152.1" class="st82" width="117.1" height="14.2"/>
<g class="st83">
	<path class="st50" d="M434.9,156.7l1.4,0.4c-0.2,0.8-0.6,1.4-1.1,1.7c-0.5,0.4-1.1,0.6-1.9,0.6c-1,0-1.7-0.3-2.3-1
		c-0.6-0.7-0.9-1.5-0.9-2.7c0-1.2,0.3-2.1,0.9-2.8c0.6-0.7,1.4-1,2.4-1c0.9,0,1.6,0.3,2.1,0.8c0.3,0.3,0.6,0.7,0.7,1.3l-1.4,0.3
		c-0.1-0.4-0.3-0.7-0.5-0.9s-0.6-0.3-1-0.3c-0.5,0-1,0.2-1.3,0.6c-0.3,0.4-0.5,1-0.5,1.9c0,0.9,0.2,1.5,0.5,1.9
		c0.3,0.4,0.7,0.6,1.3,0.6c0.4,0,0.7-0.1,1-0.4C434.6,157.6,434.8,157.2,434.9,156.7z"/>
	<path class="st50" d="M437.2,156.6c0-0.5,0.1-0.9,0.3-1.3s0.5-0.8,1-1c0.4-0.2,0.9-0.3,1.4-0.3c0.8,0,1.4,0.3,1.9,0.8
		c0.5,0.5,0.8,1.2,0.8,1.9c0,0.8-0.3,1.4-0.8,2c-0.5,0.5-1.1,0.8-1.9,0.8c-0.5,0-0.9-0.1-1.4-0.3c-0.4-0.2-0.8-0.5-1-0.9
		C437.3,157.7,437.2,157.2,437.2,156.6z M438.6,156.7c0,0.5,0.1,0.9,0.4,1.2s0.5,0.4,0.9,0.4c0.4,0,0.7-0.1,0.9-0.4
		c0.2-0.3,0.4-0.7,0.4-1.2c0-0.5-0.1-0.9-0.4-1.2c-0.2-0.3-0.5-0.4-0.9-0.4c-0.4,0-0.7,0.1-0.9,0.4S438.6,156.2,438.6,156.7z"/>
	<path class="st50" d="M443.5,154.1h1.3v0.7c0.5-0.5,1-0.8,1.6-0.8c0.3,0,0.6,0.1,0.9,0.2s0.4,0.3,0.6,0.6c0.2-0.3,0.5-0.5,0.7-0.6
		s0.5-0.2,0.8-0.2c0.4,0,0.7,0.1,1,0.2c0.3,0.2,0.5,0.4,0.6,0.7c0.1,0.2,0.1,0.6,0.1,1.1v3.3h-1.4v-3c0-0.5,0-0.8-0.1-1
		c-0.1-0.2-0.3-0.3-0.6-0.3c-0.2,0-0.4,0.1-0.5,0.2s-0.3,0.3-0.4,0.5c-0.1,0.2-0.1,0.6-0.1,1.1v2.5h-1.4v-2.8c0-0.5,0-0.8-0.1-1
		s-0.1-0.3-0.2-0.3c-0.1-0.1-0.2-0.1-0.4-0.1c-0.2,0-0.4,0.1-0.6,0.2s-0.3,0.3-0.4,0.5c-0.1,0.2-0.1,0.6-0.1,1.1v2.5h-1.4V154.1z"/>
	<path class="st50" d="M452.5,154.1h1.3v0.8c0.2-0.3,0.4-0.5,0.7-0.6s0.6-0.2,0.9-0.2c0.6,0,1.1,0.2,1.5,0.7s0.6,1.1,0.6,2
		c0,0.9-0.2,1.5-0.6,2c-0.4,0.5-0.9,0.7-1.5,0.7c-0.3,0-0.5-0.1-0.8-0.2c-0.2-0.1-0.5-0.3-0.7-0.6v2.6h-1.4V154.1z M453.8,156.6
		c0,0.6,0.1,1,0.3,1.3c0.2,0.3,0.5,0.4,0.8,0.4c0.3,0,0.6-0.1,0.8-0.4c0.2-0.3,0.3-0.7,0.3-1.3c0-0.5-0.1-0.9-0.3-1.2
		s-0.5-0.4-0.8-0.4c-0.3,0-0.6,0.1-0.8,0.4C454,155.7,453.8,156.1,453.8,156.6z"/>
	<path class="st50" d="M458.6,159.3v-7.2h1.4v7.2H458.6z"/>
	<path class="st50" d="M464.4,157.6l1.4,0.2c-0.2,0.5-0.5,0.9-0.8,1.1c-0.4,0.3-0.9,0.4-1.4,0.4c-0.9,0-1.6-0.3-2-0.9
		c-0.3-0.5-0.5-1.1-0.5-1.8c0-0.9,0.2-1.5,0.7-2c0.4-0.5,1-0.7,1.7-0.7c0.8,0,1.4,0.3,1.8,0.8c0.4,0.5,0.7,1.3,0.6,2.3h-3.4
		c0,0.4,0.1,0.7,0.3,0.9c0.2,0.2,0.5,0.3,0.8,0.3c0.2,0,0.4-0.1,0.5-0.2S464.3,157.9,464.4,157.6z M464.5,156.3
		c0-0.4-0.1-0.7-0.3-0.9c-0.2-0.2-0.4-0.3-0.7-0.3c-0.3,0-0.5,0.1-0.7,0.3s-0.3,0.5-0.3,0.9H464.5z"/>
	<path class="st50" d="M469.4,154.1v1.1h-0.9v2.1c0,0.4,0,0.7,0,0.7c0,0.1,0.1,0.1,0.1,0.2c0.1,0,0.1,0.1,0.2,0.1
		c0.1,0,0.3,0,0.6-0.1l0.1,1.1c-0.3,0.1-0.7,0.2-1.1,0.2c-0.2,0-0.5,0-0.7-0.1c-0.2-0.1-0.3-0.2-0.4-0.3c-0.1-0.1-0.2-0.3-0.2-0.5
		c0-0.2,0-0.5,0-1v-2.3h-0.6v-1.1h0.6v-1l1.4-0.8v1.8H469.4z"/>
	<path class="st50" d="M473.3,157.6l1.4,0.2c-0.2,0.5-0.5,0.9-0.8,1.1c-0.4,0.3-0.9,0.4-1.4,0.4c-0.9,0-1.6-0.3-2-0.9
		c-0.3-0.5-0.5-1.1-0.5-1.8c0-0.9,0.2-1.5,0.7-2c0.4-0.5,1-0.7,1.7-0.7c0.8,0,1.4,0.3,1.8,0.8c0.4,0.5,0.7,1.3,0.6,2.3h-3.4
		c0,0.4,0.1,0.7,0.3,0.9c0.2,0.2,0.5,0.3,0.8,0.3c0.2,0,0.4-0.1,0.5-0.2S473.2,157.9,473.3,157.6z M473.4,156.3
		c0-0.4-0.1-0.7-0.3-0.9c-0.2-0.2-0.4-0.3-0.7-0.3c-0.3,0-0.5,0.1-0.7,0.3s-0.3,0.5-0.3,0.9H473.4z"/>
	<path class="st50" d="M480.6,159.3h-1.3v-0.8c-0.2,0.3-0.5,0.5-0.8,0.7c-0.3,0.1-0.6,0.2-0.9,0.2c-0.6,0-1.1-0.2-1.5-0.7
		c-0.4-0.5-0.6-1.1-0.6-2c0-0.9,0.2-1.5,0.6-2c0.4-0.5,0.9-0.7,1.6-0.7c0.6,0,1.1,0.2,1.5,0.7v-2.6h1.4V159.3z M477,156.6
		c0,0.6,0.1,1,0.2,1.2c0.2,0.4,0.5,0.5,0.9,0.5c0.3,0,0.6-0.1,0.8-0.4c0.2-0.3,0.3-0.7,0.3-1.2c0-0.6-0.1-1-0.3-1.3
		c-0.2-0.3-0.5-0.4-0.8-0.4c-0.3,0-0.6,0.1-0.8,0.4C477.1,155.7,477,156.1,477,156.6z"/>
	<path class="st50" d="M484.8,159.3v-7.2h2.3c0.9,0,1.5,0,1.7,0.1c0.4,0.1,0.8,0.3,1,0.7c0.3,0.4,0.4,0.8,0.4,1.4
		c0,0.4-0.1,0.8-0.2,1.1s-0.4,0.5-0.6,0.7c-0.2,0.2-0.5,0.3-0.7,0.3c-0.3,0.1-0.8,0.1-1.5,0.1h-0.9v2.7H484.8z M486.2,153.3v2h0.8
		c0.6,0,1,0,1.1-0.1s0.3-0.2,0.5-0.4c0.1-0.2,0.2-0.3,0.2-0.6c0-0.3-0.1-0.5-0.2-0.6s-0.3-0.3-0.6-0.3c-0.2,0-0.5,0-1,0H486.2z"/>
	<path class="st50" d="M492.7,159.3h-1.4v-5.2h1.3v0.7c0.2-0.3,0.4-0.6,0.6-0.7c0.2-0.1,0.4-0.2,0.6-0.2c0.3,0,0.6,0.1,0.9,0.3
		l-0.4,1.2c-0.2-0.1-0.4-0.2-0.6-0.2c-0.2,0-0.4,0.1-0.5,0.2c-0.1,0.1-0.2,0.3-0.3,0.6c-0.1,0.3-0.1,0.9-0.1,1.7V159.3z"/>
	<path class="st50" d="M495,156.6c0-0.5,0.1-0.9,0.3-1.3s0.5-0.8,1-1c0.4-0.2,0.9-0.3,1.4-0.3c0.8,0,1.4,0.3,1.9,0.8
		c0.5,0.5,0.8,1.2,0.8,1.9c0,0.8-0.3,1.4-0.8,2c-0.5,0.5-1.1,0.8-1.9,0.8c-0.5,0-0.9-0.1-1.4-0.3c-0.4-0.2-0.8-0.5-1-0.9
		C495.1,157.7,495,157.2,495,156.6z M496.4,156.7c0,0.5,0.1,0.9,0.4,1.2s0.5,0.4,0.9,0.4s0.7-0.1,0.9-0.4c0.2-0.3,0.4-0.7,0.4-1.2
		c0-0.5-0.1-0.9-0.4-1.2c-0.2-0.3-0.5-0.4-0.9-0.4s-0.7,0.1-0.9,0.4S496.4,156.2,496.4,156.7z"/>
	<path class="st50" d="M505.9,155.6l-1.4,0.2c0-0.3-0.1-0.5-0.3-0.6c-0.2-0.1-0.4-0.2-0.6-0.2c-0.3,0-0.6,0.1-0.8,0.4
		c-0.2,0.2-0.3,0.6-0.3,1.2c0,0.6,0.1,1,0.3,1.3c0.2,0.3,0.5,0.4,0.8,0.4c0.3,0,0.5-0.1,0.6-0.2c0.2-0.1,0.3-0.4,0.4-0.8l1.3,0.2
		c-0.1,0.6-0.4,1.1-0.8,1.4s-0.9,0.5-1.6,0.5c-0.8,0-1.4-0.2-1.8-0.7c-0.5-0.5-0.7-1.1-0.7-2c0-0.9,0.2-1.5,0.7-2
		c0.5-0.5,1.1-0.7,1.8-0.7c0.6,0,1.1,0.1,1.5,0.4C505.5,154.7,505.8,155.1,505.9,155.6z"/>
	<path class="st50" d="M510,157.6l1.4,0.2c-0.2,0.5-0.5,0.9-0.8,1.1c-0.4,0.3-0.9,0.4-1.4,0.4c-0.9,0-1.6-0.3-2-0.9
		c-0.3-0.5-0.5-1.1-0.5-1.8c0-0.9,0.2-1.5,0.7-2c0.4-0.5,1-0.7,1.7-0.7c0.8,0,1.4,0.3,1.8,0.8c0.4,0.5,0.7,1.3,0.6,2.3H508
		c0,0.4,0.1,0.7,0.3,0.9c0.2,0.2,0.5,0.3,0.8,0.3c0.2,0,0.4-0.1,0.5-0.2S509.9,157.9,510,157.6z M510.1,156.3c0-0.4-0.1-0.7-0.3-0.9
		c-0.2-0.2-0.4-0.3-0.7-0.3c-0.3,0-0.5,0.1-0.7,0.3s-0.3,0.5-0.3,0.9H510.1z"/>
	<path class="st50" d="M517.3,159.3H516v-0.8c-0.2,0.3-0.5,0.5-0.8,0.7c-0.3,0.1-0.6,0.2-0.9,0.2c-0.6,0-1.1-0.2-1.5-0.7
		c-0.4-0.5-0.6-1.1-0.6-2c0-0.9,0.2-1.5,0.6-2c0.4-0.5,0.9-0.7,1.6-0.7c0.6,0,1.1,0.2,1.5,0.7v-2.6h1.4V159.3z M513.6,156.6
		c0,0.6,0.1,1,0.2,1.2c0.2,0.4,0.5,0.5,0.9,0.5c0.3,0,0.6-0.1,0.8-0.4c0.2-0.3,0.3-0.7,0.3-1.2c0-0.6-0.1-1-0.3-1.3
		c-0.2-0.3-0.5-0.4-0.8-0.4c-0.3,0-0.6,0.1-0.8,0.4C513.8,155.7,513.6,156.1,513.6,156.6z"/>
	<path class="st50" d="M522.1,159.3v-0.8c-0.2,0.3-0.4,0.5-0.7,0.7c-0.3,0.2-0.6,0.2-1,0.2c-0.3,0-0.7-0.1-0.9-0.2s-0.5-0.4-0.6-0.6
		s-0.2-0.7-0.2-1.1v-3.3h1.4v2.4c0,0.7,0,1.2,0.1,1.3c0,0.2,0.1,0.3,0.3,0.4c0.1,0.1,0.3,0.1,0.5,0.1c0.2,0,0.4-0.1,0.6-0.2
		c0.2-0.1,0.3-0.3,0.4-0.5c0.1-0.2,0.1-0.7,0.1-1.4v-2.2h1.4v5.2H522.1z"/>
	<path class="st50" d="M526.1,159.3h-1.4v-5.2h1.3v0.7c0.2-0.3,0.4-0.6,0.6-0.7c0.2-0.1,0.4-0.2,0.6-0.2c0.3,0,0.6,0.1,0.9,0.3
		l-0.4,1.2c-0.2-0.1-0.4-0.2-0.6-0.2c-0.2,0-0.4,0.1-0.5,0.2c-0.1,0.1-0.2,0.3-0.3,0.6c-0.1,0.3-0.1,0.9-0.1,1.7V159.3z"/>
	<path class="st50" d="M531.7,157.6l1.4,0.2c-0.2,0.5-0.5,0.9-0.8,1.1c-0.4,0.3-0.9,0.4-1.4,0.4c-0.9,0-1.6-0.3-2-0.9
		c-0.3-0.5-0.5-1.1-0.5-1.8c0-0.9,0.2-1.5,0.7-2c0.4-0.5,1-0.7,1.7-0.7c0.8,0,1.4,0.3,1.8,0.8c0.4,0.5,0.7,1.3,0.6,2.3h-3.4
		c0,0.4,0.1,0.7,0.3,0.9c0.2,0.2,0.5,0.3,0.8,0.3c0.2,0,0.4-0.1,0.5-0.2S531.6,157.9,531.7,157.6z M531.7,156.3
		c0-0.4-0.1-0.7-0.3-0.9c-0.2-0.2-0.4-0.3-0.7-0.3c-0.3,0-0.5,0.1-0.7,0.3s-0.3,0.5-0.3,0.9H531.7z"/>
	<path class="st50" d="M533.7,157.8l1.4-0.2c0.1,0.3,0.2,0.5,0.4,0.6c0.2,0.1,0.4,0.2,0.8,0.2c0.4,0,0.6-0.1,0.8-0.2
		c0.1-0.1,0.2-0.2,0.2-0.4c0-0.1,0-0.2-0.1-0.3c-0.1-0.1-0.2-0.1-0.5-0.2c-1.1-0.2-1.8-0.5-2.1-0.7c-0.4-0.3-0.6-0.7-0.6-1.2
		c0-0.4,0.2-0.8,0.5-1.1s0.9-0.5,1.7-0.5c0.7,0,1.2,0.1,1.6,0.3s0.6,0.6,0.7,1l-1.3,0.2c-0.1-0.2-0.2-0.4-0.3-0.5
		c-0.2-0.1-0.4-0.2-0.7-0.2c-0.4,0-0.6,0.1-0.8,0.2c-0.1,0.1-0.2,0.2-0.2,0.3c0,0.1,0,0.2,0.1,0.2c0.1,0.1,0.6,0.2,1.3,0.4
		c0.7,0.2,1.2,0.4,1.5,0.6c0.3,0.2,0.4,0.6,0.4,1c0,0.5-0.2,0.9-0.6,1.2s-1,0.5-1.8,0.5c-0.7,0-1.3-0.1-1.7-0.4
		C534.1,158.7,533.9,158.3,533.7,157.8z"/>
</g>
<rect x="429.6" y="172.4" class="st82" width="117.1" height="14.2"/>
<g class="st83">
	<path class="st50" d="M430.3,179.5v-7.2h2.3c0.9,0,1.5,0,1.7,0.1c0.4,0.1,0.8,0.3,1,0.7c0.3,0.4,0.4,0.8,0.4,1.4
		c0,0.4-0.1,0.8-0.2,1.1c-0.2,0.3-0.4,0.5-0.6,0.7c-0.2,0.2-0.5,0.3-0.7,0.3c-0.3,0.1-0.8,0.1-1.5,0.1h-0.9v2.7H430.3z M431.8,173.6
		v2h0.8c0.6,0,1,0,1.1-0.1c0.2-0.1,0.3-0.2,0.5-0.4c0.1-0.2,0.2-0.3,0.2-0.6c0-0.3-0.1-0.5-0.2-0.6c-0.2-0.2-0.3-0.3-0.6-0.3
		c-0.2,0-0.5,0-1,0H431.8z"/>
	<path class="st50" d="M438.3,179.5h-1.4v-5.2h1.3v0.7c0.2-0.3,0.4-0.6,0.6-0.7c0.2-0.1,0.4-0.2,0.6-0.2c0.3,0,0.6,0.1,0.9,0.3
		l-0.4,1.2c-0.2-0.1-0.4-0.2-0.6-0.2c-0.2,0-0.4,0.1-0.5,0.2c-0.1,0.1-0.2,0.3-0.3,0.6c-0.1,0.3-0.1,0.9-0.1,1.7V179.5z"/>
	<path class="st50" d="M443.9,177.9l1.4,0.2c-0.2,0.5-0.5,0.9-0.8,1.1c-0.4,0.3-0.9,0.4-1.4,0.4c-0.9,0-1.6-0.3-2-0.9
		c-0.3-0.5-0.5-1.1-0.5-1.8c0-0.9,0.2-1.5,0.7-2c0.4-0.5,1-0.7,1.7-0.7c0.8,0,1.4,0.3,1.8,0.8c0.4,0.5,0.7,1.3,0.6,2.3h-3.4
		c0,0.4,0.1,0.7,0.3,0.9c0.2,0.2,0.5,0.3,0.8,0.3c0.2,0,0.4-0.1,0.5-0.2S443.8,178.1,443.9,177.9z M443.9,176.5
		c0-0.4-0.1-0.7-0.3-0.9c-0.2-0.2-0.4-0.3-0.7-0.3c-0.3,0-0.5,0.1-0.7,0.3s-0.3,0.5-0.3,0.9H443.9z"/>
	<path class="st50" d="M447.9,179.5l-2.1-5.2h1.4l1,2.6l0.3,0.9c0.1-0.2,0.1-0.4,0.1-0.4c0-0.1,0.1-0.3,0.1-0.4l1-2.6h1.4l-2.1,5.2
		H447.9z"/>
	<path class="st50" d="M455,177.9l1.4,0.2c-0.2,0.5-0.5,0.9-0.8,1.1c-0.4,0.3-0.9,0.4-1.4,0.4c-0.9,0-1.6-0.3-2-0.9
		c-0.3-0.5-0.5-1.1-0.5-1.8c0-0.9,0.2-1.5,0.7-2c0.4-0.5,1-0.7,1.7-0.7c0.8,0,1.4,0.3,1.8,0.8c0.4,0.5,0.7,1.3,0.6,2.3H453
		c0,0.4,0.1,0.7,0.3,0.9c0.2,0.2,0.5,0.3,0.8,0.3c0.2,0,0.4-0.1,0.5-0.2S454.9,178.1,455,177.9z M455.1,176.5c0-0.4-0.1-0.7-0.3-0.9
		c-0.2-0.2-0.4-0.3-0.7-0.3c-0.3,0-0.5,0.1-0.7,0.3s-0.3,0.5-0.3,0.9H455.1z"/>
	<path class="st50" d="M462.3,179.5h-1.4v-2.6c0-0.6,0-0.9-0.1-1.1c-0.1-0.2-0.2-0.3-0.3-0.4c-0.1-0.1-0.3-0.1-0.5-0.1
		c-0.2,0-0.5,0.1-0.6,0.2s-0.3,0.3-0.4,0.5c-0.1,0.2-0.1,0.6-0.1,1.2v2.3h-1.4v-5.2h1.3v0.8c0.5-0.6,1-0.9,1.7-0.9
		c0.3,0,0.6,0.1,0.8,0.2c0.3,0.1,0.4,0.2,0.6,0.4c0.1,0.2,0.2,0.4,0.3,0.6c0,0.2,0.1,0.5,0.1,0.9V179.5z"/>
	<path class="st50" d="M466,174.3v1.1h-0.9v2.1c0,0.4,0,0.7,0,0.7c0,0.1,0.1,0.1,0.1,0.2c0.1,0,0.1,0.1,0.2,0.1c0.1,0,0.3,0,0.6-0.1
		l0.1,1.1c-0.3,0.1-0.7,0.2-1.1,0.2c-0.2,0-0.5,0-0.7-0.1c-0.2-0.1-0.3-0.2-0.4-0.3c-0.1-0.1-0.2-0.3-0.2-0.5c0-0.2,0-0.5,0-1v-2.3
		h-0.6v-1.1h0.6v-1l1.4-0.8v1.8H466z"/>
	<path class="st50" d="M468,175.9l-1.2-0.2c0.1-0.5,0.4-0.9,0.7-1.1s0.8-0.4,1.5-0.4c0.6,0,1.1,0.1,1.4,0.2c0.3,0.1,0.5,0.3,0.6,0.6
		c0.1,0.2,0.2,0.6,0.2,1.2l0,1.6c0,0.5,0,0.8,0.1,1c0,0.2,0.1,0.4,0.2,0.7h-1.4c0-0.1-0.1-0.2-0.1-0.4c0-0.1,0-0.1,0-0.2
		c-0.2,0.2-0.5,0.4-0.8,0.5s-0.6,0.2-0.9,0.2c-0.5,0-1-0.1-1.3-0.4c-0.3-0.3-0.5-0.7-0.5-1.1c0-0.3,0.1-0.6,0.2-0.8
		c0.1-0.2,0.3-0.4,0.6-0.5c0.3-0.1,0.6-0.2,1.1-0.3c0.6-0.1,1.1-0.2,1.3-0.3V176c0-0.3-0.1-0.5-0.2-0.6c-0.1-0.1-0.4-0.2-0.7-0.2
		c-0.2,0-0.4,0-0.6,0.1C468.2,175.5,468.1,175.7,468,175.9z M469.9,177c-0.2,0.1-0.5,0.1-0.8,0.2s-0.6,0.2-0.7,0.2
		c-0.2,0.1-0.3,0.3-0.3,0.5c0,0.2,0.1,0.4,0.2,0.5s0.3,0.2,0.5,0.2c0.2,0,0.5-0.1,0.7-0.2c0.2-0.1,0.3-0.3,0.3-0.5
		c0-0.1,0.1-0.3,0.1-0.7V177z"/>
	<path class="st50" d="M474.9,174.3v1.1H474v2.1c0,0.4,0,0.7,0,0.7c0,0.1,0.1,0.1,0.1,0.2c0.1,0,0.1,0.1,0.2,0.1
		c0.1,0,0.3,0,0.6-0.1l0.1,1.1c-0.3,0.1-0.7,0.2-1.1,0.2c-0.2,0-0.5,0-0.7-0.1c-0.2-0.1-0.3-0.2-0.4-0.3c-0.1-0.1-0.2-0.3-0.2-0.5
		c0-0.2,0-0.5,0-1v-2.3H472v-1.1h0.6v-1l1.4-0.8v1.8H474.9z"/>
	<path class="st50" d="M475.9,173.6v-1.3h1.4v1.3H475.9z M475.9,179.5v-5.2h1.4v5.2H475.9z"/>
	<path class="st50" d="M480.1,179.5l-2.1-5.2h1.4l1,2.6l0.3,0.9c0.1-0.2,0.1-0.4,0.1-0.4c0-0.1,0.1-0.3,0.1-0.4l1-2.6h1.4l-2.1,5.2
		H480.1z"/>
	<path class="st50" d="M487.2,177.9l1.4,0.2c-0.2,0.5-0.5,0.9-0.8,1.1c-0.4,0.3-0.9,0.4-1.4,0.4c-0.9,0-1.6-0.3-2-0.9
		c-0.3-0.5-0.5-1.1-0.5-1.8c0-0.9,0.2-1.5,0.7-2c0.4-0.5,1-0.7,1.7-0.7c0.8,0,1.4,0.3,1.8,0.8c0.4,0.5,0.7,1.3,0.6,2.3h-3.4
		c0,0.4,0.1,0.7,0.3,0.9c0.2,0.2,0.5,0.3,0.8,0.3c0.2,0,0.4-0.1,0.5-0.2S487.1,178.1,487.2,177.9z M487.3,176.5
		c0-0.4-0.1-0.7-0.3-0.9c-0.2-0.2-0.4-0.3-0.7-0.3c-0.3,0-0.5,0.1-0.7,0.3s-0.3,0.5-0.3,0.9H487.3z"/>
	<path class="st50" d="M497.2,176.9l1.4,0.4c-0.2,0.8-0.6,1.4-1.1,1.7c-0.5,0.4-1.1,0.6-1.9,0.6c-1,0-1.7-0.3-2.3-1
		c-0.6-0.7-0.9-1.5-0.9-2.7c0-1.2,0.3-2.1,0.9-2.8c0.6-0.7,1.4-1,2.4-1c0.9,0,1.6,0.3,2.1,0.8c0.3,0.3,0.6,0.7,0.7,1.3l-1.4,0.3
		c-0.1-0.4-0.3-0.7-0.5-0.9c-0.3-0.2-0.6-0.3-1-0.3c-0.5,0-1,0.2-1.3,0.6c-0.3,0.4-0.5,1-0.5,1.9c0,0.9,0.2,1.5,0.5,1.9
		s0.7,0.6,1.3,0.6c0.4,0,0.7-0.1,1-0.4S497,177.4,497.2,176.9z"/>
	<path class="st50" d="M500.8,175.9l-1.2-0.2c0.1-0.5,0.4-0.9,0.7-1.1s0.8-0.4,1.5-0.4c0.6,0,1.1,0.1,1.4,0.2
		c0.3,0.1,0.5,0.3,0.6,0.6c0.1,0.2,0.2,0.6,0.2,1.2l0,1.6c0,0.5,0,0.8,0.1,1c0,0.2,0.1,0.4,0.2,0.7h-1.4c0-0.1-0.1-0.2-0.1-0.4
		c0-0.1,0-0.1,0-0.2c-0.2,0.2-0.5,0.4-0.8,0.5s-0.6,0.2-0.9,0.2c-0.5,0-1-0.1-1.3-0.4c-0.3-0.3-0.5-0.7-0.5-1.1
		c0-0.3,0.1-0.6,0.2-0.8c0.1-0.2,0.3-0.4,0.6-0.5c0.3-0.1,0.6-0.2,1.1-0.3c0.6-0.1,1.1-0.2,1.3-0.3V176c0-0.3-0.1-0.5-0.2-0.6
		c-0.1-0.1-0.4-0.2-0.7-0.2c-0.2,0-0.4,0-0.6,0.1C501,175.5,500.9,175.7,500.8,175.9z M502.6,177c-0.2,0.1-0.5,0.1-0.8,0.2
		s-0.6,0.2-0.7,0.2c-0.2,0.1-0.3,0.3-0.3,0.5c0,0.2,0.1,0.4,0.2,0.5s0.3,0.2,0.5,0.2c0.2,0,0.5-0.1,0.7-0.2c0.2-0.1,0.3-0.3,0.3-0.5
		c0-0.1,0.1-0.3,0.1-0.7V177z"/>
	<path class="st50" d="M506.7,179.5h-1.4v-5.2h1.3v0.7c0.2-0.3,0.4-0.6,0.6-0.7c0.2-0.1,0.4-0.2,0.6-0.2c0.3,0,0.6,0.1,0.9,0.3
		l-0.4,1.2c-0.2-0.1-0.4-0.2-0.6-0.2c-0.2,0-0.4,0.1-0.5,0.2c-0.1,0.1-0.2,0.3-0.3,0.6c-0.1,0.3-0.1,0.9-0.1,1.7V179.5z"/>
	<path class="st50" d="M512.2,177.9l1.4,0.2c-0.2,0.5-0.5,0.9-0.8,1.1c-0.4,0.3-0.9,0.4-1.4,0.4c-0.9,0-1.6-0.3-2-0.9
		c-0.3-0.5-0.5-1.1-0.5-1.8c0-0.9,0.2-1.5,0.7-2c0.4-0.5,1-0.7,1.7-0.7c0.8,0,1.4,0.3,1.8,0.8c0.4,0.5,0.7,1.3,0.6,2.3h-3.4
		c0,0.4,0.1,0.7,0.3,0.9c0.2,0.2,0.5,0.3,0.8,0.3c0.2,0,0.4-0.1,0.5-0.2S512.2,178.1,512.2,177.9z M512.3,176.5
		c0-0.4-0.1-0.7-0.3-0.9c-0.2-0.2-0.4-0.3-0.7-0.3c-0.3,0-0.5,0.1-0.7,0.3s-0.3,0.5-0.3,0.9H512.3z"/>
</g>
<rect x="429.6" y="194.3" class="st82" width="117.1" height="14.2"/>
<g class="st83">
	<path class="st50" d="M430.3,201.4v-7.2h5.3v1.2h-3.9v1.6h3.6v1.2h-3.6v1.9h4v1.2H430.3z"/>
	<path class="st50" d="M436.3,201.4l1.9-2.7l-1.8-2.5h1.7l0.9,1.4l1-1.4h1.6l-1.8,2.5l1.9,2.7H440l-1.1-1.6l-1.1,1.6H436.3z"/>
	<path class="st50" d="M444.9,196.3v1.1H444v2.1c0,0.4,0,0.7,0,0.7c0,0.1,0.1,0.1,0.1,0.2c0.1,0,0.1,0.1,0.2,0.1
		c0.1,0,0.3,0,0.6-0.1l0.1,1.1c-0.3,0.1-0.7,0.2-1.1,0.2c-0.2,0-0.5,0-0.7-0.1c-0.2-0.1-0.3-0.2-0.4-0.3c-0.1-0.1-0.2-0.3-0.2-0.5
		c0-0.2,0-0.5,0-1v-2.3H442v-1.1h0.6v-1l1.4-0.8v1.8H444.9z"/>
	<path class="st50" d="M448.9,199.8l1.4,0.2c-0.2,0.5-0.5,0.9-0.8,1.1c-0.4,0.3-0.9,0.4-1.4,0.4c-0.9,0-1.6-0.3-2-0.9
		c-0.3-0.5-0.5-1.1-0.5-1.8c0-0.9,0.2-1.5,0.7-2c0.4-0.5,1-0.7,1.7-0.7c0.8,0,1.4,0.3,1.8,0.8c0.4,0.5,0.7,1.3,0.6,2.3h-3.4
		c0,0.4,0.1,0.7,0.3,0.9c0.2,0.2,0.5,0.3,0.8,0.3c0.2,0,0.4-0.1,0.5-0.2S448.8,200.1,448.9,199.8z M448.9,198.4
		c0-0.4-0.1-0.7-0.3-0.9c-0.2-0.2-0.4-0.3-0.7-0.3c-0.3,0-0.5,0.1-0.7,0.3s-0.3,0.5-0.3,0.9H448.9z"/>
	<path class="st50" d="M452.7,201.4h-1.4v-5.2h1.3v0.7c0.2-0.3,0.4-0.6,0.6-0.7c0.2-0.1,0.4-0.2,0.6-0.2c0.3,0,0.6,0.1,0.9,0.3
		l-0.4,1.2c-0.2-0.1-0.4-0.2-0.6-0.2c-0.2,0-0.4,0.1-0.5,0.2c-0.1,0.1-0.2,0.3-0.3,0.6c-0.1,0.3-0.1,0.9-0.1,1.7V201.4z"/>
	<path class="st50" d="M460,201.4h-1.4v-2.6c0-0.6,0-0.9-0.1-1.1c-0.1-0.2-0.2-0.3-0.3-0.4c-0.1-0.1-0.3-0.1-0.5-0.1
		c-0.2,0-0.5,0.1-0.6,0.2s-0.3,0.3-0.4,0.5c-0.1,0.2-0.1,0.6-0.1,1.2v2.3h-1.4v-5.2h1.3v0.8c0.5-0.6,1-0.9,1.7-0.9
		c0.3,0,0.6,0.1,0.8,0.2c0.3,0.1,0.4,0.2,0.6,0.4c0.1,0.2,0.2,0.4,0.3,0.6c0,0.2,0.1,0.5,0.1,0.9V201.4z"/>
	<path class="st50" d="M462.5,197.8l-1.2-0.2c0.1-0.5,0.4-0.9,0.7-1.1s0.8-0.4,1.5-0.4c0.6,0,1.1,0.1,1.4,0.2
		c0.3,0.1,0.5,0.3,0.6,0.6c0.1,0.2,0.2,0.6,0.2,1.2l0,1.6c0,0.5,0,0.8,0.1,1c0,0.2,0.1,0.4,0.2,0.7h-1.4c0-0.1-0.1-0.2-0.1-0.4
		c0-0.1,0-0.1,0-0.2c-0.2,0.2-0.5,0.4-0.8,0.5s-0.6,0.2-0.9,0.2c-0.5,0-1-0.1-1.3-0.4c-0.3-0.3-0.5-0.7-0.5-1.1
		c0-0.3,0.1-0.6,0.2-0.8c0.1-0.2,0.3-0.4,0.6-0.5c0.3-0.1,0.6-0.2,1.1-0.3c0.6-0.1,1.1-0.2,1.3-0.3v-0.1c0-0.3-0.1-0.5-0.2-0.6
		c-0.1-0.1-0.4-0.2-0.7-0.2c-0.2,0-0.4,0-0.6,0.1C462.6,197.4,462.5,197.6,462.5,197.8z M464.3,199c-0.2,0.1-0.5,0.1-0.8,0.2
		s-0.6,0.2-0.7,0.2c-0.2,0.1-0.3,0.3-0.3,0.5c0,0.2,0.1,0.4,0.2,0.5s0.3,0.2,0.5,0.2c0.2,0,0.5-0.1,0.7-0.2c0.2-0.1,0.3-0.3,0.3-0.5
		c0-0.1,0.1-0.3,0.1-0.7V199z"/>
	<path class="st50" d="M467,201.4v-7.2h1.4v7.2H467z"/>
	<path class="st50" d="M472.6,201.4v-7.2h5.3v1.2H474v1.6h3.6v1.2H474v1.9h4v1.2H472.6z"/>
	<path class="st50" d="M483.9,201.4h-1.4v-2.6c0-0.6,0-0.9-0.1-1.1c-0.1-0.2-0.2-0.3-0.3-0.4c-0.1-0.1-0.3-0.1-0.5-0.1
		c-0.2,0-0.5,0.1-0.6,0.2s-0.3,0.3-0.4,0.5c-0.1,0.2-0.1,0.6-0.1,1.2v2.3h-1.4v-5.2h1.3v0.8c0.5-0.6,1-0.9,1.7-0.9
		c0.3,0,0.6,0.1,0.8,0.2c0.3,0.1,0.4,0.2,0.6,0.4c0.1,0.2,0.2,0.4,0.3,0.6c0,0.2,0.1,0.5,0.1,0.9V201.4z"/>
	<path class="st50" d="M489.8,197.8l-1.4,0.2c0-0.3-0.1-0.5-0.3-0.6c-0.2-0.1-0.4-0.2-0.6-0.2c-0.3,0-0.6,0.1-0.8,0.4
		c-0.2,0.2-0.3,0.6-0.3,1.2c0,0.6,0.1,1,0.3,1.3c0.2,0.3,0.5,0.4,0.8,0.4c0.3,0,0.5-0.1,0.6-0.2c0.2-0.1,0.3-0.4,0.4-0.8l1.3,0.2
		c-0.1,0.6-0.4,1.1-0.8,1.4s-0.9,0.5-1.6,0.5c-0.8,0-1.4-0.2-1.8-0.7c-0.5-0.5-0.7-1.1-0.7-2c0-0.9,0.2-1.5,0.7-2
		c0.5-0.5,1.1-0.7,1.8-0.7c0.6,0,1.1,0.1,1.5,0.4C489.4,196.8,489.7,197.2,489.8,197.8z"/>
	<path class="st50" d="M490.6,198.8c0-0.5,0.1-0.9,0.3-1.3s0.5-0.8,1-1c0.4-0.2,0.9-0.3,1.4-0.3c0.8,0,1.4,0.3,1.9,0.8
		c0.5,0.5,0.8,1.2,0.8,1.9c0,0.8-0.3,1.4-0.8,2c-0.5,0.5-1.1,0.8-1.9,0.8c-0.5,0-0.9-0.1-1.4-0.3c-0.4-0.2-0.8-0.5-1-0.9
		C490.7,199.9,490.6,199.4,490.6,198.8z M492,198.9c0,0.5,0.1,0.9,0.4,1.2s0.5,0.4,0.9,0.4s0.7-0.1,0.9-0.4c0.2-0.3,0.4-0.7,0.4-1.2
		c0-0.5-0.1-0.9-0.4-1.2c-0.2-0.3-0.5-0.4-0.9-0.4s-0.7,0.1-0.9,0.4S492,198.3,492,198.9z"/>
	<path class="st50" d="M500.4,201.4v-0.8c-0.2,0.3-0.4,0.5-0.7,0.7c-0.3,0.2-0.6,0.2-1,0.2c-0.3,0-0.7-0.1-0.9-0.2s-0.5-0.4-0.6-0.6
		s-0.2-0.7-0.2-1.1v-3.3h1.4v2.4c0,0.7,0,1.2,0.1,1.3c0,0.2,0.1,0.3,0.3,0.4c0.1,0.1,0.3,0.1,0.5,0.1c0.2,0,0.4-0.1,0.6-0.2
		c0.2-0.1,0.3-0.3,0.4-0.5c0.1-0.2,0.1-0.7,0.1-1.4v-2.2h1.4v5.2H500.4z"/>
	<path class="st50" d="M507.8,201.4h-1.4v-2.6c0-0.6,0-0.9-0.1-1.1c-0.1-0.2-0.2-0.3-0.3-0.4c-0.1-0.1-0.3-0.1-0.5-0.1
		c-0.2,0-0.5,0.1-0.6,0.2s-0.3,0.3-0.4,0.5c-0.1,0.2-0.1,0.6-0.1,1.2v2.3h-1.4v-5.2h1.3v0.8c0.5-0.6,1-0.9,1.7-0.9
		c0.3,0,0.6,0.1,0.8,0.2c0.3,0.1,0.4,0.2,0.6,0.4c0.1,0.2,0.2,0.4,0.3,0.6c0,0.2,0.1,0.5,0.1,0.9V201.4z"/>
	<path class="st50" d="M511.6,196.3v1.1h-0.9v2.1c0,0.4,0,0.7,0,0.7c0,0.1,0.1,0.1,0.1,0.2c0.1,0,0.1,0.1,0.2,0.1
		c0.1,0,0.3,0,0.6-0.1l0.1,1.1c-0.3,0.1-0.7,0.2-1.1,0.2c-0.2,0-0.5,0-0.7-0.1c-0.2-0.1-0.3-0.2-0.4-0.3c-0.1-0.1-0.2-0.3-0.2-0.5
		c0-0.2,0-0.5,0-1v-2.3h-0.6v-1.1h0.6v-1l1.4-0.8v1.8H511.6z"/>
	<path class="st50" d="M515.5,199.8l1.4,0.2c-0.2,0.5-0.5,0.9-0.8,1.1c-0.4,0.3-0.9,0.4-1.4,0.4c-0.9,0-1.6-0.3-2-0.9
		c-0.3-0.5-0.5-1.1-0.5-1.8c0-0.9,0.2-1.5,0.7-2c0.4-0.5,1-0.7,1.7-0.7c0.8,0,1.4,0.3,1.8,0.8c0.4,0.5,0.7,1.3,0.6,2.3h-3.4
		c0,0.4,0.1,0.7,0.3,0.9c0.2,0.2,0.5,0.3,0.8,0.3c0.2,0,0.4-0.1,0.5-0.2S515.5,200.1,515.5,199.8z M515.6,198.4
		c0-0.4-0.1-0.7-0.3-0.9c-0.2-0.2-0.4-0.3-0.7-0.3c-0.3,0-0.5,0.1-0.7,0.3s-0.3,0.5-0.3,0.9H515.6z"/>
	<path class="st50" d="M519.4,201.4H518v-5.2h1.3v0.7c0.2-0.3,0.4-0.6,0.6-0.7c0.2-0.1,0.4-0.2,0.6-0.2c0.3,0,0.6,0.1,0.9,0.3
		l-0.4,1.2c-0.2-0.1-0.4-0.2-0.6-0.2c-0.2,0-0.4,0.1-0.5,0.2c-0.1,0.1-0.2,0.3-0.3,0.6c-0.1,0.3-0.1,0.9-0.1,1.7V201.4z"/>
	<path class="st50" d="M521.5,200l1.4-0.2c0.1,0.3,0.2,0.5,0.4,0.6c0.2,0.1,0.4,0.2,0.8,0.2c0.4,0,0.6-0.1,0.8-0.2
		c0.1-0.1,0.2-0.2,0.2-0.4c0-0.1,0-0.2-0.1-0.3c-0.1-0.1-0.2-0.1-0.5-0.2c-1.1-0.2-1.8-0.5-2.1-0.7c-0.4-0.3-0.6-0.7-0.6-1.2
		c0-0.4,0.2-0.8,0.5-1.1s0.9-0.5,1.7-0.5c0.7,0,1.2,0.1,1.6,0.3s0.6,0.6,0.7,1l-1.3,0.2c-0.1-0.2-0.2-0.4-0.3-0.5
		c-0.2-0.1-0.4-0.2-0.7-0.2c-0.4,0-0.6,0.1-0.8,0.2c-0.1,0.1-0.2,0.2-0.2,0.3c0,0.1,0,0.2,0.1,0.2c0.1,0.1,0.6,0.2,1.3,0.4
		c0.7,0.2,1.2,0.4,1.5,0.6c0.3,0.2,0.4,0.6,0.4,1c0,0.5-0.2,0.9-0.6,1.2s-1,0.5-1.8,0.5c-0.7,0-1.3-0.1-1.7-0.4
		C521.9,200.8,521.6,200.5,521.5,200z"/>
</g>
<g>
	<polygon class="st84" points="402.7,113.9 407.7,118.9 418,108.5 407.5,116.7 	"/>
	<polygon class="st84" points="402.7,134 407.7,139 418,128.6 407.5,136.8 	"/>
	<polygon class="st84" points="402.7,155.4 407.7,160.4 418,150 407.5,158.2 	"/>
	<polygon class="st84" points="402.7,174.4 407.7,179.4 418,169.1 407.5,177.3 	"/>
	<polygon class="st84" points="402.7,197.6 407.7,202.6 418,192.2 407.5,200.4 	"/>
</g>
<circle class="st85" cx="478.4" cy="43.9" r="1.5"/>
</svg>
