<?xml version="1.0" encoding="utf-8"?>
<!-- Generator: Adobe Illustrator 25.3.1, SVG Export Plug-In . SVG Version: 6.00 Build 0)  -->
<svg version="1.1" id="Layer_1" xmlns="http://www.w3.org/2000/svg" xmlns:xlink="http://www.w3.org/1999/xlink" x="0px" y="0px"
	 viewBox="0 0 612 288.01" style="enable-background:new 0 0 612 288.01;" xml:space="preserve">
<style type="text/css">
	.st0{opacity:0.2;}
	.st1{opacity:0.5;fill:#FBFAFC;stroke:#FEFFFF;stroke-miterlimit:10;enable-background:new    ;}
	.st2{opacity:0.5;fill:none;stroke:#FEFFFF;stroke-miterlimit:10;enable-background:new    ;}
	.st3{opacity:0.2;fill:#BFC1C1;stroke:#FDFEFE;stroke-width:0.25;stroke-miterlimit:10;enable-background:new    ;}
	.st4{fill:#E2E2E2;}
	.st5{fill:#EAEAEA;}
	.st6{fill:none;stroke:#FDFEFE;stroke-width:0.25;stroke-miterlimit:10;}
	.st7{opacity:0.5;fill:none;stroke:#FDFEFE;stroke-miterlimit:10;enable-background:new    ;}
	.st8{fill:#E8E8E8;}
	.st9{opacity:0.5;fill:#FDFEFE;enable-background:new    ;}
	.st10{opacity:0.75;fill:#FDFEFE;enable-background:new    ;}
	.st11{fill:#FDFEFE;}
	.st12{font-family:'ArialMT';}
	.st13{font-size:3.7922px;}
	.st14{fill:#D4DBE6;}
	.st15{fill:#AAB2BD;}
	.st16{fill:#E1A575;}
	.st17{fill:#F2F2F3;stroke:#C6C6C5;stroke-width:0.25;stroke-miterlimit:10;}
	.st18{fill:#819BA8;}
	.st19{fill:#1A303D;}
	.st20{fill:#EFBB96;}
	.st21{opacity:0.5;fill:#5A3F2D;enable-background:new    ;}
	.st22{fill:#33312F;}
	.st23{opacity:0.5;fill:#E1A575;enable-background:new    ;}
	.st24{fill:#2F5972;}
	.st25{fill:#FFFFFF;stroke:#E5E5E5;stroke-width:0.25;stroke-miterlimit:10;}
	.st26{fill:#FFFFFF;stroke:#D8D8D8;stroke-width:0.125;stroke-miterlimit:10;}
	.st27{fill:#8E6A51;}
	.st28{fill:#AADAF1;}
	.st29{fill:#EDB48E;}
	.st30{fill:#47A4CE;}
	.st31{fill:#7C5F4A;}
	.st32{fill:#070808;}
	.st33{fill:#F3AE91;}
	.st34{fill:#60A36A;}
	.st35{fill:#9DBEA4;}
	.st36{fill:#9DBEA4;stroke:#5EA36A;stroke-width:0.25;stroke-miterlimit:10;}
	.st37{fill:#F2BE87;}
	.st38{fill:#A3A3A3;}
	.st39{fill:#B0B0B4;}
	.st40{fill:#D49A29;}
	.st41{fill:#FFFFFF;}
	.st42{fill:#F4CCB1;}
	.st43{fill:#D6C2B6;}
	.st44{fill:#EC8923;}
	.st45{fill:#CA7340;}
	.st46{fill:#333A44;}
	.st47{fill:#CE6D2B;}
	.st48{fill:#5C616B;}
	.st49{fill:#FFFFFF;stroke:#D3D3D3;stroke-width:0.25;stroke-miterlimit:10;}
	.st50{fill:#131212;}
	.st51{fill:#A65F37;}
	.st52{fill:#D6EAF8;}
	.st53{fill:#F6DA8C;}
	.st54{fill:#FDF4D7;}
	.st55{fill:#AA843D;}
	.st56{fill:#C4CED7;}
	.st57{fill:#A689B9;}
	.st58{opacity:0.25;fill:none;stroke:#FFFFFF;stroke-miterlimit:10;enable-background:new    ;}
	.st59{fill:#EE9F7E;}
	.st60{fill:#EFAB80;}
	.st61{fill:#885953;}
	.st62{fill:#3790CE;}
	.st63{fill:#FFFFFF;stroke:#A5A4A4;stroke-width:0.125;stroke-miterlimit:10;}
	.st64{fill:#981C20;}
	.st65{fill:#FFFFFF;stroke:#BFBFBF;stroke-width:0.25;stroke-miterlimit:10;}
	.st66{fill:#EDEFEF;}
	.st67{fill:#E85626;}
	.st68{fill:none;stroke:#706F6F;stroke-width:3;stroke-miterlimit:10;}
	.st69{fill:#F6D996;}
	.st70{fill:#304153;}
	.st71{fill:#304153;stroke:#FFFFFF;stroke-width:0.5;stroke-miterlimit:10;}
	.st72{fill:#FFFFFF;stroke:#B5B5B5;stroke-width:0.25;stroke-miterlimit:10;}
	.st73{opacity:0.25;fill:none;stroke:#FAFDFD;stroke-miterlimit:10;enable-background:new    ;}
	.st74{opacity:0.5;fill:none;stroke:#FAFDFD;stroke-miterlimit:10;enable-background:new    ;}
	.st75{opacity:0.85;fill:none;stroke:#FAFDFD;stroke-miterlimit:10;enable-background:new    ;}
	.st76{opacity:0.3;fill:none;stroke:#FAFDFD;stroke-miterlimit:10;enable-background:new    ;}
	.st77{opacity:0.9;fill:none;stroke:#FAFDFD;stroke-miterlimit:10;enable-background:new    ;}
	.st78{opacity:0.45;fill:none;stroke:#FAFDFD;stroke-miterlimit:10;enable-background:new    ;}
	.st79{opacity:0.5;}
	.st80{opacity:0.2;fill:none;stroke:#FFFFFF;stroke-width:0.25;stroke-miterlimit:10;enable-background:new    ;}
	.st81{fill:#FFFFFF;stroke:#BFBFBF;stroke-miterlimit:10;}
	.st82{fill:none;}
	.st83{font-family:'Arial-Black';}
	.st84{font-size:22.9222px;}
	.st85{font-size:14.4325px;}
	.st86{font-family:'Arial-BoldMT';}
	.st87{font-size:10px;}
	.st88{fill:#CD2128;}
	.st89{fill:none;stroke:#050606;stroke-width:0.75;stroke-miterlimit:10;}
</style>
<g>
	<g class="st0">
		<polygon class="st1" points="215.27,73.24 205.99,69.25 204.8,59.22 212.9,53.18 222.18,57.17 223.37,67.2 		"/>
		<polygon class="st2" points="208.25,89.52 198.97,85.53 197.78,75.5 205.88,69.45 215.16,73.45 216.35,83.48 		"/>
		<polygon class="st2" points="239.18,54.97 229.9,50.98 228.71,40.94 236.81,34.9 246.09,38.89 247.28,48.93 		"/>
		<polygon class="st2" points="232.7,71.19 223.42,67.19 222.24,57.16 230.34,51.12 239.62,55.11 240.8,65.15 		"/>
	</g>
	<path class="st3" d="M260.45,95.58H80.39c-7.71,0-13.96-6.25-13.96-13.96V32.08c0-7.71,6.25-13.96,13.96-13.96h180.06
		c7.71,0,13.96,6.25,13.96,13.96v49.54C274.42,89.32,268.16,95.58,260.45,95.58z"/>
	<g>
		<path class="st4" d="M184.27,56.14c0,0.61-0.3,1.21-0.84,1.56c-0.85,0.55-2,0.3-2.55-0.55l-4.43-6.88v10.48l0.09,13.97
			c0,0-0.86,0.79-1.79,0.79c-1.11,0-1.96-0.8-1.96-0.8s-0.4-11.1-2.3-10.94c-2.02,0.17-2.19,10.94-2.19,10.94s-0.84,0.8-2.07,0.8
			c-0.91,0-1.69-0.8-1.69-0.8V50.04l-4.58,7.11c-0.55,0.85-1.69,1.1-2.55,0.55c-0.55-0.35-0.84-0.95-0.84-1.55
			c0-0.34,0.09-0.69,0.29-0.99l6.39-9.92c0.3-0.47,0.78-0.75,1.29-0.82c0.09-0.01,0.17-0.02,0.26-0.02h11.24
			c0.14,0,0.28,0.02,0.42,0.05c0.46,0.1,0.87,0.38,1.14,0.8l6.39,9.92C184.18,55.46,184.27,55.81,184.27,56.14z"/>
		<circle class="st4" cx="170.3" cy="38.19" r="5.13"/>
	</g>
	<g>
		<g>
			<path class="st5" d="M215.01,35.12h-13.65c-0.48,0-0.87-0.39-0.87-0.87l0,0c0-0.48,0.39-0.87,0.87-0.87h13.65
				c0.48,0,0.87,0.39,0.87,0.87l0,0C215.88,34.73,215.49,35.12,215.01,35.12z"/>
			<path class="st5" d="M214.9,38.11h-13.65c-0.48,0-0.87-0.39-0.87-0.87l0,0c0-0.48,0.39-0.87,0.87-0.87h13.65
				c0.48,0,0.87,0.39,0.87,0.87l0,0C215.76,37.72,215.37,38.11,214.9,38.11z"/>
			<path class="st5" d="M214.9,41.1h-13.65c-0.48,0-0.87-0.39-0.87-0.87l0,0c0-0.48,0.39-0.87,0.87-0.87h13.65
				c0.48,0,0.87,0.39,0.87,0.87l0,0C215.76,40.71,215.37,41.1,214.9,41.1z"/>
			<path class="st5" d="M215.01,44.17h-13.65c-0.48,0-0.87-0.39-0.87-0.87l0,0c0-0.48,0.39-0.87,0.87-0.87h13.65
				c0.48,0,0.87,0.39,0.87,0.87l0,0C215.88,43.78,215.49,44.17,215.01,44.17z"/>
			<path class="st5" d="M215.01,47.23h-13.65c-0.48,0-0.87-0.39-0.87-0.87l0,0c0-0.48,0.39-0.87,0.87-0.87h13.65
				c0.48,0,0.87,0.39,0.87,0.87l0,0C215.88,46.84,215.49,47.23,215.01,47.23z"/>
			<path class="st5" d="M215.01,50.3h-13.65c-0.48,0-0.87-0.39-0.87-0.87l0,0c0-0.48,0.39-0.87,0.87-0.87h13.65
				c0.48,0,0.87,0.39,0.87,0.87l0,0C215.88,49.91,215.49,50.3,215.01,50.3z"/>
			<path class="st5" d="M215.01,53.55h-13.65c-0.48,0-0.87-0.39-0.87-0.87l0,0c0-0.48,0.39-0.87,0.87-0.87h13.65
				c0.48,0,0.87,0.39,0.87,0.87l0,0C215.88,53.16,215.49,53.55,215.01,53.55z"/>
			<path class="st5" d="M213.63,30.29h-11.01c-1.2,0-2.19-0.99-2.19-2.19l0,0c0-1.2,0.99-2.19,2.19-2.19h11.01
				c1.2,0,2.19,0.99,2.19,2.19l0,0C215.82,29.31,214.84,30.29,213.63,30.29z"/>
		</g>
		<g>
			<path class="st5" d="M256.8,35.12h-13.65c-0.48,0-0.87-0.39-0.87-0.87l0,0c0-0.48,0.39-0.87,0.87-0.87h13.65
				c0.48,0,0.87,0.39,0.87,0.87l0,0C257.67,34.73,257.28,35.12,256.8,35.12z"/>
			<path class="st5" d="M256.69,38.11h-13.65c-0.48,0-0.87-0.39-0.87-0.87l0,0c0-0.48,0.39-0.87,0.87-0.87h13.65
				c0.48,0,0.87,0.39,0.87,0.87l0,0C257.55,37.72,257.16,38.11,256.69,38.11z"/>
			<path class="st5" d="M256.69,41.1h-13.65c-0.48,0-0.87-0.39-0.87-0.87l0,0c0-0.48,0.39-0.87,0.87-0.87h13.65
				c0.48,0,0.87,0.39,0.87,0.87l0,0C257.55,40.71,257.16,41.1,256.69,41.1z"/>
			<path class="st5" d="M256.8,44.17h-13.65c-0.48,0-0.87-0.39-0.87-0.87l0,0c0-0.48,0.39-0.87,0.87-0.87h13.65
				c0.48,0,0.87,0.39,0.87,0.87l0,0C257.67,43.78,257.28,44.17,256.8,44.17z"/>
			<path class="st5" d="M256.8,47.23h-13.65c-0.48,0-0.87-0.39-0.87-0.87l0,0c0-0.48,0.39-0.87,0.87-0.87h13.65
				c0.48,0,0.87,0.39,0.87,0.87l0,0C257.67,46.84,257.28,47.23,256.8,47.23z"/>
			<path class="st5" d="M256.8,50.3h-13.65c-0.48,0-0.87-0.39-0.87-0.87l0,0c0-0.48,0.39-0.87,0.87-0.87h13.65
				c0.48,0,0.87,0.39,0.87,0.87l0,0C257.67,49.91,257.28,50.3,256.8,50.3z"/>
			<path class="st5" d="M256.8,53.55h-13.65c-0.48,0-0.87-0.39-0.87-0.87l0,0c0-0.48,0.39-0.87,0.87-0.87h13.65
				c0.48,0,0.87,0.39,0.87,0.87l0,0C257.67,53.16,257.28,53.55,256.8,53.55z"/>
			<path class="st5" d="M255.42,30.29h-11.01c-1.2,0-2.19-0.99-2.19-2.19l0,0c0-1.2,0.99-2.19,2.19-2.19h11.01
				c1.2,0,2.19,0.99,2.19,2.19l0,0C257.61,29.31,256.62,30.29,255.42,30.29z"/>
		</g>
		<g>
			<path class="st5" d="M235.91,35.12h-13.65c-0.48,0-0.87-0.39-0.87-0.87l0,0c0-0.48,0.39-0.87,0.87-0.87h13.65
				c0.48,0,0.87,0.39,0.87,0.87l0,0C236.77,34.73,236.38,35.12,235.91,35.12z"/>
			<path class="st5" d="M235.79,38.11h-13.65c-0.48,0-0.87-0.39-0.87-0.87l0,0c0-0.48,0.39-0.87,0.87-0.87h13.65
				c0.48,0,0.87,0.39,0.87,0.87l0,0C236.66,37.72,236.27,38.11,235.79,38.11z"/>
			<path class="st5" d="M235.79,41.1h-13.65c-0.48,0-0.87-0.39-0.87-0.87l0,0c0-0.48,0.39-0.87,0.87-0.87h13.65
				c0.48,0,0.87,0.39,0.87,0.87l0,0C236.66,40.71,236.27,41.1,235.79,41.1z"/>
			<path class="st5" d="M235.91,44.17h-13.65c-0.48,0-0.87-0.39-0.87-0.87l0,0c0-0.48,0.39-0.87,0.87-0.87h13.65
				c0.48,0,0.87,0.39,0.87,0.87l0,0C236.77,43.78,236.38,44.17,235.91,44.17z"/>
			<path class="st5" d="M235.91,47.23h-13.65c-0.48,0-0.87-0.39-0.87-0.87l0,0c0-0.48,0.39-0.87,0.87-0.87h13.65
				c0.48,0,0.87,0.39,0.87,0.87l0,0C236.77,46.84,236.38,47.23,235.91,47.23z"/>
			<path class="st5" d="M235.91,50.3h-13.65c-0.48,0-0.87-0.39-0.87-0.87l0,0c0-0.48,0.39-0.87,0.87-0.87h13.65
				c0.48,0,0.87,0.39,0.87,0.87l0,0C236.77,49.91,236.38,50.3,235.91,50.3z"/>
			<path class="st5" d="M235.91,53.55h-13.65c-0.48,0-0.87-0.39-0.87-0.87l0,0c0-0.48,0.39-0.87,0.87-0.87h13.65
				c0.48,0,0.87,0.39,0.87,0.87l0,0C236.77,53.16,236.38,53.55,235.91,53.55z"/>
			<path class="st5" d="M234.53,30.29h-11.01c-1.2,0-2.19-0.99-2.19-2.19l0,0c0-1.2,0.99-2.19,2.19-2.19h11.01
				c1.2,0,2.19,0.99,2.19,2.19l0,0C236.72,29.31,235.73,30.29,234.53,30.29z"/>
		</g>
	</g>
	<g>
		<g>
			<path class="st5" d="M95.37,35.12H81.71c-0.48,0-0.87-0.39-0.87-0.87l0,0c0-0.48,0.39-0.87,0.87-0.87h13.65
				c0.48,0,0.87,0.39,0.87,0.87l0,0C96.24,34.73,95.85,35.12,95.37,35.12z"/>
			<path class="st5" d="M95.26,38.11H81.6c-0.48,0-0.87-0.39-0.87-0.87l0,0c0-0.48,0.39-0.87,0.87-0.87h13.65
				c0.48,0,0.87,0.39,0.87,0.87l0,0C96.12,37.72,95.73,38.11,95.26,38.11z"/>
			<path class="st5" d="M95.26,41.1H81.6c-0.48,0-0.87-0.39-0.87-0.87l0,0c0-0.48,0.39-0.87,0.87-0.87h13.65
				c0.48,0,0.87,0.39,0.87,0.87l0,0C96.12,40.71,95.73,41.1,95.26,41.1z"/>
			<path class="st5" d="M95.37,44.17H81.71c-0.48,0-0.87-0.39-0.87-0.87l0,0c0-0.48,0.39-0.87,0.87-0.87h13.65
				c0.48,0,0.87,0.39,0.87,0.87l0,0C96.24,43.78,95.85,44.17,95.37,44.17z"/>
			<path class="st5" d="M95.37,47.23H81.71c-0.48,0-0.87-0.39-0.87-0.87l0,0c0-0.48,0.39-0.87,0.87-0.87h13.65
				c0.48,0,0.87,0.39,0.87,0.87l0,0C96.24,46.84,95.85,47.23,95.37,47.23z"/>
			<path class="st5" d="M95.37,50.3H81.71c-0.48,0-0.87-0.39-0.87-0.87l0,0c0-0.48,0.39-0.87,0.87-0.87h13.65
				c0.48,0,0.87,0.39,0.87,0.87l0,0C96.24,49.91,95.85,50.3,95.37,50.3z"/>
			<path class="st5" d="M95.37,53.55H81.71c-0.48,0-0.87-0.39-0.87-0.87l0,0c0-0.48,0.39-0.87,0.87-0.87h13.65
				c0.48,0,0.87,0.39,0.87,0.87l0,0C96.24,53.16,95.85,53.55,95.37,53.55z"/>
			<path class="st5" d="M93.99,30.29H82.98c-1.2,0-2.19-0.99-2.19-2.19l0,0c0-1.2,0.99-2.19,2.19-2.19h11.01
				c1.2,0,2.19,0.99,2.19,2.19l0,0C96.18,29.31,95.19,30.29,93.99,30.29z"/>
		</g>
		<g>
			<path class="st5" d="M137.16,35.12H123.5c-0.48,0-0.87-0.39-0.87-0.87l0,0c0-0.48,0.39-0.87,0.87-0.87h13.65
				c0.48,0,0.87,0.39,0.87,0.87l0,0C138.02,34.73,137.63,35.12,137.16,35.12z"/>
			<path class="st5" d="M137.04,38.11h-13.65c-0.48,0-0.87-0.39-0.87-0.87l0,0c0-0.48,0.39-0.87,0.87-0.87h13.65
				c0.48,0,0.87,0.39,0.87,0.87l0,0C137.91,37.72,137.52,38.11,137.04,38.11z"/>
			<path class="st5" d="M137.04,41.1h-13.65c-0.48,0-0.87-0.39-0.87-0.87l0,0c0-0.48,0.39-0.87,0.87-0.87h13.65
				c0.48,0,0.87,0.39,0.87,0.87l0,0C137.91,40.71,137.52,41.1,137.04,41.1z"/>
			<path class="st5" d="M137.16,44.17H123.5c-0.48,0-0.87-0.39-0.87-0.87l0,0c0-0.48,0.39-0.87,0.87-0.87h13.65
				c0.48,0,0.87,0.39,0.87,0.87l0,0C138.02,43.78,137.63,44.17,137.16,44.17z"/>
			<path class="st5" d="M137.16,47.23H123.5c-0.48,0-0.87-0.39-0.87-0.87l0,0c0-0.48,0.39-0.87,0.87-0.87h13.65
				c0.48,0,0.87,0.39,0.87,0.87l0,0C138.02,46.84,137.63,47.23,137.16,47.23z"/>
			<path class="st5" d="M137.16,50.3H123.5c-0.48,0-0.87-0.39-0.87-0.87l0,0c0-0.48,0.39-0.87,0.87-0.87h13.65
				c0.48,0,0.87,0.39,0.87,0.87l0,0C138.02,49.91,137.63,50.3,137.16,50.3z"/>
			<path class="st5" d="M137.16,53.55H123.5c-0.48,0-0.87-0.39-0.87-0.87l0,0c0-0.48,0.39-0.87,0.87-0.87h13.65
				c0.48,0,0.87,0.39,0.87,0.87l0,0C138.02,53.16,137.63,53.55,137.16,53.55z"/>
			<path class="st5" d="M135.78,30.29h-11.01c-1.2,0-2.19-0.99-2.19-2.19l0,0c0-1.2,0.99-2.19,2.19-2.19h11.01
				c1.2,0,2.19,0.99,2.19,2.19l0,0C137.97,29.31,136.98,30.29,135.78,30.29z"/>
		</g>
		<g>
			<path class="st5" d="M116.26,35.12h-13.65c-0.48,0-0.87-0.39-0.87-0.87l0,0c0-0.48,0.39-0.87,0.87-0.87h13.65
				c0.48,0,0.87,0.39,0.87,0.87l0,0C117.13,34.73,116.74,35.12,116.26,35.12z"/>
			<path class="st5" d="M116.15,38.11H102.5c-0.48,0-0.87-0.39-0.87-0.87l0,0c0-0.48,0.39-0.87,0.87-0.87h13.65
				c0.48,0,0.87,0.39,0.87,0.87l0,0C117.02,37.72,116.63,38.11,116.15,38.11z"/>
			<path class="st5" d="M116.15,41.1H102.5c-0.48,0-0.87-0.39-0.87-0.87l0,0c0-0.48,0.39-0.87,0.87-0.87h13.65
				c0.48,0,0.87,0.39,0.87,0.87l0,0C117.02,40.71,116.63,41.1,116.15,41.1z"/>
			<path class="st5" d="M116.26,44.17h-13.65c-0.48,0-0.87-0.39-0.87-0.87l0,0c0-0.48,0.39-0.87,0.87-0.87h13.65
				c0.48,0,0.87,0.39,0.87,0.87l0,0C117.13,43.78,116.74,44.17,116.26,44.17z"/>
			<path class="st5" d="M116.26,47.23h-13.65c-0.48,0-0.87-0.39-0.87-0.87l0,0c0-0.48,0.39-0.87,0.87-0.87h13.65
				c0.48,0,0.87,0.39,0.87,0.87l0,0C117.13,46.84,116.74,47.23,116.26,47.23z"/>
			<path class="st5" d="M116.26,50.3h-13.65c-0.48,0-0.87-0.39-0.87-0.87l0,0c0-0.48,0.39-0.87,0.87-0.87h13.65
				c0.48,0,0.87,0.39,0.87,0.87l0,0C117.13,49.91,116.74,50.3,116.26,50.3z"/>
			<path class="st5" d="M116.26,53.55h-13.65c-0.48,0-0.87-0.39-0.87-0.87l0,0c0-0.48,0.39-0.87,0.87-0.87h13.65
				c0.48,0,0.87,0.39,0.87,0.87l0,0C117.13,53.16,116.74,53.55,116.26,53.55z"/>
			<path class="st5" d="M114.88,30.29h-11.01c-1.2,0-2.19-0.99-2.19-2.19l0,0c0-1.2,0.99-2.19,2.19-2.19h11.01
				c1.2,0,2.19,0.99,2.19,2.19l0,0C117.07,29.31,116.09,30.29,114.88,30.29z"/>
		</g>
	</g>
	<g>
		<line class="st6" x1="80.73" y1="76.34" x2="96.35" y2="60.73"/>
		<line class="st6" x1="106.01" y1="70.39" x2="96.34" y2="60.73"/>
		<line class="st6" x1="116.23" y1="60.07" x2="105.9" y2="70.4"/>
		<line class="st6" x1="122.02" y1="66.02" x2="116.07" y2="60.07"/>
		<line class="st6" x1="122.02" y1="66.02" x2="143.31" y2="33.39"/>
	</g>
	<g>
		<line class="st6" x1="217.72" y1="87.91" x2="189.96" y2="60.15"/>
		<line class="st6" x1="180.3" y1="69.81" x2="189.96" y2="60.15"/>
		<line class="st6" x1="170.08" y1="59.49" x2="180.41" y2="69.82"/>
		<line class="st6" x1="164.29" y1="65.44" x2="170.24" y2="59.49"/>
		<line class="st6" x1="164.48" y1="66.1" x2="143.19" y2="33.47"/>
	</g>
	<g>
		<circle class="st7" cx="245.78" cy="72.8" r="10.4"/>
		<circle class="st7" cx="245.78" cy="72.8" r="8.09"/>
		<circle class="st7" cx="245.78" cy="72.8" r="6.27"/>
		<circle class="st7" cx="245.78" cy="72.8" r="3.56"/>
		<path class="st8" d="M220.93,72.52c0,7.1-5.76,12.86-12.86,12.86s-12.86-5.76-12.86-12.86c0-0.42,12.86,0,12.86,0
			s-0.38-12.86,0-12.86C215.17,59.66,220.93,65.42,220.93,72.52z"/>
	</g>
	<path class="st9" d="M142.59,54.32l-6.72,12.33c4.6,0,9.2,0,13.8,0C145.96,60.19,142.59,54.32,142.59,54.32z"/>
	<path class="st10" d="M153.68,73.64c-1.29-2.24-2.67-4.66-4.02-7c-4.6,0-9.2,0-13.8,0l-3.82,7
		C139.26,73.64,146.47,73.64,153.68,73.64z"/>
	<path class="st9" d="M158.9,82.75c0,0-2.95-5.14-5.23-9.11c-7.21,0-14.42,0-21.63,0l-4.97,9.11H158.9z"/>
	<g>
		<g class="st0">
			<text transform="matrix(0.5563 0 0 1 75.3652 52.5273)" class="st11 st12 st13">In the production environment, the API provides data parallel to Claim and Claim Line Feed (CCLF) files*, currently provided monthly to </text>
			<text transform="matrix(0.5563 0 0 1 75.3652 57.0781)" class="st11 st12 st13">Shared Savings Program ACOs by CMS. This includes Medicare claims data for instances in which beneficiaries receive care outside of the </text>
			<text transform="matrix(0.5563 0 0 1 75.3652 61.6289)" class="st11 st12 st13">ACO, allowing a full picture of patient care. In the production environment, the API provides data parallel to Claim and Claim Line Feed </text>
			<text transform="matrix(0.5563 0 0 1 75.3652 66.1797)" class="st11 st12 st13">(CCLF) files*, currently provided monthly to Shared Savings Program ACOs by CMS. This includes Medicare claims data for instances in </text>
			<text transform="matrix(0.5563 0 0 1 75.3652 70.7295)" class="st11 st12 st13">which beneficiaries receive care outside of the ACO, allowing a full picture of patient care. P</text>
			<text transform="matrix(0.5563 0 0 1 155.2344 70.7295)" class="st11 st12 st13">rovides data parallel to Claim and Claim Line </text>
			<text transform="matrix(0.5563 0 0 1 75.3652 75.2793)" class="st11 st12 st13">Feed (CCLF) files*, currently provided monthly to Shared Savings Program ACOs by CMS. This includes Medicare claims data for instances </text>
			<text transform="matrix(0.5563 0 0 1 75.3652 79.8311)" class="st11 st12 st13">in which beneficiaries receive care outside of the ACO, allowing a full picture of patient care. In the production environment, the API </text>
			<text transform="matrix(0.5563 0 0 1 75.3652 84.3818)" class="st11 st12 st13">provides data parallel to Claim and Claim Line Feed (CCLF) files*, currently provided monthly to Shared Savings Program ACOs by CMS. </text>
			<text transform="matrix(0.5563 0 0 1 75.3652 88.9316)" class="st11 st12 st13">This includes Medicare claims data for instances in which beneficiaries receive care outside of the ACO, allowing a full picture of patient </text>
		</g>
	</g>
</g>
<rect x="350.7" y="24.8" class="st14" width="244.81" height="232.17"/>
<path class="st15" d="M593.47,18.7H352.34c-2.37,0-4.31,4.31-4.31,4.31l0,0c0,2.37,249.75,2.37,249.75,0l0,0
	C597.78,23.02,595.84,18.7,593.47,18.7z"/>
<g>
	<path class="st16" d="M184.11,141.73c0.72-1.02,1.99-3.51,1.99-3.51l-4.02-4.44c0,0-6.49,3.24-8.4,4.71
		c-1.12,0.86-2.77,3.22-3.28,4.54c-0.38,0.97-3.28,6.02-2.03,6.25c1.07,0.19,4.61-3.92,5.65-4.49c1.49-0.82,5.45-2.57,5.45-2.57
		s0.44-0.64,0.35-0.51C181.1,141.33,182.67,141.54,184.11,141.73z"/>
	<path class="st17" d="M242.8,96.14l-11.79,1.96l-34.08,33.61l-10.85,7.15l-4.46-5.65c0,0,25.74-31.96,35.65-38.64
		C221.75,91.56,242.8,96.14,242.8,96.14z"/>
	<polygon class="st4" points="241.14,170.25 238.37,198.78 249.47,198.66 241.97,169.4 	"/>
	<path class="st18" d="M223.62,162.57h35.95l2.24,91.47h-8.85c0,0-6.68-46.42-9.04-62.14c-0.71-4.76-1.82-19.95-1.82-19.95
		s-0.66,8.25-0.96,10.9c-1.02,8.77-2.76,34.9-2.76,34.9l-1.2,36.28H228c0,0-3.82-45.24-4.37-60.36
		C223.34,185.9,223.62,162.57,223.62,162.57z"/>
	<path class="st19" d="M214.86,262.95h23.3c0,0,0.21-4.19-0.03-5.55c-0.16-0.89-0.97-3.37-0.97-3.37h-8.76c0,0-5.04,2.2-6.68,2.74
		c-1.09,0.36-3.42,0.67-4.42,1.24c-0.71,0.4-1.83,1.72-2.14,2.43C214.95,260.96,214.86,262.95,214.86,262.95z"/>
	<polygon class="st16" points="247.41,81.89 247.21,86.89 244.95,102.49 239.56,102.7 236.15,87.44 	"/>
	<polygon class="st11" points="238.58,92.33 240.62,100.47 235.91,97.47 236.12,95.74 	"/>
	<polygon class="st11" points="245.11,91.45 242.24,100.81 248.16,96.91 247.56,94.85 	"/>
	<path class="st20" d="M229.49,65.97c0,0,0.53,14.56,1.53,18.12c0.51,1.82,2.92,3.14,4.9,3.46c5.14,0.82,9.49-3.4,9.49-3.4
		s0.97-1.67,1.1-2.31c0.26-1.27-0.19-5.23-0.19-5.23s1.6,0.04,2.06-0.55c0.56-0.71,1.38-3.72,1.24-4.66
		c-0.08-0.55-1.07-1.92-1.07-1.92l-2.2,1.86l-0.89-6.26c0,0-2.98-0.6-4.24-0.78C238.38,63.89,229.49,65.97,229.49,65.97z"/>
	<path class="st21" d="M249.52,63.98c0,0,0.41,1.97,0.49,2.64c0.16,1.36,0.27,5.45,0.27,5.45s-0.05,3.14-0.18,4.13
		c-0.14,1.06-1.5,3.86-1.69,4.35c-0.47,1.2-2.4,2.46-2.4,2.46l0.3-11.47l-0.83-6.35c0,0-1.74,0.11-2.39,0.01
		c-1.74-0.27-8.06,0.2-8.06,0.2s-4.22,0.68-5.55,0.57c-0.39-0.03-1.51-0.54-1.51-0.54l-1.02-7.2c0,0,3.75,0.29,8.04,0.17
		c4.62-0.13,8.73-2.05,11.37-0.21c0.53,0.37,1.48,1.01,1.94,1.73C249.38,61.56,249.52,63.98,249.52,63.98z"/>
	<path class="st22" d="M231.99,79.64c0,0,1.91-1.93,3.92-1.84c2.94,0.12,4.68,2.28,4.68,2.28s2.58-1.48,3.11-2.28
		c1-1.5,1.28-5.32,1.16-7.11c-0.09-1.38-1.77-5.49-1.77-5.49s-4.35-0.31-5.93-0.22c-1.82,0.1-7.68,1.51-7.68,1.51
		s-2.86-1.45-3.35-2.25c-0.71-1.16-0.12-3.98,0.82-4.95c1.42-1.47,5.19-1.67,7.21-2.05c1.96-0.37,6.03-0.5,8.02-0.31
		c1.74,0.17,5.03,1.62,6.12,2.98c1.09,1.35,1.48,5,1.71,6.71c0.31,2.29,0.47,7.75-0.03,10.09c-0.39,1.87-1.47,3.62-2.58,5.18
		c-1.02,1.44-4.43,4.93-6.28,5.58c-1.67,0.59-6.2,0.43-7.59-0.28c-1.36-0.7-2.46-2.96-2.77-4.18s-0.59-4.99-0.59-4.99L231.99,79.64z
		"/>
	<rect x="233.4" y="81.18" class="st23" width="4.79" height="1.53"/>
	<path class="st19" d="M241.64,265.02l22.86-4.51c0,0-0.6-4.15-1.1-5.44c-0.33-0.84-1.6-3.12-1.6-3.12l-8.6,1.69
		c0,0-4.52,3.14-6.02,3.98c-1,0.56-3.23,1.32-4.1,2.07c-0.61,0.53-1.46,2.04-1.63,2.8C241.34,263.06,241.64,265.02,241.64,265.02z"
		/>
	<path class="st24" d="M232.8,94.51c0,0,4.52,5.14,8.33,4.98c4.45-0.18,7.71-4.98,7.71-4.98l0.62,68.06h-13.24L232.8,94.51z"/>
	<path class="st17" d="M234.29,88.73c0,0-8.87-0.15-13.76,2.71c-1.95,1.14-2.61,6.06-3.34,7.22c-1.75,2.78-0.48,12.49-0.48,12.49
		l4.28,41.01l1.19,19.58l-0.4,27.03h16.59v-58.1c0,0-1.07-20.44-1.55-27.26C236.38,107.17,234.29,88.73,234.29,88.73z"/>
	<polygon class="st4" points="238.85,91.95 234.87,97.47 234.33,88.62 236.24,88.01 236.59,89.5 	"/>
	<path class="st25" d="M248.07,87.19c0,0,16.14,6.28,18.7,10.35c1.75,2.78,2.77,10.17,3.42,13.62c1.16,6.16,4.68,20.94,3.89,24.78
		c-0.53,2.59-1.63,7.71-3.12,9.81c-1.51,2.12-8.09,6.54-8.09,6.54l-0.12,19.46l0.39,26.34l-25.8,1.07l6.84-64.63
		c0,0,0.92-13.9,1.4-20.71C246.02,107.57,248.07,87.19,248.07,87.19z"/>
	<path class="st4" d="M244.95,91.66l3.98,5.52l0.58-9.41l-2.29-0.87c0,0-0.1,1.59-0.3,2.08C246.59,89.74,244.95,91.66,244.95,91.66z
		"/>
	
		<rect x="259.71" y="141.17" transform="matrix(0.9268 -0.3755 0.3755 0.9268 -36.3414 108.6579)" class="st4" width="1.78" height="12.79"/>
	<path class="st26" d="M235.59,73.77c3.54,1.06,6.02,3.09,9.69,2.09c1.94-0.02,1.55,2.41,1.63,2.91c-0.69,1.36-0.36,0.72-0.36,0.72
		c-0.79,2.03-4.29,4.67-4.29,4.67s-3.22,3.3-4.07,3.86c-2.44,1.6-3.97,0.53-5.07,0.09c-1.41-0.57-1.96-3.99-2.98-5.15
		c-1.43-1.63-0.1-4.72-0.1-4.72l-0.37-2.1C231.62,73.58,232.69,72.55,235.59,73.77z"/>
</g>
<g>
	<g>
		<path class="st27" d="M139.08,64.71c-1.21,0.34-3.27,0.4-3.27,0.4l-3.38-6.68c0,0,1.76-2.05,3.79-3.35
			c1.19-0.76,3.95-2.41,5.88-3.45c1-0.54,7.87-5.66,8.66-4.67c1.02,1.27-2.52,2.58-3.91,4.62c-0.4,0.58-1.04,1.41-1.04,1.41
			s0.82,0.34,0.79,1.21c-0.06,1.7-5.29,5.03-5.29,5.03s-0.75,0.2-0.59,0.16C139.93,60.48,139.39,63.29,139.08,64.71z"/>
		<path class="st27" d="M136.92,64.06l-4.49-5.62L105.86,78c0,0-0.04,0-0.09,0.01c1.03,4.45,2.95,8.71,6.01,12l15.73-17
			L136.92,64.06z"/>
		<path class="st28" d="M82.49,82.93c-3.95,3.68,0,26.72,0,26.72l4.57-11.04l23.51-5.58l1.96-2.18c-3.06-3.29-5.73-8.4-6.76-12.84
			C104.35,78.16,85.3,80.31,82.49,82.93z"/>
		<path class="st27" d="M138.92,60.39c0.67-0.49,2.84-2.03,3.8-2.22c0.18-0.04,1.74-1.88,2.65-2.48c0.87-0.57,0.9,1.85,0.84,1.96
			c0,0-0.22,0.53-0.14,0.96c0.18,0.96-0.3,1.28-0.41,1.42s-0.27,1.08-0.66,1.74c-0.59,1-1.3,2.03-5.52,2.81
			c-0.07,0.01-0.3,0.08-0.45,0.12C138.81,63.27,138.57,61.7,138.92,60.39z"/>
	</g>
	<g>
		<path class="st19" d="M84.43,260.38l-27.86-3.88c0,0,0.44-5.04,0.95-6.63c0.34-1.04,1.72-3.87,1.72-3.87l10.48,1.45
			c0,0,5.66,3.47,7.53,4.39c1.24,0.61,3.98,1.37,5.08,2.21c0.78,0.59,1.9,2.36,2.15,3.26C84.66,257.99,84.43,260.38,84.43,260.38z"
			/>
		<path class="st19" d="M100.83,256.51h-23.3c0,0-0.21-4.19,0.03-5.55c0.16-0.89,0.97-3.37,0.97-3.37h8.76c0,0,5.04,2.2,6.68,2.74
			c1.09,0.36,3.42,0.67,4.42,1.24c0.71,0.4,1.83,1.72,2.14,2.43C100.75,254.53,100.83,256.51,100.83,256.51z"/>
		<g>
			<g>
				<path class="st29" d="M99.99,115.57c-0.49-2.65-3.15-8.82-3.15-8.82l-7.54,1.83L89,110.2l-6.04,3.83l-10.73,1.14l-5.35,1.45
					l-6.04,3.59c0,0,3.42,2.22,4.73,2.45c3.72,0.64,9.89-0.53,15.33-1.77c2.95-0.68,5.36-0.04,7.4,0.15
					c1.74,0.16,6.79,1.21,9.08,0.54C100.45,120.68,100.29,117.18,99.99,115.57z"/>
				<path class="st28" d="M63.6,82.19c0,0-14.79,4.56-16.99,8.23c-3.44,5.74-4.69,33.76-4.69,33.76l8.35,0.23l4.67,37.92l19.36,9.02
					l15.97-11.75l-1.31-37.67v-11.8l8.68-2.23c0,0-5.07-18.66-9.16-22.5c-2.73-2.56-14.87-4.19-14.87-4.19s-1.06,3.85-4.41,4
					C66.35,85.33,63.6,82.19,63.6,82.19z"/>
				<path class="st28" d="M89.16,146.84l-16.58,1c1.99,7.07-0.43,14.48-0.17,21.93l0.07-0.45l3.2,37l2.59,42.45H89.4l1.34-51.19
					l4.63-43.56L89.16,146.84z"/>
				<path class="st30" d="M90.56,160.97c0,0-11.42,6.48-15.68,6.65c-5.34,0.21-20.29-6.75-20.29-6.75l-0.37-4.23
					c0,0,3.95,30.83,4.21,41.17c0.32,12.75-1.25,50.9-1.25,50.9l15.2-0.69l8.11-65.84C80.24,174.74,92.55,168.04,90.56,160.97z"/>
				<polygon class="st31" points="64.62,77.23 63.6,82.99 70.65,94.45 74.29,84.79 72.89,77.58 				"/>
				<path class="st27" d="M77.56,58.87c0,0,1.31,10.48,0.81,13.94c-0.26,1.77-1.9,5.27-3.76,6.07c-2.27,0.98-10.58-0.91-10.58-0.91
					s-1.23-1.44-1.45-2.01c-0.45-1.15-0.56-4.91-0.56-4.91s-1.62,0.25-2.18-0.24c-0.67-0.59-1.93-3.3-1.93-4.19
					c0-0.52,0.81-1.93,0.81-1.93l2.5,1.45v-5.96c0,0,2.94-0.95,4.2-1.29C68.23,58.11,77.56,58.87,77.56,58.87z"/>
				<path class="st32" d="M56.94,59.67c0,0-0.14,1.9-0.12,2.53c0.03,1.29,0.51,5.13,0.51,5.13s0.5,2.92,0.78,3.83
					c0.29,0.97,2.08,3.4,2.35,3.84c0.65,1.06,2.79,1.98,2.79,1.98l-1.12-6.11c0,0-0.84,0.44-1.34,0.21c-0.53-0.25-0.97-0.6-0.97-0.6
					s-1.71-2.52-1.73-3.52c-0.01-0.59,0.12-1.59,0.69-1.78c0.72-0.24,2.52,1.13,2.52,1.13l-0.07-6.04c0,0,1.78-0.13,2.43-0.31
					c1.73-0.49,6.11,0.05,8.15-0.05c1.47-0.07,4.44-0.76,5.78-1.04c0.39-0.08,1.45-0.71,1.45-0.71V51.3c0,0-3.76,0.77-8.13,1.23
					c-4.7,0.49-9.16-0.75-11.57,1.31c-0.48,0.41-1.35,1.14-1.72,1.87C56.73,57.39,56.94,59.67,56.94,59.67z"/>
				<path class="st26" d="M79.41,71.65l-0.05,0.16c0,0-0.64,2.62-1.97,4.05c-0.95,1.03-2.08,3.49-3.38,3.99
					c-1.02,0.39-2.69,1.43-4.94,0.02c-0.79-0.49-2.03-3.11-2.03-3.11s-4.43-2.79-5.16-4.58c0,0,0,0,0-0.01
					c0.07-0.44-0.29-2.58,1.5-2.56c3.39,0.88,5.68-0.91,8.96-1.84C75.03,66.7,77.6,69.41,79.41,71.65z"/>
			</g>
			<path class="st28" d="M85.39,85.99c1.53-1.01,2.02-0.53,3.64,0.27c3.16,1.57,7.27,9.67,8.72,12.85
				c1.54,3.4,1.28,45.32,1.28,45.32l-14.66,1.84c0,0,3.72-37.29,2.8-39.82C86.08,103.41,83.9,86.98,85.39,85.99z"/>
		</g>
	</g>
</g>
<g>
	<path class="st33" d="M169.97,160.6c0,0.55,1.55,1.93,1.55,1.93s4.19,0,6.31,0c2.17,0,6.71-0.21,6.71-0.21s1.15-1.19,1.15-1.72
		c0-1.07-3.52-1.93-7.86-1.93C173.49,158.66,169.97,159.53,169.97,160.6z"/>
	<path class="st33" d="M151.31,159.99c0,0.55,1.55,1.93,1.55,1.93s4.19,0,6.31,0c2.17,0,6.71-0.21,6.71-0.21s1.15-1.19,1.15-1.72
		c0-1.07-3.52-1.93-7.86-1.93S151.31,158.92,151.31,159.99z"/>
</g>
<g>
	<path class="st34" d="M58.44,172.56c0,0-2.16,15.57-3.18,20.68c-0.87,4.38-2.58,17.29-2.58,17.29l-0.24,41.93l-11.71,1.05
		c0,0-7.3-26.11-7.03-34.15c0.13-3.97,2.68-11.71,2.77-15.68c0.04-1.68-1.42-6.85-1.42-6.85l-1.94-27.78L58.44,172.56z"/>
	<path class="st35" d="M47.9,175.75l-6.45,36.59l0.82,39.88l-13.02,0.15c0,0-5.25-23.13-4.99-31.17c0.13-3.96,2.68-11.71,2.77-15.68
		c0.04-1.68-1.12-5.13-1.42-6.85c-1.19-6.86-1.94-27.78-1.94-27.78L47.9,175.75z"/>
	<path class="st34" d="M45.79,116.29c-5.9,1.35-0.96,15.94-0.96,15.94l1.63,18c0,0,6.36-0.28,9.1-0.87
		c2.86-0.62,9.46-2.86,9.46-2.86s-2.66-13.89-4.27-17.11C58.23,124.35,49.71,115.39,45.79,116.29z"/>
	<path class="st36" d="M24.39,117.63c2.19-0.98,8.68-2.1,8.68-2.1l-4.16,3.44l15.85,8.81l2.22-9.4l-3.64-1.35l-1.28-2.3
		c0,0,3.99,1.86,5.35,2.66c3.71,2.16,7.09,8.45,8.93,11.83c2.22,4.09,2.45,8.45,2.45,8.45l-2.21,9.98l3.07,17.94l-0.14,7.21
		c0,0-10.66,2.95-14.33,2.91c-5.56-0.06-21.52-4.85-21.52-4.85l3.54-19.02c0,0-6.92-0.02-9.2-0.3c-1.62-0.2-4.9-1.26-4.9-1.26
		s2.22-18.53,4.8-24.6C18.97,123.19,21.67,118.85,24.39,117.63z"/>
	<path class="st37" d="M49.52,103.81c0.1-0.3,0.23,3.03-0.51,4.53c-1.38,2.79-1.5,5.3-5.31,5.33c-6.56,0.06-8.91-4.71-10.4-6.44
		c-0.49-0.57-1.66-3.55-1.66-3.55s-0.94-0.32-1.31-0.69c-1.13-1.15-1.12-3.48-1.1-4.58c0.01-0.82,0.5-1.91,0.5-1.91
		s0.14-8.26,11.8-8.03C53.36,88.71,49.52,103.81,49.52,103.81z"/>
	<path class="st37" d="M46.98,118.38c0,0-3.47-2.13-4.17-3.29c-0.84-1.39-0.96-5.45-0.96-5.45l-8.95-6.23l-1.08,12.29
		c0,0-3.95,2.42-2.5,3.57c2.36,1.87,15.27,8.88,15.27,8.88s1.5-3.13,1.78-4.23C46.73,122.56,46.98,118.38,46.98,118.38z"/>
	<g>
		<path class="st38" d="M39.05,252.25c0.32,0.2-0.38,4.93-0.38,4.93l6.43,0.69c0,0,5.25,1.88,5.58,2.16s8.84,0.8,8.84,0.8l2.59-1.42
			l-12.65-7.28L39.05,252.25z"/>
		<path class="st39" d="M31.87,252.34c0.32,0.3-0.36,7.09-0.36,7.09l6.44,1.02c0,0,5.26,2.73,5.59,3.13s8.84,1.19,8.84,1.19
			l2.58-2.03L42.27,252.2L31.87,252.34z"/>
	</g>
	<path class="st34" d="M24.16,117.99c6.09-0.06,4.05,15.19,4.05,15.19l3.64,17.77c0,0-6.22,1.2-9.04,1.26
		c-2.94,0.06-10.74-1.49-10.74-1.49s0.53-9.59,1.15-13.08C14.19,132.2,20.12,118.03,24.16,117.99z"/>
	<path class="st26" d="M50.7,105.31l-0.02,0.15c0,0-0.18,2.41-1.13,3.87c-0.69,1.05-1.31,3.39-2.39,4.03
		c-0.85,0.5-2.16,1.66-4.36,0.75c-0.78-0.32-4.05-0.97-5.13-1.79c-1.8-1.38-4.11-6.08-5.02-7.55c0,0-0.65-2.24,0.94-2.49
		c3.13,0.27,7.54,1.98,10.29,0.67C46.09,101.59,48.76,103.6,50.7,105.31z"/>
	<path class="st40" d="M44.08,90.1c0,0-1.57,1.75-3.73,3.73c-1.86,1.72-5.71,2.35-5.71,2.35s-2.6-0.65-2.78,0.17
		c-0.77,3.56,1.24,3.91,1.24,3.91l-0.16,4.99l-1.19,10.87l-3.47,0.83L24.04,118c0,0,1.86-24.73,3.42-27.56
		c1.13-2.05,5.84-4.53,8.03-4.83c5.55-0.77,10.06,1.46,10.06,1.46s2.38,0.29,3.66,2.86c0.67,1.36,0.93,5.88,0.93,5.88L44.08,90.1z"
		/>
	<polygon class="st41" points="37.65,168.07 53.95,166.53 51.03,142.11 34.72,143.65 	"/>
	<g>
		<polygon class="st41" points="39.88,166.48 56.19,164.93 53.26,140.51 36.96,142.06 		"/>
		<g>
			<path class="st37" d="M48.48,151.89l-19.17,2.05l-1.15-2.87l-16.66-1.35c0,0,3.42,6.61,4.08,7.74s3.58,5.02,4.85,5.36
				c6.25,1.72,25.07-2.83,25.07-2.83l12.33-4l2.85-8.62c0,0-6.65-0.95-8.83,0.1C50.34,148.21,48.48,151.89,48.48,151.89z"/>
			<polygon class="st37" points="62.55,146.72 62.63,153.68 56,155.5 54.55,149.24 			"/>
		</g>
	</g>
</g>
<g>
	<path class="st35" d="M292.84,97.9c0,0,14.25,4.4,16.37,7.93c3.32,5.53-2.4,24.56-2.4,24.56h-5.79l0.86,37.95h-18.01l-17.15-3.49
		l1.72-28.67v-11.36l-8.36-2.14c0,0,4.89-17.98,8.82-21.67c2.63-2.47,13.21-3.09,13.21-3.09s2.14,2.77,5.36,2.9
		C290.18,100.92,292.84,97.9,292.84,97.9z"/>
	<path class="st39" d="M257.75,265.24h20.98c0,0,0.19-3.77-0.02-4.99c-0.14-0.8-0.87-3.03-0.87-3.03h-7.89c0,0-4.54,1.98-6.01,2.47
		c-0.98,0.32-3.08,0.61-3.98,1.11c-0.63,0.36-1.65,1.55-1.93,2.19C257.83,263.45,257.75,265.24,257.75,265.24z"/>
	<path class="st39" d="M286.63,267.11l20.59-4.06c0,0-0.54-3.74-0.99-4.89c-0.29-0.76-1.44-2.81-1.44-2.81l-7.74,1.52
		c0,0-4.07,2.82-5.42,3.59c-0.9,0.51-2.9,1.19-3.69,1.86c-0.55,0.47-1.32,1.84-1.47,2.52C286.36,265.33,286.63,267.11,286.63,267.11
		z"/>
	<path class="st35" d="M268.21,160.19l15.98,0.97c-1.92,6.81,0.41,13.95,0.17,21.13l-0.06-0.44l-4.5,35.17l-1.07,41.38h-10.72
		l-1.29-49.32v-42.24L268.21,160.19z"/>
	<path class="st34" d="M267.18,163.56l21.68,1.37l11.3-2.81l1.72,7.5v39.45l3.99,48.29l-11.08,0.49l-10.43-75.58
		C284.6,175.1,265.26,170.37,267.18,163.56z"/>
	<path class="st42" d="M257.77,130.06c0.47-2.55,2.29-8.64,2.29-8.64l10.21,2l-0.58,2.33l-0.01,2.91c0,0,15.35,1.54,19,1.48
		c2.67-0.04,9.64,0.06,9.64,0.06l1.66,4c0,0-8.75,1.88-10.03,1.93c-3.47,0.16-9.12,1.89-14.49,1.89c-2.39,0-4.09,0.21-6.05,0.39
		c-1.68,0.16-7.01-0.01-9.21-0.65C257.25,136.87,257.49,131.61,257.77,130.06z"/>
	<path class="st20" d="M306.56,129.53c0,0-2.81,8.3-5.35,9.25c-3.08,1.15-11.94-4.46-11.94-4.46l-13.92-5.26l-5.66-0.41l0.01-2.91
		c0,0,1.96-2.75,3.22-2.97c5.53-0.96,16.69,2.25,22.17,3.46C297.99,126.87,306.56,129.53,306.56,129.53z"/>
	<path class="st34" d="M304.45,102.77c1.53-0.09,3.93,1.76,4.76,3.05c1.62,2.53,0.84,9,0.53,11.98c-0.32,3.18-2.55,13.54-2.55,13.54
		l-12.7-5c0,0,2.34-5.67,2.76-7.94c0.5-2.73,1.16-8.9,2.73-11.18C300.83,105.99,302.95,102.86,304.45,102.77z"/>
	<path class="st34" d="M273.53,99.81c-1.31-0.87-1.74-0.45-3.13,0.25c-2.72,1.37-6.28,8.38-7.53,11.14
		c-1.34,2.94-3.82,13.24-3.82,13.24l11.12,1.37c0,0,0.97-6.1,1.77-8.3C272.89,114.87,274.81,100.66,273.53,99.81z"/>
	<polygon class="st43" points="291.85,93.12 293.28,101.15 281.25,100.4 283.88,93.46 	"/>
	<path class="st20" d="M279.39,75.43c0,0-1.26,10.1-0.78,13.43c0.25,1.7,1.83,5.07,3.62,5.85c2.18,0.94,10.19-0.88,10.19-0.88
		s1.18-1.38,1.4-1.94c0.43-1.11,0.54-4.73,0.54-4.73s1.56,0.24,2.1-0.23c0.65-0.57,1.86-3.17,1.86-4.04c0-0.5-0.78-1.86-0.78-1.86
		l-2.21,0.8l-0.19-5.15c0,0-2.83-0.92-4.04-1.24C288.37,74.7,279.39,75.43,279.39,75.43z"/>
	<path class="st44" d="M299.25,76.21c0,0,0.13,1.83,0.11,2.44c-0.03,1.24-0.49,4.94-0.49,4.94s-0.49,2.82-0.75,3.69
		c-0.28,0.94-2,3.28-2.26,3.7c-0.63,1.02-2.68,1.9-2.68,1.9l1.33-7.22c0,0,2-0.31,2.41-0.8c0.47-0.56,1.22-2.64-0.06-3.26
		c-0.53-0.25-1.78,1-1.78,1l0.07-5.82c0,0-1.69-0.25-2.34-0.3c-1.89-0.14-5.41-1.28-7.26-1.38c-1.54-0.08-4.87,0.6-6.16,0.33
		c-0.38-0.08-0.32-2.56-0.02-3.35c0.62-1.64,2.25-3.21,6.46-2.77c4.53,0.47,8.82-0.73,11.15,1.26c0.46,0.4,1.3,1.1,1.66,1.81
		C299.46,74.01,299.25,76.21,299.25,76.21z"/>
	<path class="st26" d="M284.79,82.46c3.19,0.96,5.42,2.78,8.72,1.88c1.75-0.02,1.39,2.17,1.47,2.62v0.01
		c-0.94,1.37,0.1,4.89-1.7,6.43c-0.9,0.77-3.16,0.51-5.3,1.42c-2.2,1.44-4.97,0.29-5.97-0.11c-1.27-0.51-1.13-0.84-2.06-1.88
		c-1.29-1.46-2-6.24-2-6.24l-0.05-0.17C279.67,84.13,282.18,81.37,284.79,82.46z"/>
</g>
<g>
	<path class="st45" d="M298.41,174.86c0,0,0.6,12.01,1.83,13.54c0,0,3.62-2.61,4.15-4.34c0.56-1.83-1.41-5.65-1.26-7.56
		c0.11-1.29,2.34-4.57,2.34-4.57l-0.58-1.86L298.41,174.86z"/>
	<g>
		<path class="st46" d="M307.7,200.46l2.7,29.6l-0.56,35.19l11.34-1.12c0,0,4.28-19.19,4.54-25.62c0.13-3.17,1.13-10.37,1.14-13.54
			c0.01-4.78-1.98-12.64-1.98-12.64l0.27-13.93L307.7,200.46z"/>
		<path class="st47" d="M309.54,192.55c0,0,4.99,1.76,7.35,1.73c3.28-0.05,7.35-1.63,7.35-1.63l-1.69-16.41h-12.06L309.54,192.55z"
			/>
		<path class="st48" d="M312.11,201.73l4.79,29.35l-0.56,35.19l11.34-1.12c0,0,4.28-19.19,4.54-25.62
			c0.13-3.17,1.13-10.37,1.14-13.54c0.01-4.78-1.98-12.64-1.98-12.64l0.27-13.93L312.11,201.73z"/>
		<path class="st46" d="M327.28,264.31c-0.31,0.33,0.43,7.71,0.43,7.71l-6.18,1.2c0,0-5.03,3.04-5.34,3.48
			c-0.31,0.43-8.49,1.41-8.49,1.41l-2.5-2.17l12.08-11.62h10V264.31z"/>
		<path class="st46" d="M320.37,264.31c-0.31,0.23,0.43,5.36,0.43,5.36l-6.18,0.83c0,0-5.03,2.11-5.34,2.42
			c-0.31,0.3-8.49,0.98-8.49,0.98l-2.5-1.51l12.08-8.08H320.37z"/>
		<path class="st49" d="M304.33,111.91c0,0-3.84,6.88-4.5,9.49c-0.58,2.3,1.24,10.27,1.24,10.27l0.88,28.42l-2.17,41.19
			c0,0,18.75,1.09,22.79,1.06c5.64-0.04,18.19-1.89,18.19-1.89s-0.02-25.59-2.83-34.18c-0.87-2.67-6.09-11.5-6.09-11.5l0.35-23.66
			l9.9,6.97c0,0-0.16,2.52-1.13,4.39c-2.18,4.19-7.89,12.12-7.89,12.12l5.83,9.35c0,0,16.51-16.02,18.02-21.96
			c1.42-5.55-6.01-15.33-8.99-20.17c-3.11-5.03-14.68-18.76-14.68-18.76s-2.51-2.08-6.33-0.74c-1.32,0.46-8.21-3.67-12.5-1.64
			C308.95,103.25,304.33,111.91,304.33,111.91z"/>
		<path class="st50" d="M310.23,76.56c2.98-2.3,10.51-4.13,14.01-2.7c3.91,1.6,9.46,9.38,10.24,13.74
			c1.63,9.07,1.44,18.67,1.44,18.67l-20.89,18.17l3.25-27.54l-4.69,5.28l1.45,6.91c0,0-5.87,3.28-6.89,4.27
			c-1.81,1.77-6.98,4.47-6.98,4.47s0.29-4.99-0.46-7.82c-1.48-5.56-1.16-17.26,0.77-23.07C302.52,83.79,306.71,79.27,310.23,76.56z"
			/>
		<path class="st51" d="M313.22,98.37c1.04,3.39,1.02,10.36,1.02,10.36l-8.41,11.75l10.61-7.95l6.72-18.77L313.22,98.37z"/>
		<path class="st45" d="M308.78,84.24c-1.03,4.12-0.84,7.97-0.88,11.58c-0.05,4.83,0.66,8.07,3.91,9.31
			c3.05,1.17,7.34-0.99,10.78-3.69c0.67-0.53-0.43-0.78,0.21-1.32c2.53-2.17,1.14-5.8,1.12-7.76c-0.02-2.21,1.2-5.15-5.48-6.96
			c-4.99-1.35-6.6-6.14-6.6-6.14S309.4,81.79,308.78,84.24z"/>
		<path class="st45" d="M334.94,156.29c0,0-11.58-0.57-13.17,0.55c0,0,2.15,4,3.75,4.71c1.7,0.76,5.56-0.9,7.38-0.55
			c1.23,0.24,4.15,2.87,4.15,2.87l1.84-0.41L334.94,156.29z"/>
		<path class="st49" d="M310.02,194.26c0,0,4.99,1.76,7.35,1.73c3.28-0.05,7.35-1.63,7.35-1.63l-1.69-16.41h-12.06L310.02,194.26z"
			/>
		<polygon class="st52" points="310.47,183.12 323.9,183.12 323.28,177.72 310.83,177.72 		"/>
		<path class="st26" d="M314,91.96c3.46,1.3,5.8,3.48,9.52,2.74c1.94,0.11,1.38,2.51,1.43,3.01v0.01c-0.92,1.97-3.68,5.06-3.68,5.06
			s-3.76,2.62-4.66,3.12c-2.54,1.43-4.26,0.14-5.33-0.38c-1.37-0.66-2.4-3.53-3.35-4.76c-1.32-1.72-0.87-4-0.87-4l0.84-2.82
			C310.03,91.52,311.18,90.55,314,91.96z"/>
	</g>
</g>
<g>
	<path class="st53" d="M227.16,181.58c0,0-22.47-11.74-30.53-14.17c-5.4-1.62-16.67-3.25-22.31-3.36
		c-7.66-0.15-23.11,1.22-30.47,3.36c-8,2.33-28.87,14.17-30.16,14.17S227.16,181.58,227.16,181.58z"/>
	<rect x="115.11" y="181.21" class="st54" width="111.35" height="18.32"/>
	<g>
		<rect x="109.33" y="195.94" class="st55" width="123.26" height="12.19"/>
		<rect x="109.68" y="226.98" class="st55" width="123.26" height="12.19"/>
		<rect x="109.68" y="243.07" class="st55" width="123.26" height="4.53"/>
		<rect x="110.24" y="169.06" class="st55" width="120.9" height="4.53"/>
		<rect x="226.45" y="168.93" class="st55" width="6.14" height="96.1"/>
		<rect x="108.96" y="168.93" class="st55" width="6.14" height="96.1"/>
	</g>
</g>
<g>
	<path class="st33" d="M177.2,150.3c-0.06-0.04-3.07-9.13-3.07-9.13l-1.26-7.82l-7.44-6.85l-2.22,13.03
		c0.57,0.13,0.77,0.2,1.03,0.39C166.86,142.29,174.09,150.38,177.2,150.3z"/>
	<g>
		<path class="st33" d="M183.55,116.38l-1.97-4.72c0,0-4-2.33-5.85-2.51c-0.68-0.07-7.42-1.42-10.6,3.07
			c-0.69,0.97-3.51,3.56-4.1,4.4c-1.5,2.14-1.05,6.33-1.05,6.33s-2.56,0.89-0.77,3.44c1.25,1.78,1.88,2.91,2.71,3.28
			c0.67,0.3,2.28-0.52,2.28-0.52s2.19,3.63,3.47,4.74c1.77,1.55,4.07,3.61,4.07,3.61s6.64,2.01,7.76,2.12c3.2,0.3,3-1.25,3.88-2.23
			c1.12-1.26,2.12-4.46,2.56-6.09c0.62-2.28-0.6-6.03-0.6-6.03L183.55,116.38z"/>
		<path class="st56" d="M161.73,113.99c1.01-1.8,2.39-3.12,3.2-3.76c1.65-1.3,4.44-1.52,6.84-2.39c3.87-1.41,9.4,2.1,9.4,2.1
			s0.89,1.45,1.05,1.81c0.74,1.61,1.85,3.88,1.61,5.64c-0.08,0.61,0.53,3.46,0.53,3.46l-3.5-7.48c0,0-3.53-1.26-4.75-0.67
			c-4.99,2.42-7.12,3.98-7.12,3.98l-3.08,2.4l1.09,4.7l-0.38,2.39l-1.85,0.8c0,0-0.63-1.51-0.86-2.02
			c-0.27-0.61-0.94-1.52-1.51-1.86c-1.44-0.85-3.59,0.51-3.59,0.51s-0.73-1.36-0.56-2.57c0.12-0.84,0.06-3.23,0.29-3.8
			C159.16,115.77,161.3,114.76,161.73,113.99z"/>
		<path class="st28" d="M176.38,125.57c-2.87,2.71-6.71,0.75-10.67,1.62c-1.86,0.92-0.67,5.38-0.51,5.88l2.94,2.76
			c1.71,1.49,6.56,3.21,6.56,3.21s3.7,0.84,4.78,0.95c3.08,0.29,3.04-1.65,3.88-2.61c1.08-1.21,2.13-4.4,2.55-5.98
			c0.6-2.2-0.14-5.29-0.14-5.29l-0.04-0.2C182.68,124.5,178.58,123.02,176.38,125.57z"/>
	</g>
	<path class="st57" d="M174.81,167.3h16.77c0,0-0.03-13.53-5.4-20.25c-1.5-1.88-12.18-8.43-12.28-7.28c-0.2,2.17,1.2,2.95-5.23,2.95
		c-0.39,0-5.46-4.79-5.46-4.79s-8.97,3.45-12.73,5.83c-1.71,1.07-3.68,5.91-4.44,8.73c-0.54,2.01-1.96,12.68-1.51,14.72
		C144.87,168.69,174.81,167.3,174.81,167.3z"/>
	<path class="st56" d="M165.8,103.15l-5.22,3.01c-1.92,1.11-2.58,3.59-1.48,5.51l0,0c1.11,1.92,3.59,2.58,5.51,1.48l5.22-3.01
		c1.92-1.11,2.58-3.59,1.48-5.51l0,0C170.19,102.7,167.72,102.04,165.8,103.15z"/>
	<path class="st16" d="M180.14,140.01c-0.69,0.47-1.8,0.88-2.3,1.72c-0.22,0.37-2.37,1.9-1.45,2.29c0.76,0.32,5.93-1.27,7.65-2.29
		c0.06-0.04,0.04-0.06,0.11-0.11C182.87,140.92,181.48,140.12,180.14,140.01z"/>
</g>
<path class="st8" d="M143.48,141.5l-1.25,3.13l-3.07,6.41c0,0-4.05,8.43-5.33,10.93c-1.15,2.22-3.31,7.91-5.84,8.26
	c-10.82,1.48-28.84-24.32-28.84-24.32s5.56-1.77,6.58-1.49c2.6,0.71,8.91,6.07,8.91,6.07l7.29,6.66l1.5,1.47
	c1.75-2.05,4.2-4.92,5.28-6.25c1.62-1.98,6.43-8.05,6.43-8.05l4.08-4.7L143.48,141.5z"/>
<path class="st15" d="M140.42,152.33l-10.51-3.54c-0.81-0.27-1.25-1.16-0.97-1.97l8.11-24.03c0.27-0.81,1.16-1.25,1.97-0.97
	l10.51,3.54c0.81,0.27,1.25,1.16,0.97,1.97l-8.11,24.03C142.12,152.16,141.23,152.6,140.42,152.33z"/>
<g>
	
		<ellipse transform="matrix(0.369 -0.9294 0.9294 0.369 -39.4537 223.9323)" class="st33" cx="145.2" cy="141.02" rx="1.33" ry="3.62"/>
	
		<ellipse transform="matrix(0.369 -0.9294 0.9294 0.369 -41.572 223.7841)" class="st33" cx="144.03" cy="142.51" rx="1.33" ry="4.16"/>
	<path class="st33" d="M147.28,145.58c-0.27,0.69-1.69,0.76-3.55,0.03c-1.86-0.74-3.14-1.89-2.87-2.57c0.27-0.69,2-0.64,3.85,0.09
		C146.57,143.86,147.55,144.9,147.28,145.58z"/>
	<path class="st33" d="M147.05,145.98c-0.14,0.2-3.42,1.68-3.42,1.68l0.64-2.72l3.61-3.7l0.68,1.09
		C148.56,142.35,147.74,145,147.05,145.98z"/>
</g>
<g>
	<path class="st50" d="M112.32,263.6c0,0,1.08,2.19,1.58,2.83c1.29,1.67,4.3,4.82,5.92,6.15c1.2,1,5.05,3.53,5.05,3.53
		s-0.38,1.06-0.72,1.29c-1.48,1.02-5-0.09-6.86-0.46c-1.39-0.28-4.07-0.96-5.22-1.8c-1.41-1.02-4.49-5.13-4.49-5.13l-0.08,6
		l-1.66,0.08c0,0-0.93-4.17-1.14-5.75c-0.12-0.94-0.16-3.2,0.17-4.09c0.29-0.77,1.55-2.77,1.55-2.77L112.32,263.6z"/>
	<path class="st50" d="M99.42,263.6c0,0,1.08,2.19,1.58,2.83c1.29,1.67,4.3,4.82,5.92,6.15c1.2,1,5.05,3.53,5.05,3.53
		s-0.38,1.06-0.72,1.29c-1.48,1.02-5-0.09-6.86-0.46c-1.39-0.28-4.07-0.96-5.22-1.8c-1.41-1.02-4.49-5.13-4.49-5.13l-0.08,6
		l-1.66,0.08c0,0-0.93-4.17-1.14-5.75c-0.12-0.94-0.16-3.2,0.17-4.09c0.29-0.77,1.55-2.77,1.55-2.77L99.42,263.6z"/>
	<ellipse class="st58" cx="97.13" cy="104.83" rx="3.61" ry="3.72"/>
	<ellipse class="st58" cx="93.99" cy="97.83" rx="1.47" ry="1.52"/>
	<polygon class="st59" points="92.93,236.71 99.72,237.71 97.17,264.49 93.53,264.24 93.05,237.34 	"/>
	<polygon class="st59" points="112.22,235.71 109.67,263.86 105.91,264.12 106.27,237.34 	"/>
	<path class="st60" d="M105.08,99.9c-6.44,0-11.43,6.09-11.43,15.54c0,0.22-0.58,0.15-1.06,0.37c-0.6,0.28-1.13,1.22-1.19,1.52
		c-0.61,2.78,0.93,4.67,1.83,5.31c1.08,0.77,3.37,0.65,3.37,0.65l0.49,3.18l6.67,5c0,0,2.91,2.49,4.17,2.1
		c3.27-1.01,6.69-4.04,8.32-10.26c0.43-1.65-0.49-3.61-0.45-4.72c0.07-1.76,0.81-2.08,0.81-2.83
		C116.6,106.31,111.52,99.91,105.08,99.9z"/>
	<path class="st60" d="M103.74,131.47c0,0,0.05,2.55,0.23,3.22c0.15,0.57,1.07,1.76,1.07,1.76l5.01,5.49l1.71,7.41l-5.32,3.21
		l-9.94-14.81l0.65-11.62L103.74,131.47z"/>
	<path class="st61" d="M102.33,225.89l-1.91-19.64c0-1.04-1.88-3.18-1.88-3.18c-1.01,0-1.81,2.13-1.81,3.18l-0.43,21.04
		c0,1.04,0.71,2.91,2.28,1.82l0,0C99.6,229.11,102.33,226.93,102.33,225.89z"/>
	<path class="st50" d="M91.6,117.02c0,0,0.82-1.22,1.93-1.37c0.86-0.11,1.95,0.72,1.95,0.72s0.48,3.9,0.68,4.72
		c0.58,2.33-0.74,8.78-0.74,8.78l1.71-4.76c0,0,0.37-0.83,1.06-5.44c0.11-0.73-0.35-2.92-0.35-2.92s1.66-2.37,2.09-3.01
		c0.78-1.16,1.79-1.94,2.43-2.49c1.45-1.23,4.64-1.43,6.19-2.9c0.84-0.8,2.79-1.54,2.79-1.54s0.71,0.07,1.12,0.63
		c0.61,0.85,0.36,2.54,0.89,3.3c1.38,2.02,3.23,2.8,3.43,3.62c0.6,2.5,1.61,6.19,1.61,6.19s1.08-4.85,1.12-7.39
		c0.44-1.41,0.77-3.42-0.44-5.34c-0.48-0.76,0.84-1.63-0.55-3.78c-0.35-0.55-2.61-1.71-2.61-1.71s-0.99-1.95-1.63-2.25
		c-0.79-0.36-4.41-0.53-4.41-0.53s-2.35-3.15-7.74-3.02c-3.44,0.09-7.02,2.24-8.73,4.04c-1.6,1.68-3.35,5.19-3.25,7.74"/>
	<path class="st62" d="M90.82,117.58l0.15-0.08c0.13-0.07,0.18-0.24,0.11-0.38"/>
	<path class="st63" d="M116.62,123.64l-0.05,0.19c0,0-0.7,2.97-2.13,4.6c-1.03,1.16-2.25,3.96-3.66,4.52
		c-1.11,0.44-2.9,1.62-5.34,0.02c-0.86-0.56-2.19-3.53-2.19-3.53s-4.79-3.16-5.58-5.19c0,0,0,0,0-0.01c0.08-0.5-0.32-2.93,1.63-2.91
		c3.67,1,6.15-1.03,9.69-2.09C111.87,118.03,114.65,121.09,116.62,123.64z"/>
	<path class="st24" d="M114.08,260.07c0,0,4.18-27.83,4.29-37.09c0.02-1.38,0-32.79,0-32.79s-5.96-1.02-8.01-1.02h-14.6
		c-1.79,0-5.86,0.39-5.86,0.39s-2.85,33.27-2.85,34.92l4.66,35.64c0,3.49,2.35,5.09,5.73,5.09l2.99,0.05l2.82-44.82l1.91,44.81
		l1.92,0.01C110.46,265.25,114.08,263.56,114.08,260.07z"/>
	<polygon class="st64" points="108.01,163.02 111.64,163.84 113.51,149.25 108.24,139.3 106.83,144.27 98.2,139.82 	"/>
	<path class="st65" d="M103.47,146.39c1.07,1.19,2.55,4.48,3.46,5.8c1.62,2.33,3.37,11.03,3.37,11.03s1.01-7.29,1.1-9.79
		c0.1-2.53-0.22-7.71-1.15-10.05c-0.8-2.03-5.21-6.94-5.21-6.94l3.18,1.23l7.83,7.52c0,0,5.37,3.79,5.9,6.36
		c0.88,4.25-0.96,10.02-1.39,10.91c-0.98,2.03-0.25,15.35,0,18.28c0.25,2.96,0,36.36,0,36.36s-13.26-0.43-16.33-0.05
		c-4.35,0.54-17.24-3.28-17.24-3.28s4.07-31.36,4.63-34.29c0.74-3.86,1.41-11.79,0.82-15.67c-0.28-1.83-1.89-4.03-1.89-4.03
		s-4.6-15.93-2.7-18.12c1.03-1.19,2.72-3.2,4.19-3.97c0.92-0.48,4.11-0.27,4.11-0.27S101.44,144.14,103.47,146.39z"/>
	<path class="st66" d="M95.93,137.26c0,0,9.05,9.41,11.02,13.24c1.81,3.49,3.3,11.42,3.3,11.42s1.6-8.83,0.82-13.1
		c-0.63-3.4-6.94-13.84-6.94-13.84l12.66,14.32l-2.52,3.04l1.78,3.06l-5.34,16.31l-6.72-14.88l1.78-3.06l-4.74,0.2l-5.34-15.69
		L95.93,137.26z"/>
	<polygon class="st67" points="91.25,101.77 97.6,96.56 98.35,97.53 92,102.74 	"/>
	<path class="st50" d="M91.29,102.02l6.57-5.4c1.38-1.13,0.36-2.44-0.73-3.86l-3.61-2.36c-1.1-1.42-0.94-3.07-4.79-1.06l-4.53,3.51
		c-3.24,3.71,1.15,3.26,2.25,4.67l0.35,3.97C87.9,102.91,89.92,103.15,91.29,102.02z"/>
	<path class="st68" d="M95.36,175.47c0,0-0.37-11.87,3.91-11.47c5.76,0.52,4.84,11.34,4.84,11.34"/>
	<path class="st68" d="M99.26,164c0,0,1.5-8.31,0.97-10.96c-0.77-3.82-5.8-12.02-4.55-15.22c0.18-0.46,1.97-1.82,1.97-1.82"/>
	<polygon class="st60" points="96.71,133.78 99.1,135.45 98.2,139.52 96.49,137.84 96.61,135.63 	"/>
	<path class="st68" d="M116.78,159.11c0,0,2.52-7.18,1.5-9.67c-1.47-3.6-8.75-11.09-11.54-12.98c-0.4-0.27-4.37-1.86-4.37-1.86"/>
	<polygon class="st60" points="103.02,132.99 100.91,132.86 101.01,137.05 106.23,138 103.92,134.43 	"/>
	<ellipse class="st69" cx="104.16" cy="175.47" rx="1.69" ry="0.77"/>
	<ellipse class="st69" cx="95.35" cy="175.87" rx="1.76" ry="0.91"/>
	<ellipse class="st70" cx="115.84" cy="161.6" rx="3.02" ry="3.11"/>
	<ellipse class="st71" cx="115.84" cy="161.6" rx="1.73" ry="1.79"/>
	<path class="st72" d="M87.85,141.65c0,0,2.81,3.89,3.51,8.34c0.59,3.75-0.39,10.4-0.39,10.4s-1.71,11-0.14,15.37
		c1.45,4.06,2.26,8.82,2.26,8.82l-3.02,7.78c0,0-10.51-13.38-12.44-18.52c-0.97-2.57,2.23-6.43,2.59-9.14
		c0.62-4.67,0.11-12.06,2.4-16.22C83.64,146.61,87.85,141.65,87.85,141.65z"/>
</g>
<g>
	<polygon class="st73" points="568.08,165.98 554.91,169.74 545.06,160.22 548.39,146.94 561.56,143.17 571.4,152.69 	"/>
	<polygon class="st74" points="574.67,189.06 561.5,192.82 551.66,183.3 554.98,170.01 568.15,166.25 578,175.77 	"/>
	<polygon class="st75" points="551.54,183.33 538.38,187.1 528.53,177.57 531.85,164.29 545.02,160.52 554.87,170.05 	"/>
	<polygon class="st73" points="557.8,205.7 544.63,209.47 534.78,199.94 538.11,186.66 551.28,182.89 561.12,192.42 	"/>
	<polygon class="st74" points="564.31,228.51 551.15,232.27 541.3,222.75 544.63,209.47 557.8,205.7 567.64,215.22 	"/>
	<polygon class="st74" points="581.21,211.94 568.05,215.7 558.2,206.18 561.52,192.89 574.69,189.13 584.54,198.65 	"/>
	<polygon class="st76" points="541.18,222.78 528.01,226.55 518.17,217.03 521.5,203.74 534.67,199.98 544.51,209.5 	"/>
	<polygon class="st74" points="591.36,249.94 578.19,253.71 568.35,244.19 571.67,230.9 584.84,227.14 594.69,236.66 	"/>
	<polygon class="st77" points="528.53,177.57 515.37,181.34 505.52,171.81 508.85,158.53 522.02,154.76 531.86,164.29 	"/>
	<polygon class="st76" points="505.87,170.8 492.7,174.56 482.85,165.04 486.17,151.75 499.34,147.99 509.19,157.51 	"/>
	<polygon class="st78" points="547.71,245.59 534.54,249.36 524.69,239.83 528.01,226.55 541.18,222.78 551.03,232.31 	"/>
	<polygon class="st77" points="518.18,217.03 505.01,220.79 495.16,211.26 498.49,197.98 511.66,194.21 521.5,203.74 	"/>
</g>
<g class="st79">
	<polygon class="st73" points="408.56,245.37 398.84,242.59 391.58,249.62 394.03,259.42 403.75,262.2 411.01,255.17 	"/>
	<polygon class="st74" points="413.42,228.34 403.71,225.57 396.45,232.59 398.9,242.4 408.61,245.17 415.88,238.15 	"/>
	<polygon class="st75" points="396.36,232.57 386.65,229.79 379.38,236.82 381.83,246.62 391.55,249.4 398.81,242.37 	"/>
	<polygon class="st73" points="400.97,216.06 391.26,213.29 384,220.31 386.45,230.11 396.16,232.89 403.43,225.87 	"/>
	<polygon class="st74" points="405.78,199.24 396.07,196.46 388.8,203.48 391.26,213.29 400.97,216.06 408.24,209.04 	"/>
	<polygon class="st74" points="418.25,211.46 408.53,208.69 401.27,215.71 403.72,225.51 413.44,228.29 420.7,221.27 	"/>
	<polygon class="st76" points="388.72,203.46 379,200.69 371.74,207.71 374.19,217.51 383.91,220.29 391.17,213.26 	"/>
	<polygon class="st74" points="425.74,183.42 416.02,180.64 408.76,187.67 411.21,197.47 420.93,200.25 428.19,193.22 	"/>
	<polygon class="st77" points="379.38,236.82 369.67,234.04 362.41,241.07 364.86,250.87 374.58,253.64 381.84,246.62 	"/>
	<polygon class="st76" points="362.66,241.82 352.95,239.04 345.68,246.06 348.13,255.87 357.85,258.64 365.11,251.62 	"/>
	<polygon class="st78" points="393.53,186.63 383.81,183.86 376.55,190.88 379,200.69 388.72,203.46 395.98,196.44 	"/>
	<polygon class="st77" points="371.74,207.71 362.03,204.93 354.77,211.96 357.22,221.76 366.93,224.54 374.2,217.51 	"/>
</g>
<g class="st79">
	<polygon class="st73" points="426.1,104.15 422.37,91.1 431.8,81.34 444.97,84.64 448.7,97.69 439.27,107.45 	"/>
	<polygon class="st74" points="403.22,110.69 399.49,97.63 408.93,87.88 422.1,91.17 425.83,104.23 416.39,113.98 	"/>
	<polygon class="st75" points="408.9,87.76 405.17,74.71 414.61,64.95 427.77,68.25 431.51,81.3 422.07,91.06 	"/>
	<polygon class="st73" points="386.73,93.96 383,80.91 392.44,71.15 405.6,74.45 409.33,87.5 399.89,97.26 	"/>
	<polygon class="st74" points="364.12,100.42 360.39,87.37 369.83,77.61 383,80.91 386.73,93.96 377.29,103.72 	"/>
	<polygon class="st74" points="380.55,117.17 376.82,104.12 386.25,94.36 399.42,97.65 403.15,110.71 393.71,120.46 	"/>
	<polygon class="st76" points="369.8,77.5 366.07,64.44 375.5,54.69 388.67,57.98 392.4,71.04 382.97,80.79 	"/>
	<polygon class="st74" points="342.88,127.23 339.14,114.18 348.58,104.42 361.75,107.72 365.48,120.77 356.04,130.52 	"/>
	<polygon class="st77" points="414.61,64.96 410.87,51.91 420.31,42.15 433.48,45.45 437.21,58.5 427.77,68.25 	"/>
	<polygon class="st76" points="421.32,42.49 417.59,29.44 427.03,19.68 440.2,22.97 443.93,36.03 434.49,45.78 	"/>
	<polygon class="st78" points="347.19,83.96 343.46,70.91 352.9,61.15 366.07,64.44 369.8,77.5 360.36,87.25 	"/>
	<polygon class="st77" points="375.5,54.69 371.77,41.64 381.21,31.88 394.38,35.18 398.11,48.23 388.67,57.99 	"/>
</g>
<g class="st79">
	<polygon class="st75" points="587.42,58.38 577.71,55.6 570.44,62.63 572.89,72.43 582.61,75.21 589.87,68.18 	"/>
	<polygon class="st73" points="592.03,41.88 582.32,39.1 575.06,46.13 577.51,55.93 587.23,58.71 594.49,51.68 	"/>
	<polygon class="st76" points="579.78,29.27 570.06,26.5 562.8,33.52 565.25,43.32 574.97,46.1 582.23,39.08 	"/>
	<polygon class="st77" points="570.44,62.63 560.73,59.85 553.47,66.88 555.92,76.68 565.64,79.46 572.9,72.43 	"/>
	<polygon class="st76" points="553.72,67.63 544.01,64.85 536.74,71.88 539.19,81.68 548.91,84.45 556.17,77.43 	"/>
	<polygon class="st77" points="562.8,33.52 553.09,30.75 545.83,37.77 548.28,47.57 558,50.35 565.26,43.32 	"/>
</g>
<line class="st80" x1="458" y1="135.58" x2="587.08" y2="135.58"/>
<g>
	<rect x="381.59" y="23.3" class="st24" width="179.63" height="206.4"/>
	<rect x="383.06" y="23.3" class="st81" width="179.63" height="204.27"/>
	<rect x="393.92" y="42.01" class="st82" width="153.26" height="51.61"/>
	<text transform="matrix(1 0 0 1 407.3838 58.427)" class="st83 st84">a 360 view</text>
	<text transform="matrix(1 0 0 1 411.2538 75.747)" class="st83 st85">of your patients </text>
	<text transform="matrix(1 0 0 1 418.7838 93.067)" class="st83 st85">claims history</text>
</g>
<rect x="429.59" y="111.02" class="st82" width="117.08" height="14.16"/>
<text transform="matrix(1 0 0 1 429.5878 118.1817)" class="st50 st86 st87">New Diagnoses</text>
<rect x="429.59" y="131.25" class="st82" width="117.08" height="14.16"/>
<text transform="matrix(1 0 0 1 429.5878 138.4124)" class="st50 st86 st87">Medications</text>
<rect x="429.59" y="152.13" class="st82" width="117.08" height="14.16"/>
<text transform="matrix(1 0 0 1 429.5878 159.2894)" class="st50 st86 st87">Completed Procedures</text>
<rect x="429.59" y="172.36" class="st82" width="117.08" height="14.16"/>
<text transform="matrix(1 0 0 1 429.5878 179.5223)" class="st50 st86 st87">Preventative Care</text>
<rect x="429.59" y="194.29" class="st82" width="117.08" height="14.16"/>
<text transform="matrix(1 0 0 1 429.5878 201.4473)" class="st50 st86 st87">External Encounters</text>
<g>
	<polygon class="st88" points="402.68,113.88 407.68,118.88 418.03,108.52 407.52,116.7 	"/>
	<polygon class="st88" points="402.68,133.99 407.68,138.99 418.03,128.63 407.52,136.81 	"/>
	<polygon class="st88" points="402.68,155.35 407.68,160.35 418.03,149.99 407.52,158.17 	"/>
	<polygon class="st88" points="402.68,174.44 407.68,179.44 418.03,169.08 407.52,177.26 	"/>
	<polygon class="st88" points="402.68,197.6 407.68,202.6 418.03,192.24 407.52,200.43 	"/>
</g>
<circle class="st89" cx="478.4" cy="43.94" r="1.46"/>
</svg>
