<?xml version="1.0" encoding="utf-8"?>
<!-- Generator: Adobe Illustrator 24.0.3, SVG Export Plug-In . SVG Version: 6.00 Build 0)  -->
<svg version="1.1" id="Layer_1" xmlns="http://www.w3.org/2000/svg" xmlns:xlink="http://www.w3.org/1999/xlink" x="0px" y="0px"
	 viewBox="0 0 224.56 207.89" style="enable-background:new 0 0 224.56 207.89;" xml:space="preserve">
<style type="text/css">
	.st0{fill:#AADAF1;stroke:#276D98;stroke-width:0.25;stroke-miterlimit:10;}
	.st1{fill:#FDFEFE;stroke:#BFC1C1;stroke-width:0.25;stroke-miterlimit:10;}
	.st2{clip-path:url(#SVGID_2_);}
	.st3{fill:#60A36A;}
	.st4{fill:#F6DA8C;}
	.st5{fill:#9DBEA4;}
	.st6{clip-path:url(#SVGID_2_);fill:#9DD9DD;}
	.st7{clip-path:url(#SVGID_4_);}
	.st8{clip-path:url(#SVGID_4_);fill:#9DD9DD;}
	.st9{fill:#EDEDED;}
</style>
<g>
	<circle class="st0" cx="112.28" cy="103.95" r="68.36"/>
	<g>
		<path class="st1" d="M137.37,142.68H87.2c-7.71,0-13.96-6.25-13.96-13.96V79.18c0-7.71,6.25-13.96,13.96-13.96h50.17
			c7.71,0,13.96,6.25,13.96,13.96v49.54C151.33,136.43,145.08,142.68,137.37,142.68z"/>
		<g>
			<g>
				<defs>
					<path id="SVGID_1_" d="M143.18,102.9c0,0.63-0.31,1.24-0.87,1.61c-0.88,0.57-2.06,0.31-2.63-0.57l-4.57-7.1v10.82l0.1,14.42
						c0,0-0.89,0.82-1.85,0.82c-1.15,0-2.02-0.83-2.02-0.83s-0.41-11.46-2.38-11.29c-2.09,0.18-2.26,11.29-2.26,11.29
						s-0.87,0.83-2.14,0.83c-0.94,0-1.75-0.83-1.75-0.83V96.6l-4.73,7.34c-0.57,0.88-1.75,1.14-2.63,0.57
						c-0.56-0.36-0.87-0.98-0.87-1.6c0-0.35,0.1-0.71,0.3-1.03l6.6-10.24c0.31-0.48,0.81-0.77,1.33-0.85
						c0.09-0.01,0.18-0.02,0.27-0.02h11.6c0.15,0,0.29,0.02,0.43,0.05c0.47,0.11,0.9,0.39,1.18,0.82l6.6,10.24
						C143.09,102.2,143.18,102.55,143.18,102.9z"/>
				</defs>
				<clipPath id="SVGID_2_">
					<use xlink:href="#SVGID_1_"  style="overflow:visible;"/>
				</clipPath>
				<g class="st2">
					<path class="st3" d="M154.5,83.27h-43.79c-1.16,0-2.11-0.95-2.11-2.11l0,0c0-1.16,0.95-2.11,2.11-2.11h43.79
						c1.16,0,2.11,0.95,2.11,2.11l0,0C156.61,82.32,155.66,83.27,154.5,83.27z"/>
					<path class="st4" d="M154.5,87.49h-43.79c-1.16,0-2.11-0.95-2.11-2.11v0c0-1.16,0.95-2.11,2.11-2.11h43.79
						c1.16,0,2.11,0.95,2.11,2.11v0C156.61,86.54,155.66,87.49,154.5,87.49z"/>
					<path class="st5" d="M154.5,91.71h-43.79c-1.16,0-2.11-0.95-2.11-2.11v0c0-1.16,0.95-2.11,2.11-2.11h43.79
						c1.16,0,2.11,0.95,2.11,2.11v0C156.61,90.76,155.66,91.71,154.5,91.71z"/>
					<path class="st3" d="M154.5,95.94h-43.79c-1.16,0-2.11-0.95-2.11-2.11v0c0-1.16,0.95-2.11,2.11-2.11h43.79
						c1.16,0,2.11,0.95,2.11,2.11v0C156.61,94.99,155.66,95.94,154.5,95.94z"/>
					<path class="st4" d="M154.5,100.16h-43.79c-1.16,0-2.11-0.95-2.11-2.11v0c0-1.16,0.95-2.11,2.11-2.11h43.79
						c1.16,0,2.11,0.95,2.11,2.11v0C156.61,99.21,155.66,100.16,154.5,100.16z"/>
					<path class="st3" d="M154.5,104.38h-43.79c-1.16,0-2.11-0.95-2.11-2.11l0,0c0-1.16,0.95-2.11,2.11-2.11h43.79
						c1.16,0,2.11,0.95,2.11,2.11l0,0C156.61,103.43,155.66,104.38,154.5,104.38z"/>
					<path class="st4" d="M154.5,108.31h-43.79c-1.16,0-2.11-0.95-2.11-2.11l0,0c0-1.16,0.95-2.11,2.11-2.11h43.79
						c1.16,0,2.11,0.95,2.11,2.11l0,0C156.61,107.36,155.66,108.31,154.5,108.31z"/>
					<path class="st5" d="M154.5,112.53h-43.79c-1.16,0-2.11-0.95-2.11-2.11v0c0-1.16,0.95-2.11,2.11-2.11h43.79
						c1.16,0,2.11,0.95,2.11,2.11v0C156.61,111.58,155.66,112.53,154.5,112.53z"/>
					<path class="st3" d="M154.5,116.75h-43.79c-1.16,0-2.11-0.95-2.11-2.11v0c0-1.16,0.95-2.11,2.11-2.11h43.79
						c1.16,0,2.11,0.95,2.11,2.11v0C156.61,115.8,155.66,116.75,154.5,116.75z"/>
					<path class="st4" d="M154.5,120.69h-43.79c-1.16,0-2.11-0.95-2.11-2.11l0,0c0-1.16,0.95-2.11,2.11-2.11h43.79
						c1.16,0,2.11,0.95,2.11,2.11l0,0C156.61,119.74,155.66,120.69,154.5,120.69z"/>
					<path class="st5" d="M154.5,124.91h-43.79c-1.16,0-2.11-0.95-2.11-2.11l0,0c0-1.16,0.95-2.11,2.11-2.11h43.79
						c1.16,0,2.11,0.95,2.11,2.11l0,0C156.61,123.96,155.66,124.91,154.5,124.91z"/>
				</g>
				<path class="st6" d="M122.8,90.77h0.27c-0.09,0-0.18,0.01-0.27,0.02V90.77z"/>
				<path class="st6" d="M135.11,90.77v0.05c-0.14-0.03-0.28-0.05-0.43-0.05H135.11z"/>
				<circle class="st6" cx="129.2" cy="84.46" r="4.23"/>
			</g>
			<g>
				<defs>
					<circle id="SVGID_3_" cx="128.88" cy="84.75" r="4.23"/>
				</defs>
				<clipPath id="SVGID_4_">
					<use xlink:href="#SVGID_3_"  style="overflow:visible;"/>
				</clipPath>
				<g class="st7">
					<path class="st3" d="M154.18,83.56h-43.79c-1.16,0-2.11-0.95-2.11-2.11l0,0c0-1.16,0.95-2.11,2.11-2.11h43.79
						c1.16,0,2.11,0.95,2.11,2.11l0,0C156.29,82.61,155.34,83.56,154.18,83.56z"/>
					<path class="st4" d="M154.18,87.78h-43.79c-1.16,0-2.11-0.95-2.11-2.11l0,0c0-1.16,0.95-2.11,2.11-2.11h43.79
						c1.16,0,2.11,0.95,2.11,2.11l0,0C156.29,86.83,155.34,87.78,154.18,87.78z"/>
					<path class="st5" d="M154.18,92h-43.79c-1.16,0-2.11-0.95-2.11-2.11v0c0-1.16,0.95-2.11,2.11-2.11h43.79
						c1.16,0,2.11,0.95,2.11,2.11v0C156.29,91.05,155.34,92,154.18,92z"/>
					<path class="st3" d="M154.18,96.22h-43.79c-1.16,0-2.11-0.95-2.11-2.11v0c0-1.16,0.95-2.11,2.11-2.11h43.79
						c1.16,0,2.11,0.95,2.11,2.11v0C156.29,95.27,155.34,96.22,154.18,96.22z"/>
					<path class="st4" d="M154.18,100.44h-43.79c-1.16,0-2.11-0.95-2.11-2.11v0c0-1.16,0.95-2.11,2.11-2.11h43.79
						c1.16,0,2.11,0.95,2.11,2.11v0C156.29,99.49,155.34,100.44,154.18,100.44z"/>
					<path class="st3" d="M154.18,104.66h-43.79c-1.16,0-2.11-0.95-2.11-2.11v0c0-1.16,0.95-2.11,2.11-2.11h43.79
						c1.16,0,2.11,0.95,2.11,2.11v0C156.29,103.71,155.34,104.66,154.18,104.66z"/>
					<path class="st4" d="M154.18,108.6h-43.79c-1.16,0-2.11-0.95-2.11-2.11l0,0c0-1.16,0.95-2.11,2.11-2.11h43.79
						c1.16,0,2.11,0.95,2.11,2.11l0,0C156.29,107.65,155.34,108.6,154.18,108.6z"/>
					<path class="st5" d="M154.18,112.82h-43.79c-1.16,0-2.11-0.95-2.11-2.11l0,0c0-1.16,0.95-2.11,2.11-2.11h43.79
						c1.16,0,2.11,0.95,2.11,2.11l0,0C156.29,111.87,155.34,112.82,154.18,112.82z"/>
					<path class="st3" d="M154.18,117.04h-43.79c-1.16,0-2.11-0.95-2.11-2.11v0c0-1.16,0.95-2.11,2.11-2.11h43.79
						c1.16,0,2.11,0.95,2.11,2.11v0C156.29,116.09,155.34,117.04,154.18,117.04z"/>
					<path class="st4" d="M154.18,120.97h-43.79c-1.16,0-2.11-0.95-2.11-2.11v0c0-1.16,0.95-2.11,2.11-2.11h43.79
						c1.16,0,2.11,0.95,2.11,2.11v0C156.29,120.02,155.34,120.97,154.18,120.97z"/>
					<path class="st5" d="M154.18,125.19h-43.79c-1.16,0-2.11-0.95-2.11-2.11v0c0-1.16,0.95-2.11,2.11-2.11h43.79
						c1.16,0,2.11,0.95,2.11,2.11v0C156.29,124.24,155.34,125.19,154.18,125.19z"/>
				</g>
				<path class="st8" d="M122.48,91.05h0.27c-0.09,0-0.18,0.01-0.27,0.02V91.05z"/>
				<path class="st8" d="M134.79,91.05v0.05c-0.14-0.03-0.28-0.05-0.43-0.05H134.79z"/>
			</g>
		</g>
		<path class="st9" d="M110.78,93.38H83.47c-0.95,0-1.73-0.78-1.73-1.73v0c0-0.95,0.78-1.73,1.73-1.73h27.31
			c0.95,0,1.73,0.78,1.73,1.73v0C112.51,92.6,111.73,93.38,110.78,93.38z"/>
		<path class="st9" d="M110.55,99.36H83.24c-0.95,0-1.73-0.78-1.73-1.73v0c0-0.95,0.78-1.73,1.73-1.73h27.31
			c0.95,0,1.73,0.78,1.73,1.73v0C112.28,98.58,111.5,99.36,110.55,99.36z"/>
		<path class="st9" d="M110.55,105.34H83.24c-0.95,0-1.73-0.78-1.73-1.73v0c0-0.95,0.78-1.73,1.73-1.73h27.31
			c0.95,0,1.73,0.78,1.73,1.73v0C112.28,104.56,111.5,105.34,110.55,105.34z"/>
		<path class="st9" d="M110.78,111.47H83.47c-0.95,0-1.73-0.78-1.73-1.73l0,0c0-0.95,0.78-1.73,1.73-1.73h27.31
			c0.95,0,1.73,0.78,1.73,1.73l0,0C112.51,110.69,111.73,111.47,110.78,111.47z"/>
		<path class="st9" d="M110.78,117.6H83.47c-0.95,0-1.73-0.78-1.73-1.73v0c0-0.95,0.78-1.73,1.73-1.73h27.31
			c0.95,0,1.73,0.78,1.73,1.73v0C112.51,116.82,111.73,117.6,110.78,117.6z"/>
		<path class="st9" d="M110.78,123.74H83.47c-0.95,0-1.73-0.78-1.73-1.73l0,0c0-0.95,0.78-1.73,1.73-1.73h27.31
			c0.95,0,1.73,0.78,1.73,1.73l0,0C112.51,122.96,111.73,123.74,110.78,123.74z"/>
		<path class="st9" d="M110.78,130.25H83.47c-0.95,0-1.73-0.78-1.73-1.73v0c0-0.95,0.78-1.73,1.73-1.73h27.31
			c0.95,0,1.73,0.78,1.73,1.73v0C112.51,129.47,111.73,130.25,110.78,130.25z"/>
		<path class="st9" d="M108.79,83.72H85.23c-1.98,0-3.61-1.62-3.61-3.61v-1.54c0-1.98,1.62-3.61,3.61-3.61h23.56
			c1.98,0,3.61,1.62,3.61,3.61v1.54C112.39,82.1,110.77,83.72,108.79,83.72z"/>
	</g>
</g>
</svg>
