<?xml version="1.0" encoding="utf-8"?>
<!-- Generator: Adobe Illustrator 25.3.1, SVG Export Plug-In . SVG Version: 6.00 Build 0)  -->
<svg version="1.1" id="Layer_1" xmlns="http://www.w3.org/2000/svg" xmlns:xlink="http://www.w3.org/1999/xlink" x="0px" y="0px"
	 viewBox="0 0 612 357.69" style="enable-background:new 0 0 612 357.69;" xml:space="preserve">
<style type="text/css">
	.st0{opacity:0.15;fill:none;stroke:#FFFFFF;stroke-miterlimit:10;enable-background:new    ;}
	.st1{opacity:0.1;fill:none;stroke:#FFFFFF;stroke-miterlimit:10;enable-background:new    ;}
	.st2{opacity:0.05;fill:none;stroke:#FFFFFF;stroke-miterlimit:10;enable-background:new    ;}
	.st3{opacity:0.3;fill:none;stroke:#FFFFFF;stroke-miterlimit:10;enable-background:new    ;}
	.st4{opacity:0.25;fill:none;stroke:#FFFFFF;stroke-miterlimit:10;enable-background:new    ;}
	.st5{opacity:0.5;fill:none;stroke:#FFFFFF;stroke-miterlimit:10;enable-background:new    ;}
	.st6{opacity:0.2;fill:none;stroke:#FFFFFF;stroke-miterlimit:10;enable-background:new    ;}
	.st7{opacity:0.3;}
</style>
<polygon class="st0" points="119.7,36.39 101.61,41.56 88.09,28.48 92.65,10.24 110.74,5.07 124.26,18.14 "/>
<polygon class="st0" points="128.76,68.09 110.67,73.26 97.15,60.18 101.71,41.93 119.8,36.76 133.32,49.84 "/>
<polygon class="st1" points="151.68,44.35 133.59,49.51 120.07,36.43 124.64,18.19 142.73,13.02 156.24,26.1 "/>
<polygon class="st2" points="65.38,52.31 47.29,57.49 33.77,44.41 38.34,26.16 56.43,20.99 69.94,34.07 "/>
<polygon class="st3" points="34.24,43.01 16.15,48.18 2.63,35.1 7.2,16.85 25.29,11.68 38.81,24.76 "/>
<polygon class="st4" points="96.99,60.23 78.9,65.4 65.38,52.31 69.94,34.07 88.03,28.9 101.55,41.98 "/>
<polygon class="st0" points="105.57,90.95 87.49,96.12 73.97,83.04 78.53,64.79 96.62,59.62 110.14,72.7 "/>
<polygon class="st1" points="594.65,337.9 578.37,342.55 566.2,330.79 570.31,314.36 586.59,309.71 598.76,321.48 "/>
<polygon class="st4" points="574.12,359.02 557.84,363.67 545.67,351.9 549.78,335.48 566.06,330.83 578.23,342.6 "/>
<polygon class="st0" points="615.53,317.42 599.26,322.07 587.09,310.3 591.2,293.88 607.48,289.23 619.64,300.99 "/>
<polygon class="st4" points="537.62,323.71 521.34,328.36 509.17,316.59 513.28,300.17 529.56,295.51 541.73,307.28 "/>
<polygon class="st1" points="509.59,315.33 493.32,319.98 481.15,308.21 485.26,291.79 501.54,287.14 513.7,298.91 "/>
<polygon class="st2" points="566.06,330.83 549.78,335.48 537.62,323.71 541.73,307.28 558,302.63 570.17,314.4 "/>
<circle class="st0" cx="74.38" cy="16.03" r="7.26"/>
<circle class="st0" cx="438.75" cy="345.84" r="17.83"/>
<circle class="st0" cx="438.75" cy="312.51" r="6.21"/>
<circle class="st4" cx="451.17" cy="315.86" r="2.53"/>
<circle class="st0" cx="397.91" cy="20.91" r="10.36"/>
<circle class="st4" cx="511.18" cy="351.66" r="5.81"/>
<circle class="st4" cx="417.71" cy="26.8" r="2.53"/>
<polygon class="st4" points="585.39,20.53 579.56,30.71 567.82,30.75 561.91,20.61 567.75,10.42 579.48,10.38 "/>
<polygon class="st0" points="603.24,30.74 597.41,40.93 585.67,40.97 579.77,30.83 585.6,20.64 597.34,20.6 "/>
<polygon class="st2" points="603.26,51.16 597.43,61.35 585.7,61.39 579.79,51.25 585.62,41.06 597.36,41.02 "/>
<polygon class="st5" points="603.14,10.15 597.31,20.34 585.57,20.38 579.67,10.24 585.5,0.05 597.23,0.01 "/>
<polygon class="st4" points="568.05,51.29 562.22,61.48 550.49,61.52 544.58,51.38 550.41,41.19 562.15,41.15 "/>
<polygon class="st1" points="550.09,60.7 544.26,70.88 532.52,70.93 526.62,60.78 532.44,50.6 544.18,50.55 "/>
<polygon class="st1" points="585.62,41.06 579.79,51.25 568.05,51.29 562.15,41.15 567.98,30.97 579.72,30.92 "/>
<polygon class="st1" points="620.48,61.15 614.65,71.34 602.92,71.38 597.01,61.24 602.84,51.05 614.58,51.01 "/>
<polygon class="st1" points="585.3,81.7 579.46,91.89 567.73,91.93 561.82,81.79 567.65,71.6 579.39,71.56 "/>
<polygon class="st6" points="602.86,71.47 597.03,81.66 585.3,81.7 579.39,71.56 585.22,61.37 596.96,61.33 "/>
<circle class="st0" cx="556.28" cy="31.16" r="4.53"/>
<circle class="st1" cx="585.69" cy="108.38" r="4.03"/>
<polygon class="st0" points="60.29,303.58 73.04,314.25 70.66,331.23 55.52,337.53 42.76,326.87 45.15,309.89 "/>
<polygon class="st4" points="88.29,308.04 101.05,318.7 98.66,335.68 83.52,341.99 70.77,331.32 73.16,314.35 "/>
<polygon class="st1" points="70.77,331.32 83.52,341.99 81.14,358.97 66,365.27 53.25,354.61 55.63,337.63 "/>
<polygon class="st2" points="105.58,285.34 118.33,296.01 115.94,312.99 100.81,319.29 88.06,308.63 90.44,291.65 "/>
<polygon class="st1" points="126.42,340.72 139.18,351.38 136.79,368.36 121.65,374.67 108.9,364.01 111.29,347.03 "/>
<polygon class="st1" points="116.06,313.08 128.81,323.75 126.43,340.72 111.29,347.03 98.54,336.36 100.92,319.39 "/>
<ellipse class="st0" cx="33.59" cy="267.85" rx="6.29" ry="6.63"/>
<ellipse class="st1" cx="163.08" cy="346.01" rx="5.59" ry="5.89"/>
<ellipse class="st0" cx="60.35" cy="244.79" rx="15.59" ry="16.43"/>
<polygon class="st0" points="601.82,224.98 575.95,232.37 556.61,213.66 563.14,187.55 589.01,180.16 608.35,198.87 "/>
<polygon class="st0" points="482.12,24.56 460.55,40.65 435.83,30.01 432.69,3.28 454.26,-12.8 478.98,-2.16 "/>
<polygon class="st1" points="529.49,19.72 507.91,35.8 483.2,25.16 480.06,-1.56 501.63,-17.65 526.34,-7.01 "/>
<polygon class="st3" points="417.21,72.96 395.64,89.04 370.92,78.4 367.78,51.68 389.35,35.59 414.07,46.23 "/>
<polygon class="st1" points="463.5,67.52 441.93,83.6 417.21,72.96 414.07,46.24 435.64,30.15 460.36,40.79 "/>
<circle class="st1" cx="554.67" cy="239.45" r="10.36"/>
<circle class="st4" cx="545.84" cy="220.77" r="2.53"/>
<g class="st7">
	<circle class="st4" cx="35.84" cy="150.49" r="8.76"/>
	<circle class="st4" cx="52.13" cy="156.8" r="2.14"/>
</g>
</svg>
