<?xml version="1.0" encoding="utf-8"?>
<!-- Generator: Adobe Illustrator 24.0.3, SVG Export Plug-In . SVG Version: 6.00 Build 0)  -->
<svg version="1.1" id="Layer_1" xmlns="http://www.w3.org/2000/svg" xmlns:xlink="http://www.w3.org/1999/xlink" x="0px" y="0px"
	 viewBox="0 0 224.56 207.89" style="enable-background:new 0 0 224.56 207.89;" xml:space="preserve">
<style type="text/css">
	.st0{fill:#AADAF1;stroke:#276D98;stroke-width:0.25;stroke-miterlimit:10;}
	.st1{fill:#FDFEFE;stroke:#BFC1C1;stroke-width:0.25;stroke-miterlimit:10;}
	.st2{fill:none;stroke:#F6DA8C;stroke-miterlimit:10;}
	.st3{fill:#3D6E3E;}
	.st4{fill:#244226;}
	.st5{fill:#60A36A;}
	.st6{fill:#9DBEA4;}
</style>
<g>
	<circle class="st0" cx="112.28" cy="103.95" r="68.36"/>
	<g>
		<path class="st1" d="M140.21,142.68H84.35c-6.14,0-11.12-4.98-11.12-11.12V76.33c0-6.14,4.98-11.12,11.12-11.12h55.87
			c6.14,0,11.12,4.98,11.12,11.12v55.23C151.33,137.7,146.35,142.68,140.21,142.68z"/>
		<g>
			<line class="st2" x1="93.15" y1="116.75" x2="103.66" y2="97.9"/>
			<line class="st2" x1="108.53" y1="95.11" x2="116.85" y2="110"/>
			<line class="st2" x1="110.35" y1="91.11" x2="141.9" y2="98.92"/>
			<path class="st2" d="M73.23,132.37"/>
			<path class="st2" d="M87.92,124.17"/>
		</g>
		<circle class="st3" cx="107.44" cy="91.11" r="9.41"/>
		<circle class="st4" cx="91.64" cy="121.24" r="4.74"/>
		<circle class="st5" cx="119.43" cy="112.02" r="4.74"/>
		<circle class="st6" cx="141.9" cy="98.92" r="4.74"/>
	</g>
</g>
</svg>
